%TF.GenerationSoftware,KiCad,Pcbnew,(5.1.6)-1*%
%TF.CreationDate,2020-05-24T17:59:59+09:00*%
%TF.ProjectId,BeadsEe,42656164-7345-4652-9e6b-696361645f70,Rev.1.0*%
%TF.SameCoordinates,Original*%
%TF.FileFunction,Copper,L2,Bot*%
%TF.FilePolarity,Positive*%
%FSLAX46Y46*%
G04 Gerber Fmt 4.6, Leading zero omitted, Abs format (unit mm)*
G04 Created by KiCad (PCBNEW (5.1.6)-1) date 2020-05-24 17:59:59*
%MOMM*%
%LPD*%
G01*
G04 APERTURE LIST*
%TA.AperFunction,ComponentPad*%
%ADD10C,1.600000*%
%TD*%
%TA.AperFunction,ComponentPad*%
%ADD11C,1.400000*%
%TD*%
%TA.AperFunction,ComponentPad*%
%ADD12O,1.400000X1.400000*%
%TD*%
%TA.AperFunction,ComponentPad*%
%ADD13C,1.800000*%
%TD*%
%TA.AperFunction,ComponentPad*%
%ADD14R,1.800000X1.800000*%
%TD*%
%TA.AperFunction,ComponentPad*%
%ADD15R,1.500000X1.500000*%
%TD*%
%TA.AperFunction,ComponentPad*%
%ADD16C,1.500000*%
%TD*%
%TA.AperFunction,ComponentPad*%
%ADD17C,2.000000*%
%TD*%
%TA.AperFunction,ComponentPad*%
%ADD18O,1.700000X1.700000*%
%TD*%
%TA.AperFunction,ComponentPad*%
%ADD19R,1.700000X1.700000*%
%TD*%
%TA.AperFunction,ComponentPad*%
%ADD20R,3.500000X3.500000*%
%TD*%
%TA.AperFunction,ComponentPad*%
%ADD21O,1.727200X2.032000*%
%TD*%
%TA.AperFunction,ComponentPad*%
%ADD22C,4.064000*%
%TD*%
%TA.AperFunction,ViaPad*%
%ADD23C,0.600000*%
%TD*%
%TA.AperFunction,ViaPad*%
%ADD24C,0.800000*%
%TD*%
%TA.AperFunction,Conductor*%
%ADD25C,0.250000*%
%TD*%
%TA.AperFunction,Conductor*%
%ADD26C,0.600000*%
%TD*%
%TA.AperFunction,Conductor*%
%ADD27C,0.254000*%
%TD*%
G04 APERTURE END LIST*
D10*
%TO.P,TP4,1*%
%TO.N,N/C*%
X177038000Y-113665000D03*
%TD*%
%TO.P,TP4,1*%
%TO.N,N/C*%
X174498000Y-113665000D03*
%TD*%
%TO.P,TP4,1*%
%TO.N,N/C*%
X171958000Y-113665000D03*
%TD*%
%TO.P,TP4,1*%
%TO.N,N/C*%
X177038000Y-111125000D03*
%TD*%
%TO.P,TP4,1*%
%TO.N,N/C*%
X174498000Y-111125000D03*
%TD*%
%TO.P,TP4,1*%
%TO.N,N/C*%
X171958000Y-111125000D03*
%TD*%
%TO.P,TP4,1*%
%TO.N,N/C*%
X177038000Y-108585000D03*
%TD*%
%TO.P,TP4,1*%
%TO.N,N/C*%
X174498000Y-108585000D03*
%TD*%
%TO.P,TP4,1*%
%TO.N,N/C*%
X171958000Y-108585000D03*
%TD*%
%TO.P,TP4,1*%
%TO.N,N/C*%
X177038000Y-106045000D03*
%TD*%
%TO.P,TP4,1*%
%TO.N,N/C*%
X174498000Y-106045000D03*
%TD*%
%TO.P,TP4,1*%
%TO.N,N/C*%
X171958000Y-106045000D03*
%TD*%
%TO.P,TP4,1*%
%TO.N,N/C*%
X177038000Y-103505000D03*
%TD*%
%TO.P,TP4,1*%
%TO.N,N/C*%
X174498000Y-103505000D03*
%TD*%
%TO.P,TP4,1*%
%TO.N,N/C*%
X171958000Y-118745000D03*
%TD*%
%TO.P,TP4,1*%
%TO.N,N/C*%
X169418000Y-118745000D03*
%TD*%
%TO.P,TP4,1*%
%TO.N,N/C*%
X166878000Y-118745000D03*
%TD*%
%TO.P,TP4,1*%
%TO.N,N/C*%
X164338000Y-118745000D03*
%TD*%
%TO.P,TP4,1*%
%TO.N,N/C*%
X171958000Y-116205000D03*
%TD*%
%TO.P,TP4,1*%
%TO.N,N/C*%
X169418000Y-116205000D03*
%TD*%
%TO.P,TP4,1*%
%TO.N,N/C*%
X166878000Y-116205000D03*
%TD*%
%TO.P,TP4,1*%
%TO.N,N/C*%
X164338000Y-116205000D03*
%TD*%
%TO.P,TP4,1*%
%TO.N,N/C*%
X169418000Y-113665000D03*
%TD*%
%TO.P,TP4,1*%
%TO.N,N/C*%
X166878000Y-113665000D03*
%TD*%
%TO.P,TP4,1*%
%TO.N,N/C*%
X164338000Y-113665000D03*
%TD*%
%TO.P,TP4,1*%
%TO.N,N/C*%
X169418000Y-111125000D03*
%TD*%
%TO.P,TP4,1*%
%TO.N,N/C*%
X166878000Y-111125000D03*
%TD*%
%TO.P,TP4,1*%
%TO.N,N/C*%
X164338000Y-111125000D03*
%TD*%
%TO.P,TP4,1*%
%TO.N,N/C*%
X169418000Y-108585000D03*
%TD*%
%TO.P,TP4,1*%
%TO.N,N/C*%
X166878000Y-108585000D03*
%TD*%
%TO.P,TP4,1*%
%TO.N,N/C*%
X164338000Y-108585000D03*
%TD*%
%TO.P,TP4,1*%
%TO.N,N/C*%
X169418000Y-106045000D03*
%TD*%
%TO.P,TP4,1*%
%TO.N,N/C*%
X166878000Y-106045000D03*
%TD*%
%TO.P,TP4,1*%
%TO.N,N/C*%
X164338000Y-106045000D03*
%TD*%
%TO.P,TP4,1*%
%TO.N,N/C*%
X171958000Y-103505000D03*
%TD*%
%TO.P,TP4,1*%
%TO.N,N/C*%
X169418000Y-103505000D03*
%TD*%
%TO.P,TP4,1*%
%TO.N,N/C*%
X166878000Y-103505000D03*
%TD*%
%TO.P,TP4,1*%
%TO.N,N/C*%
X164338000Y-103505000D03*
%TD*%
%TO.P,TP4,1*%
%TO.N,N/C*%
X149098000Y-100965000D03*
%TD*%
%TO.P,TP4,1*%
%TO.N,N/C*%
X161798000Y-118745000D03*
%TD*%
%TO.P,TP4,1*%
%TO.N,N/C*%
X159258000Y-118745000D03*
%TD*%
%TO.P,TP4,1*%
%TO.N,N/C*%
X156718000Y-118745000D03*
%TD*%
%TO.P,TP4,1*%
%TO.N,N/C*%
X154178000Y-118745000D03*
%TD*%
%TO.P,TP4,1*%
%TO.N,N/C*%
X151638000Y-118745000D03*
%TD*%
%TO.P,TP4,1*%
%TO.N,N/C*%
X149098000Y-118745000D03*
%TD*%
%TO.P,TP4,1*%
%TO.N,N/C*%
X161798000Y-116205000D03*
%TD*%
%TO.P,TP4,1*%
%TO.N,N/C*%
X159258000Y-116205000D03*
%TD*%
%TO.P,TP4,1*%
%TO.N,N/C*%
X156718000Y-116205000D03*
%TD*%
%TO.P,TP4,1*%
%TO.N,N/C*%
X154178000Y-116205000D03*
%TD*%
%TO.P,TP4,1*%
%TO.N,N/C*%
X151638000Y-116205000D03*
%TD*%
%TO.P,TP4,1*%
%TO.N,N/C*%
X149098000Y-116205000D03*
%TD*%
%TO.P,TP4,1*%
%TO.N,N/C*%
X161798000Y-113665000D03*
%TD*%
%TO.P,TP4,1*%
%TO.N,N/C*%
X159258000Y-113665000D03*
%TD*%
%TO.P,TP4,1*%
%TO.N,N/C*%
X156718000Y-113665000D03*
%TD*%
%TO.P,TP4,1*%
%TO.N,N/C*%
X154178000Y-113665000D03*
%TD*%
%TO.P,TP4,1*%
%TO.N,N/C*%
X151638000Y-113665000D03*
%TD*%
%TO.P,TP4,1*%
%TO.N,N/C*%
X149098000Y-113665000D03*
%TD*%
%TO.P,TP4,1*%
%TO.N,N/C*%
X161798000Y-111125000D03*
%TD*%
%TO.P,TP4,1*%
%TO.N,N/C*%
X159258000Y-111125000D03*
%TD*%
%TO.P,TP4,1*%
%TO.N,N/C*%
X156718000Y-111125000D03*
%TD*%
%TO.P,TP4,1*%
%TO.N,N/C*%
X154178000Y-111125000D03*
%TD*%
%TO.P,TP4,1*%
%TO.N,N/C*%
X151638000Y-111125000D03*
%TD*%
%TO.P,TP4,1*%
%TO.N,N/C*%
X149098000Y-111125000D03*
%TD*%
%TO.P,TP4,1*%
%TO.N,N/C*%
X161798000Y-108585000D03*
%TD*%
%TO.P,TP4,1*%
%TO.N,N/C*%
X159258000Y-108585000D03*
%TD*%
%TO.P,TP4,1*%
%TO.N,N/C*%
X156718000Y-108585000D03*
%TD*%
%TO.P,TP4,1*%
%TO.N,N/C*%
X154178000Y-108585000D03*
%TD*%
%TO.P,TP4,1*%
%TO.N,N/C*%
X151638000Y-108585000D03*
%TD*%
%TO.P,TP4,1*%
%TO.N,N/C*%
X149098000Y-108585000D03*
%TD*%
%TO.P,TP4,1*%
%TO.N,N/C*%
X161798000Y-106045000D03*
%TD*%
%TO.P,TP4,1*%
%TO.N,N/C*%
X159258000Y-106045000D03*
%TD*%
%TO.P,TP4,1*%
%TO.N,N/C*%
X156718000Y-106045000D03*
%TD*%
%TO.P,TP4,1*%
%TO.N,N/C*%
X154178000Y-106045000D03*
%TD*%
%TO.P,TP4,1*%
%TO.N,N/C*%
X151638000Y-106045000D03*
%TD*%
%TO.P,TP4,1*%
%TO.N,N/C*%
X149098000Y-106045000D03*
%TD*%
%TO.P,TP4,1*%
%TO.N,N/C*%
X161798000Y-103505000D03*
%TD*%
%TO.P,TP4,1*%
%TO.N,N/C*%
X159258000Y-103505000D03*
%TD*%
%TO.P,TP4,1*%
%TO.N,N/C*%
X156718000Y-103505000D03*
%TD*%
%TO.P,TP4,1*%
%TO.N,N/C*%
X154178000Y-103505000D03*
%TD*%
%TO.P,TP4,1*%
%TO.N,N/C*%
X151638000Y-103505000D03*
%TD*%
%TO.P,TP4,1*%
%TO.N,N/C*%
X149098000Y-103505000D03*
%TD*%
%TO.P,TP4,1*%
%TO.N,N/C*%
X161798000Y-100965000D03*
%TD*%
%TO.P,TP4,1*%
%TO.N,N/C*%
X159258000Y-100965000D03*
%TD*%
%TO.P,TP4,1*%
%TO.N,N/C*%
X156718000Y-100965000D03*
%TD*%
%TO.P,TP4,1*%
%TO.N,N/C*%
X154178000Y-100965000D03*
%TD*%
%TO.P,TP4,1*%
%TO.N,N/C*%
X151638000Y-100965000D03*
%TD*%
D11*
%TO.P,TP1,1*%
%TO.N,+5V*%
X146558000Y-111125000D03*
X146558000Y-113665000D03*
%TD*%
%TO.P,TP3,1*%
%TO.N,GND*%
X146558000Y-106045000D03*
X146558000Y-108585000D03*
%TD*%
%TO.P,TP2,1*%
%TO.N,+3V3*%
X146558000Y-116205000D03*
X146558000Y-118745000D03*
%TD*%
D12*
%TO.P,R9,2*%
%TO.N,VS*%
X121158000Y-106045000D03*
D11*
%TO.P,R9,1*%
%TO.N,Net-(D3-Pad2)*%
X128778000Y-106045000D03*
%TD*%
D13*
%TO.P,D3,2*%
%TO.N,Net-(D3-Pad2)*%
X133858000Y-116205000D03*
D14*
%TO.P,D3,1*%
%TO.N,GND*%
X136398000Y-116205000D03*
%TD*%
D15*
%TO.P,Q2,1*%
%TO.N,Net-(C2-Pad2)*%
X131318000Y-93345000D03*
D16*
%TO.P,Q2,3*%
%TO.N,/11(\u002A\u002A/MOSI)*%
X131318000Y-88265000D03*
%TO.P,Q2,2*%
%TO.N,/ServoSig_A*%
X131318000Y-90805000D03*
%TD*%
D15*
%TO.P,Q1,1*%
%TO.N,Net-(C1-Pad2)*%
X131318000Y-106045000D03*
D16*
%TO.P,Q1,3*%
%TO.N,/10(\u002A\u002A/SS)*%
X131318000Y-100965000D03*
%TO.P,Q1,2*%
%TO.N,/ServoSig_Z*%
X131318000Y-103505000D03*
%TD*%
D17*
%TO.P,SW2,2*%
%TO.N,/8*%
X171958000Y-93345000D03*
%TO.P,SW2,1*%
%TO.N,+5V*%
X171958000Y-98425000D03*
%TO.P,SW2,2*%
%TO.N,/8*%
X164338000Y-93345000D03*
%TO.P,SW2,1*%
%TO.N,+5V*%
X164338000Y-98425000D03*
%TD*%
%TO.P,SW1,2*%
%TO.N,/9(\u002A\u002A)*%
X171958000Y-83185000D03*
%TO.P,SW1,1*%
%TO.N,+5V*%
X171958000Y-88265000D03*
%TO.P,SW1,2*%
%TO.N,/9(\u002A\u002A)*%
X164338000Y-83185000D03*
%TO.P,SW1,1*%
%TO.N,+5V*%
X164338000Y-88265000D03*
%TD*%
D12*
%TO.P,R8,2*%
%TO.N,GND*%
X136398000Y-85725000D03*
D11*
%TO.P,R8,1*%
%TO.N,/8*%
X144018000Y-85725000D03*
%TD*%
D12*
%TO.P,R7,2*%
%TO.N,GND*%
X136398000Y-83185000D03*
D11*
%TO.P,R7,1*%
%TO.N,/9(\u002A\u002A)*%
X144018000Y-83185000D03*
%TD*%
D12*
%TO.P,R6,2*%
%TO.N,/ServoSig_A*%
X133858000Y-90805000D03*
D11*
%TO.P,R6,1*%
%TO.N,VS*%
X133858000Y-98425000D03*
%TD*%
D12*
%TO.P,R5,2*%
%TO.N,/ServoSig_Z*%
X133858000Y-103505000D03*
D11*
%TO.P,R5,1*%
%TO.N,VS*%
X133858000Y-111125000D03*
%TD*%
D12*
%TO.P,R4,2*%
%TO.N,Net-(C2-Pad2)*%
X144018000Y-95885000D03*
D11*
%TO.P,R4,1*%
%TO.N,+5V*%
X136398000Y-95885000D03*
%TD*%
D12*
%TO.P,R3,2*%
%TO.N,Net-(C1-Pad2)*%
X144018000Y-108585000D03*
D11*
%TO.P,R3,1*%
%TO.N,+5V*%
X136398000Y-108585000D03*
%TD*%
D12*
%TO.P,R2,2*%
%TO.N,/6(\u002A\u002A)*%
X149098000Y-85725000D03*
D11*
%TO.P,R2,1*%
%TO.N,Net-(D2-Pad2)*%
X149098000Y-93345000D03*
%TD*%
D12*
%TO.P,R1,2*%
%TO.N,/7*%
X146558000Y-85725000D03*
D11*
%TO.P,R1,1*%
%TO.N,Net-(D1-Pad2)*%
X146558000Y-93345000D03*
%TD*%
D18*
%TO.P,J4,6*%
%TO.N,/A4(SDA)*%
X123698000Y-80645000D03*
%TO.P,J4,5*%
X126238000Y-80645000D03*
%TO.P,J4,4*%
%TO.N,/A5(SCL)*%
X123698000Y-83185000D03*
%TO.P,J4,3*%
X126238000Y-83185000D03*
%TO.P,J4,2*%
%TO.N,GND*%
X123698000Y-85725000D03*
D19*
%TO.P,J4,1*%
X126238000Y-85725000D03*
%TD*%
%TO.P,J2,3*%
%TO.N,GND*%
%TA.AperFunction,ComponentPad*%
G36*
G01*
X122408000Y-119240000D02*
X122408000Y-117490000D01*
G75*
G02*
X123283000Y-116615000I875000J0D01*
G01*
X125033000Y-116615000D01*
G75*
G02*
X125908000Y-117490000I0J-875000D01*
G01*
X125908000Y-119240000D01*
G75*
G02*
X125033000Y-120115000I-875000J0D01*
G01*
X123283000Y-120115000D01*
G75*
G02*
X122408000Y-119240000I0J875000D01*
G01*
G37*
%TD.AperFunction*%
%TO.P,J2,2*%
%TA.AperFunction,ComponentPad*%
G36*
G01*
X119658000Y-114665000D02*
X119658000Y-112665000D01*
G75*
G02*
X120408000Y-111915000I750000J0D01*
G01*
X121908000Y-111915000D01*
G75*
G02*
X122658000Y-112665000I0J-750000D01*
G01*
X122658000Y-114665000D01*
G75*
G02*
X121908000Y-115415000I-750000J0D01*
G01*
X120408000Y-115415000D01*
G75*
G02*
X119658000Y-114665000I0J750000D01*
G01*
G37*
%TD.AperFunction*%
D20*
%TO.P,J2,1*%
%TO.N,/SvPow*%
X127158000Y-113665000D03*
%TD*%
D18*
%TO.P,J1,6*%
%TO.N,/ServoSig_A*%
X123698000Y-95885000D03*
%TO.P,J1,5*%
%TO.N,/ServoSig_Z*%
X126238000Y-95885000D03*
%TO.P,J1,4*%
%TO.N,VS*%
X123698000Y-98425000D03*
%TO.P,J1,3*%
X126238000Y-98425000D03*
%TO.P,J1,2*%
%TO.N,GND*%
X123698000Y-100965000D03*
D19*
%TO.P,J1,1*%
X126238000Y-100965000D03*
%TD*%
D13*
%TO.P,D2,2*%
%TO.N,Net-(D2-Pad2)*%
X156718000Y-88265000D03*
D14*
%TO.P,D2,1*%
%TO.N,GND*%
X159258000Y-88265000D03*
%TD*%
D13*
%TO.P,D1,2*%
%TO.N,Net-(D1-Pad2)*%
X156718000Y-93345000D03*
D14*
%TO.P,D1,1*%
%TO.N,GND*%
X159258000Y-93345000D03*
%TD*%
D10*
%TO.P,C2,2*%
%TO.N,Net-(C2-Pad2)*%
X141398000Y-90805000D03*
%TO.P,C2,1*%
%TO.N,+5V*%
X136398000Y-90805000D03*
%TD*%
%TO.P,C1,2*%
%TO.N,Net-(C1-Pad2)*%
X141398000Y-103505000D03*
%TO.P,C1,1*%
%TO.N,+5V*%
X136398000Y-103505000D03*
%TD*%
D21*
%TO.P,P1,1*%
%TO.N,N/C*%
X138938000Y-123825000D03*
%TO.P,P1,2*%
X141478000Y-123825000D03*
%TO.P,P1,3*%
X144018000Y-123825000D03*
%TO.P,P1,4*%
%TO.N,+3V3*%
X146558000Y-123825000D03*
%TO.P,P1,5*%
%TO.N,+5V*%
X149098000Y-123825000D03*
%TO.P,P1,6*%
%TO.N,GND*%
X151638000Y-123825000D03*
%TO.P,P1,7*%
X154178000Y-123825000D03*
%TO.P,P1,8*%
%TO.N,N/C*%
X156718000Y-123825000D03*
%TD*%
%TO.P,P2,1*%
%TO.N,N/C*%
X161798000Y-123825000D03*
%TO.P,P2,2*%
X164338000Y-123825000D03*
%TO.P,P2,3*%
X166878000Y-123825000D03*
%TO.P,P2,4*%
X169418000Y-123825000D03*
%TO.P,P2,5*%
%TO.N,/A4(SDA)*%
X171958000Y-123825000D03*
%TO.P,P2,6*%
%TO.N,/A5(SCL)*%
X174498000Y-123825000D03*
%TD*%
%TO.P,P3,1*%
%TO.N,/A5(SCL)*%
X129794000Y-75565000D03*
%TO.P,P3,2*%
%TO.N,/A4(SDA)*%
X132334000Y-75565000D03*
%TO.P,P3,3*%
%TO.N,N/C*%
X134874000Y-75565000D03*
%TO.P,P3,4*%
%TO.N,GND*%
X137414000Y-75565000D03*
%TO.P,P3,5*%
%TO.N,N/C*%
X139954000Y-75565000D03*
%TO.P,P3,6*%
X142494000Y-75565000D03*
%TO.P,P3,7*%
%TO.N,/11(\u002A\u002A/MOSI)*%
X145034000Y-75565000D03*
%TO.P,P3,8*%
%TO.N,/10(\u002A\u002A/SS)*%
X147574000Y-75565000D03*
%TO.P,P3,9*%
%TO.N,/9(\u002A\u002A)*%
X150114000Y-75565000D03*
%TO.P,P3,10*%
%TO.N,/8*%
X152654000Y-75565000D03*
%TD*%
%TO.P,P4,1*%
%TO.N,/7*%
X156718000Y-75565000D03*
%TO.P,P4,2*%
%TO.N,/6(\u002A\u002A)*%
X159258000Y-75565000D03*
%TO.P,P4,3*%
%TO.N,N/C*%
X161798000Y-75565000D03*
%TO.P,P4,4*%
X164338000Y-75565000D03*
%TO.P,P4,5*%
X166878000Y-75565000D03*
%TO.P,P4,6*%
X169418000Y-75565000D03*
%TO.P,P4,7*%
X171958000Y-75565000D03*
%TO.P,P4,8*%
X174498000Y-75565000D03*
%TD*%
D22*
%TO.P,P5,1*%
%TO.N,N/C*%
X124968000Y-123825000D03*
%TD*%
%TO.P,P6,1*%
%TO.N,N/C*%
X177038000Y-118745000D03*
%TD*%
%TO.P,P7,1*%
%TO.N,N/C*%
X126238000Y-75565000D03*
%TD*%
%TO.P,P8,1*%
%TO.N,N/C*%
X177038000Y-90805000D03*
%TD*%
D23*
%TO.N,/A4(SDA)*%
X128778000Y-80645000D03*
X131318000Y-80645000D03*
%TO.N,/9(\u002A\u002A)*%
X150368000Y-80645000D03*
X160528000Y-80645000D03*
%TO.N,/8*%
X152908000Y-81915000D03*
X160528000Y-81915000D03*
D24*
%TO.N,VS*%
X126238000Y-98425000D03*
%TD*%
D25*
%TO.N,/A4(SDA)*%
X123698000Y-80645000D02*
X128778000Y-80645000D01*
X132334000Y-75565000D02*
X132334000Y-79629000D01*
X132334000Y-79629000D02*
X131318000Y-80645000D01*
%TO.N,/A5(SCL)*%
X129794000Y-75565000D02*
X129794000Y-82169000D01*
X129794000Y-82169000D02*
X128778000Y-83185000D01*
X128778000Y-83185000D02*
X126238000Y-83185000D01*
X126238000Y-83185000D02*
X123698000Y-83185000D01*
%TO.N,/9(\u002A\u002A)*%
X150368000Y-75819000D02*
X150114000Y-75565000D01*
X150368000Y-80645000D02*
X150368000Y-75819000D01*
X144018000Y-83185000D02*
X145288000Y-81915000D01*
X149098000Y-81915000D02*
X150368000Y-80645000D01*
X145288000Y-81915000D02*
X149098000Y-81915000D01*
X160528000Y-80645000D02*
X163068000Y-80645000D01*
X164338000Y-81915000D02*
X164338000Y-83185000D01*
X163068000Y-80645000D02*
X164338000Y-81915000D01*
X164338000Y-83185000D02*
X171958000Y-83185000D01*
%TO.N,/8*%
X152654000Y-75565000D02*
X152654000Y-75819000D01*
X144018000Y-85725000D02*
X146558000Y-83185000D01*
X146558000Y-83185000D02*
X151638000Y-83185000D01*
X151638000Y-83185000D02*
X152908000Y-81915000D01*
X152908000Y-75819000D02*
X152654000Y-75565000D01*
X152908000Y-81915000D02*
X152908000Y-75819000D01*
X160528000Y-81915000D02*
X161798000Y-83185000D01*
X161798000Y-83185000D02*
X161798000Y-92075000D01*
X161798000Y-92075000D02*
X163068000Y-93345000D01*
X163068000Y-93345000D02*
X164338000Y-93345000D01*
X164338000Y-93345000D02*
X171958000Y-93345000D01*
%TO.N,/7*%
X146558000Y-85725000D02*
X147828000Y-84455000D01*
X147828000Y-84455000D02*
X155448000Y-84455000D01*
X155448000Y-84455000D02*
X156718000Y-83185000D01*
X156718000Y-83185000D02*
X156718000Y-75565000D01*
%TO.N,/6(\u002A\u002A)*%
X149098000Y-85725000D02*
X157988000Y-85725000D01*
X157988000Y-85725000D02*
X159258000Y-84455000D01*
X159258000Y-84455000D02*
X159258000Y-75565000D01*
%TO.N,/10(\u002A\u002A/SS)*%
X147828000Y-75819000D02*
X147574000Y-75565000D01*
X145288000Y-97155000D02*
X145288000Y-89535000D01*
X147828000Y-79375000D02*
X147828000Y-75819000D01*
X144018000Y-98425000D02*
X145288000Y-97155000D01*
X136398000Y-98425000D02*
X144018000Y-98425000D01*
X131318000Y-100965000D02*
X133858000Y-100965000D01*
X133858000Y-100965000D02*
X136398000Y-98425000D01*
X145288000Y-89535000D02*
X144018000Y-88265000D01*
X144018000Y-88265000D02*
X141478000Y-88265000D01*
X146558000Y-80645000D02*
X147828000Y-79375000D01*
X141478000Y-88265000D02*
X140208000Y-86995000D01*
X140208000Y-86995000D02*
X140208000Y-81915000D01*
X141478000Y-80645000D02*
X146558000Y-80645000D01*
X140208000Y-81915000D02*
X141478000Y-80645000D01*
%TO.N,+3V3*%
X146558000Y-123825000D02*
X146558000Y-116205000D01*
%TO.N,/11(\u002A\u002A/MOSI)*%
X145288000Y-75819000D02*
X145034000Y-75565000D01*
X145288000Y-78105000D02*
X145288000Y-75819000D01*
X144018000Y-79375000D02*
X145288000Y-78105000D01*
X137668000Y-88265000D02*
X138938000Y-86995000D01*
X131318000Y-88265000D02*
X137668000Y-88265000D01*
X138938000Y-81915000D02*
X141478000Y-79375000D01*
X138938000Y-86995000D02*
X138938000Y-81915000D01*
X141478000Y-79375000D02*
X144018000Y-79375000D01*
%TO.N,Net-(C1-Pad2)*%
X141398000Y-103505000D02*
X141398000Y-107235000D01*
X141398000Y-107235000D02*
X142748000Y-108585000D01*
X142748000Y-108585000D02*
X144018000Y-108585000D01*
X131318000Y-106045000D02*
X140208000Y-106045000D01*
X140208000Y-106045000D02*
X141478000Y-107315000D01*
%TO.N,Net-(C2-Pad2)*%
X141398000Y-90805000D02*
X141398000Y-94535000D01*
X141398000Y-94535000D02*
X142748000Y-95885000D01*
X142748000Y-95885000D02*
X144018000Y-95885000D01*
X131318000Y-93345000D02*
X139757990Y-93345000D01*
X139757990Y-93345000D02*
X140208000Y-93345000D01*
X140208000Y-93345000D02*
X141478000Y-94615000D01*
D26*
%TO.N,VS*%
X133858000Y-98425000D02*
X126238000Y-98425000D01*
D25*
%TO.N,Net-(D1-Pad2)*%
X146558000Y-93345000D02*
X147828000Y-94615000D01*
X155448000Y-94615000D02*
X156718000Y-93345000D01*
X147828000Y-94615000D02*
X155448000Y-94615000D01*
%TO.N,Net-(D2-Pad2)*%
X149098000Y-93345000D02*
X149098000Y-89535000D01*
X150368000Y-88265000D02*
X156718000Y-88265000D01*
X149098000Y-89535000D02*
X150368000Y-88265000D01*
%TO.N,Net-(D3-Pad2)*%
X128778000Y-106045000D02*
X132588000Y-109855000D01*
X132588000Y-109855000D02*
X132588000Y-114935000D01*
X132588000Y-114935000D02*
X133858000Y-116205000D01*
%TD*%
D27*
%TO.N,GND*%
G36*
X124166406Y-73864887D02*
G01*
X123874536Y-74301702D01*
X123673492Y-74787065D01*
X123571000Y-75302323D01*
X123571000Y-75827677D01*
X123673492Y-76342935D01*
X123874536Y-76828298D01*
X124166406Y-77265113D01*
X124537887Y-77636594D01*
X124974702Y-77928464D01*
X125460065Y-78129508D01*
X125975323Y-78232000D01*
X126500677Y-78232000D01*
X127015935Y-78129508D01*
X127501298Y-77928464D01*
X127938113Y-77636594D01*
X128309594Y-77265113D01*
X128601464Y-76828298D01*
X128657001Y-76694219D01*
X128729203Y-76782197D01*
X128957395Y-76969469D01*
X129034000Y-77010415D01*
X129034001Y-79742604D01*
X128870089Y-79710000D01*
X128685911Y-79710000D01*
X128505271Y-79745932D01*
X128335111Y-79816414D01*
X128232465Y-79885000D01*
X127516178Y-79885000D01*
X127391475Y-79698368D01*
X127184632Y-79491525D01*
X126941411Y-79329010D01*
X126671158Y-79217068D01*
X126384260Y-79160000D01*
X126091740Y-79160000D01*
X125804842Y-79217068D01*
X125534589Y-79329010D01*
X125291368Y-79491525D01*
X125084525Y-79698368D01*
X124968000Y-79872760D01*
X124851475Y-79698368D01*
X124644632Y-79491525D01*
X124401411Y-79329010D01*
X124131158Y-79217068D01*
X123844260Y-79160000D01*
X123551740Y-79160000D01*
X123264842Y-79217068D01*
X122994589Y-79329010D01*
X122751368Y-79491525D01*
X122544525Y-79698368D01*
X122382010Y-79941589D01*
X122270068Y-80211842D01*
X122213000Y-80498740D01*
X122213000Y-80791260D01*
X122270068Y-81078158D01*
X122382010Y-81348411D01*
X122544525Y-81591632D01*
X122751368Y-81798475D01*
X122925760Y-81915000D01*
X122751368Y-82031525D01*
X122544525Y-82238368D01*
X122382010Y-82481589D01*
X122270068Y-82751842D01*
X122213000Y-83038740D01*
X122213000Y-83331260D01*
X122270068Y-83618158D01*
X122382010Y-83888411D01*
X122544525Y-84131632D01*
X122751368Y-84338475D01*
X122933534Y-84460195D01*
X122816645Y-84529822D01*
X122600412Y-84724731D01*
X122426359Y-84958080D01*
X122301175Y-85220901D01*
X122256524Y-85368110D01*
X122377845Y-85598000D01*
X123571000Y-85598000D01*
X123571000Y-85578000D01*
X123825000Y-85578000D01*
X123825000Y-85598000D01*
X126111000Y-85598000D01*
X126111000Y-85578000D01*
X126365000Y-85578000D01*
X126365000Y-85598000D01*
X127564250Y-85598000D01*
X127723000Y-85439250D01*
X127726072Y-84875000D01*
X127713812Y-84750518D01*
X127677502Y-84630820D01*
X127618537Y-84520506D01*
X127539185Y-84423815D01*
X127442494Y-84344463D01*
X127332180Y-84285498D01*
X127259620Y-84263487D01*
X127391475Y-84131632D01*
X127516178Y-83945000D01*
X128740678Y-83945000D01*
X128778000Y-83948676D01*
X128815322Y-83945000D01*
X128815333Y-83945000D01*
X128926986Y-83934003D01*
X129070247Y-83890546D01*
X129202276Y-83819974D01*
X129318001Y-83725001D01*
X129341804Y-83695998D01*
X129519473Y-83518329D01*
X135105284Y-83518329D01*
X135137953Y-83626044D01*
X135248208Y-83863392D01*
X135402649Y-84074670D01*
X135595340Y-84251759D01*
X135818877Y-84387853D01*
X136002525Y-84455000D01*
X135818877Y-84522147D01*
X135595340Y-84658241D01*
X135402649Y-84835330D01*
X135248208Y-85046608D01*
X135137953Y-85283956D01*
X135105284Y-85391671D01*
X135228626Y-85598000D01*
X136271000Y-85598000D01*
X136271000Y-84554799D01*
X136102935Y-84455000D01*
X136271000Y-84355201D01*
X136271000Y-83312000D01*
X136525000Y-83312000D01*
X136525000Y-84355201D01*
X136693065Y-84455000D01*
X136525000Y-84554799D01*
X136525000Y-85598000D01*
X137567374Y-85598000D01*
X137690716Y-85391671D01*
X137658047Y-85283956D01*
X137547792Y-85046608D01*
X137393351Y-84835330D01*
X137200660Y-84658241D01*
X136977123Y-84522147D01*
X136793475Y-84455000D01*
X136977123Y-84387853D01*
X137200660Y-84251759D01*
X137393351Y-84074670D01*
X137547792Y-83863392D01*
X137658047Y-83626044D01*
X137690716Y-83518329D01*
X137567374Y-83312000D01*
X136525000Y-83312000D01*
X136271000Y-83312000D01*
X135228626Y-83312000D01*
X135105284Y-83518329D01*
X129519473Y-83518329D01*
X130186131Y-82851671D01*
X135105284Y-82851671D01*
X135228626Y-83058000D01*
X136271000Y-83058000D01*
X136271000Y-82014799D01*
X136525000Y-82014799D01*
X136525000Y-83058000D01*
X137567374Y-83058000D01*
X137690716Y-82851671D01*
X137658047Y-82743956D01*
X137547792Y-82506608D01*
X137393351Y-82295330D01*
X137200660Y-82118241D01*
X136977123Y-81982147D01*
X136731330Y-81892278D01*
X136525000Y-82014799D01*
X136271000Y-82014799D01*
X136064670Y-81892278D01*
X135818877Y-81982147D01*
X135595340Y-82118241D01*
X135402649Y-82295330D01*
X135248208Y-82506608D01*
X135137953Y-82743956D01*
X135105284Y-82851671D01*
X130186131Y-82851671D01*
X130305003Y-82732799D01*
X130334001Y-82709001D01*
X130370931Y-82664002D01*
X130428974Y-82593277D01*
X130499546Y-82461247D01*
X130511656Y-82421324D01*
X130543003Y-82317986D01*
X130554000Y-82206333D01*
X130554000Y-82206323D01*
X130557676Y-82169000D01*
X130554000Y-82131678D01*
X130554000Y-81184549D01*
X130591738Y-81241028D01*
X130721972Y-81371262D01*
X130875111Y-81473586D01*
X131045271Y-81544068D01*
X131225911Y-81580000D01*
X131410089Y-81580000D01*
X131590729Y-81544068D01*
X131760889Y-81473586D01*
X131914028Y-81371262D01*
X132044262Y-81241028D01*
X132146586Y-81087889D01*
X132217068Y-80917729D01*
X132241153Y-80796649D01*
X132845003Y-80192799D01*
X132874001Y-80169001D01*
X132946057Y-80081201D01*
X132968974Y-80053277D01*
X133039546Y-79921247D01*
X133047205Y-79895997D01*
X133083003Y-79777986D01*
X133094000Y-79666333D01*
X133094000Y-79666323D01*
X133097676Y-79629000D01*
X133094000Y-79591678D01*
X133094000Y-77010416D01*
X133170606Y-76969469D01*
X133398797Y-76782197D01*
X133586069Y-76554006D01*
X133604000Y-76520459D01*
X133621931Y-76554006D01*
X133809203Y-76782197D01*
X134037395Y-76969469D01*
X134297737Y-77108625D01*
X134580224Y-77194316D01*
X134874000Y-77223251D01*
X135167777Y-77194316D01*
X135450264Y-77108625D01*
X135710606Y-76969469D01*
X135938797Y-76782197D01*
X136126069Y-76554006D01*
X136147424Y-76514053D01*
X136295514Y-76716729D01*
X136511965Y-76915733D01*
X136763081Y-77068686D01*
X137039211Y-77169709D01*
X137054974Y-77172358D01*
X137287000Y-77051217D01*
X137287000Y-75692000D01*
X137267000Y-75692000D01*
X137267000Y-75438000D01*
X137287000Y-75438000D01*
X137287000Y-74078783D01*
X137054974Y-73957642D01*
X137039211Y-73960291D01*
X136763081Y-74061314D01*
X136511965Y-74214267D01*
X136295514Y-74413271D01*
X136147424Y-74615947D01*
X136126069Y-74575994D01*
X135938797Y-74347803D01*
X135710605Y-74160531D01*
X135450263Y-74021375D01*
X135167776Y-73935684D01*
X134874000Y-73906749D01*
X134580223Y-73935684D01*
X134297736Y-74021375D01*
X134037394Y-74160531D01*
X133809203Y-74347803D01*
X133621931Y-74575995D01*
X133604000Y-74609541D01*
X133586069Y-74575994D01*
X133398797Y-74347803D01*
X133170605Y-74160531D01*
X132910263Y-74021375D01*
X132627776Y-73935684D01*
X132334000Y-73906749D01*
X132040223Y-73935684D01*
X131757736Y-74021375D01*
X131497394Y-74160531D01*
X131269203Y-74347803D01*
X131081931Y-74575995D01*
X131064000Y-74609541D01*
X131046069Y-74575994D01*
X130858797Y-74347803D01*
X130630605Y-74160531D01*
X130370263Y-74021375D01*
X130087776Y-73935684D01*
X129794000Y-73906749D01*
X129500223Y-73935684D01*
X129217736Y-74021375D01*
X128957394Y-74160531D01*
X128729203Y-74347803D01*
X128657001Y-74435781D01*
X128601464Y-74301702D01*
X128309594Y-73864887D01*
X128179707Y-73735000D01*
X175219909Y-73735000D01*
X176328001Y-74843093D01*
X176328000Y-85944125D01*
X176324565Y-85979000D01*
X176328000Y-86013875D01*
X176328000Y-86013876D01*
X176338273Y-86118183D01*
X176378872Y-86252019D01*
X176444800Y-86375362D01*
X176533525Y-86483474D01*
X176560617Y-86505708D01*
X178868001Y-88813093D01*
X178868001Y-88863294D01*
X178738113Y-88733406D01*
X178301298Y-88441536D01*
X177815935Y-88240492D01*
X177300677Y-88138000D01*
X176775323Y-88138000D01*
X176260065Y-88240492D01*
X175774702Y-88441536D01*
X175337887Y-88733406D01*
X174966406Y-89104887D01*
X174674536Y-89541702D01*
X174473492Y-90027065D01*
X174371000Y-90542323D01*
X174371000Y-91067677D01*
X174473492Y-91582935D01*
X174674536Y-92068298D01*
X174966406Y-92505113D01*
X175337887Y-92876594D01*
X175774702Y-93168464D01*
X176260065Y-93369508D01*
X176775323Y-93472000D01*
X177300677Y-93472000D01*
X177815935Y-93369508D01*
X178301298Y-93168464D01*
X178738113Y-92876594D01*
X178868001Y-92746706D01*
X178868000Y-116803293D01*
X178738113Y-116673406D01*
X178301298Y-116381536D01*
X177815935Y-116180492D01*
X177300677Y-116078000D01*
X176775323Y-116078000D01*
X176260065Y-116180492D01*
X175774702Y-116381536D01*
X175337887Y-116673406D01*
X174966406Y-117044887D01*
X174674536Y-117481702D01*
X174473492Y-117967065D01*
X174371000Y-118482323D01*
X174371000Y-119007677D01*
X174473492Y-119522935D01*
X174674536Y-120008298D01*
X174966406Y-120445113D01*
X175337887Y-120816594D01*
X175774702Y-121108464D01*
X176260065Y-121309508D01*
X176775323Y-121412000D01*
X177300677Y-121412000D01*
X177815935Y-121309508D01*
X178301298Y-121108464D01*
X178738113Y-120816594D01*
X178868000Y-120686707D01*
X178868000Y-120990908D01*
X176560617Y-123298292D01*
X176533526Y-123320525D01*
X176511293Y-123347616D01*
X176444801Y-123428637D01*
X176378872Y-123551981D01*
X176338274Y-123685816D01*
X176324565Y-123825000D01*
X176328001Y-123859885D01*
X176328000Y-125655000D01*
X126909707Y-125655000D01*
X127039594Y-125525113D01*
X127331464Y-125088298D01*
X127532508Y-124602935D01*
X127635000Y-124087677D01*
X127635000Y-123598982D01*
X137439400Y-123598982D01*
X137439400Y-124051019D01*
X137461084Y-124271177D01*
X137546775Y-124553664D01*
X137685931Y-124814006D01*
X137873203Y-125042197D01*
X138101395Y-125229469D01*
X138361737Y-125368625D01*
X138644224Y-125454316D01*
X138938000Y-125483251D01*
X139231777Y-125454316D01*
X139514264Y-125368625D01*
X139774606Y-125229469D01*
X140002797Y-125042197D01*
X140190069Y-124814006D01*
X140208000Y-124780459D01*
X140225931Y-124814006D01*
X140413203Y-125042197D01*
X140641395Y-125229469D01*
X140901737Y-125368625D01*
X141184224Y-125454316D01*
X141478000Y-125483251D01*
X141771777Y-125454316D01*
X142054264Y-125368625D01*
X142314606Y-125229469D01*
X142542797Y-125042197D01*
X142730069Y-124814006D01*
X142748000Y-124780459D01*
X142765931Y-124814006D01*
X142953203Y-125042197D01*
X143181395Y-125229469D01*
X143441737Y-125368625D01*
X143724224Y-125454316D01*
X144018000Y-125483251D01*
X144311777Y-125454316D01*
X144594264Y-125368625D01*
X144854606Y-125229469D01*
X145082797Y-125042197D01*
X145270069Y-124814006D01*
X145288000Y-124780459D01*
X145305931Y-124814006D01*
X145493203Y-125042197D01*
X145721395Y-125229469D01*
X145981737Y-125368625D01*
X146264224Y-125454316D01*
X146558000Y-125483251D01*
X146851777Y-125454316D01*
X147134264Y-125368625D01*
X147394606Y-125229469D01*
X147622797Y-125042197D01*
X147810069Y-124814006D01*
X147828000Y-124780459D01*
X147845931Y-124814006D01*
X148033203Y-125042197D01*
X148261395Y-125229469D01*
X148521737Y-125368625D01*
X148804224Y-125454316D01*
X149098000Y-125483251D01*
X149391777Y-125454316D01*
X149674264Y-125368625D01*
X149934606Y-125229469D01*
X150162797Y-125042197D01*
X150350069Y-124814006D01*
X150371424Y-124774053D01*
X150519514Y-124976729D01*
X150735965Y-125175733D01*
X150987081Y-125328686D01*
X151263211Y-125429709D01*
X151278974Y-125432358D01*
X151511000Y-125311217D01*
X151511000Y-123952000D01*
X151765000Y-123952000D01*
X151765000Y-125311217D01*
X151997026Y-125432358D01*
X152012789Y-125429709D01*
X152288919Y-125328686D01*
X152540035Y-125175733D01*
X152756486Y-124976729D01*
X152908000Y-124769367D01*
X153059514Y-124976729D01*
X153275965Y-125175733D01*
X153527081Y-125328686D01*
X153803211Y-125429709D01*
X153818974Y-125432358D01*
X154051000Y-125311217D01*
X154051000Y-123952000D01*
X151765000Y-123952000D01*
X151511000Y-123952000D01*
X151491000Y-123952000D01*
X151491000Y-123698000D01*
X151511000Y-123698000D01*
X151511000Y-122338783D01*
X151765000Y-122338783D01*
X151765000Y-123698000D01*
X154051000Y-123698000D01*
X154051000Y-122338783D01*
X154305000Y-122338783D01*
X154305000Y-123698000D01*
X154325000Y-123698000D01*
X154325000Y-123952000D01*
X154305000Y-123952000D01*
X154305000Y-125311217D01*
X154537026Y-125432358D01*
X154552789Y-125429709D01*
X154828919Y-125328686D01*
X155080035Y-125175733D01*
X155296486Y-124976729D01*
X155444576Y-124774053D01*
X155465931Y-124814006D01*
X155653203Y-125042197D01*
X155881395Y-125229469D01*
X156141737Y-125368625D01*
X156424224Y-125454316D01*
X156718000Y-125483251D01*
X157011777Y-125454316D01*
X157294264Y-125368625D01*
X157554606Y-125229469D01*
X157782797Y-125042197D01*
X157970069Y-124814006D01*
X158109225Y-124553663D01*
X158194916Y-124271176D01*
X158216600Y-124051018D01*
X158216600Y-123598982D01*
X160299400Y-123598982D01*
X160299400Y-124051019D01*
X160321084Y-124271177D01*
X160406775Y-124553664D01*
X160545931Y-124814006D01*
X160733203Y-125042197D01*
X160961395Y-125229469D01*
X161221737Y-125368625D01*
X161504224Y-125454316D01*
X161798000Y-125483251D01*
X162091777Y-125454316D01*
X162374264Y-125368625D01*
X162634606Y-125229469D01*
X162862797Y-125042197D01*
X163050069Y-124814006D01*
X163068000Y-124780459D01*
X163085931Y-124814006D01*
X163273203Y-125042197D01*
X163501395Y-125229469D01*
X163761737Y-125368625D01*
X164044224Y-125454316D01*
X164338000Y-125483251D01*
X164631777Y-125454316D01*
X164914264Y-125368625D01*
X165174606Y-125229469D01*
X165402797Y-125042197D01*
X165590069Y-124814006D01*
X165608000Y-124780459D01*
X165625931Y-124814006D01*
X165813203Y-125042197D01*
X166041395Y-125229469D01*
X166301737Y-125368625D01*
X166584224Y-125454316D01*
X166878000Y-125483251D01*
X167171777Y-125454316D01*
X167454264Y-125368625D01*
X167714606Y-125229469D01*
X167942797Y-125042197D01*
X168130069Y-124814006D01*
X168148000Y-124780459D01*
X168165931Y-124814006D01*
X168353203Y-125042197D01*
X168581395Y-125229469D01*
X168841737Y-125368625D01*
X169124224Y-125454316D01*
X169418000Y-125483251D01*
X169711777Y-125454316D01*
X169994264Y-125368625D01*
X170254606Y-125229469D01*
X170482797Y-125042197D01*
X170670069Y-124814006D01*
X170688000Y-124780459D01*
X170705931Y-124814006D01*
X170893203Y-125042197D01*
X171121395Y-125229469D01*
X171381737Y-125368625D01*
X171664224Y-125454316D01*
X171958000Y-125483251D01*
X172251777Y-125454316D01*
X172534264Y-125368625D01*
X172794606Y-125229469D01*
X173022797Y-125042197D01*
X173210069Y-124814006D01*
X173228000Y-124780459D01*
X173245931Y-124814006D01*
X173433203Y-125042197D01*
X173661395Y-125229469D01*
X173921737Y-125368625D01*
X174204224Y-125454316D01*
X174498000Y-125483251D01*
X174791777Y-125454316D01*
X175074264Y-125368625D01*
X175334606Y-125229469D01*
X175562797Y-125042197D01*
X175750069Y-124814006D01*
X175889225Y-124553663D01*
X175974916Y-124271176D01*
X175996600Y-124051018D01*
X175996600Y-123598981D01*
X175974916Y-123378823D01*
X175889225Y-123096336D01*
X175750069Y-122835994D01*
X175562797Y-122607803D01*
X175334605Y-122420531D01*
X175074263Y-122281375D01*
X174791776Y-122195684D01*
X174498000Y-122166749D01*
X174204223Y-122195684D01*
X173921736Y-122281375D01*
X173661394Y-122420531D01*
X173433203Y-122607803D01*
X173245931Y-122835995D01*
X173228000Y-122869541D01*
X173210069Y-122835994D01*
X173022797Y-122607803D01*
X172794605Y-122420531D01*
X172534263Y-122281375D01*
X172251776Y-122195684D01*
X171958000Y-122166749D01*
X171664223Y-122195684D01*
X171381736Y-122281375D01*
X171121394Y-122420531D01*
X170893203Y-122607803D01*
X170705931Y-122835995D01*
X170688000Y-122869541D01*
X170670069Y-122835994D01*
X170482797Y-122607803D01*
X170254605Y-122420531D01*
X169994263Y-122281375D01*
X169711776Y-122195684D01*
X169418000Y-122166749D01*
X169124223Y-122195684D01*
X168841736Y-122281375D01*
X168581394Y-122420531D01*
X168353203Y-122607803D01*
X168165931Y-122835995D01*
X168148000Y-122869541D01*
X168130069Y-122835994D01*
X167942797Y-122607803D01*
X167714605Y-122420531D01*
X167454263Y-122281375D01*
X167171776Y-122195684D01*
X166878000Y-122166749D01*
X166584223Y-122195684D01*
X166301736Y-122281375D01*
X166041394Y-122420531D01*
X165813203Y-122607803D01*
X165625931Y-122835995D01*
X165608000Y-122869541D01*
X165590069Y-122835994D01*
X165402797Y-122607803D01*
X165174605Y-122420531D01*
X164914263Y-122281375D01*
X164631776Y-122195684D01*
X164338000Y-122166749D01*
X164044223Y-122195684D01*
X163761736Y-122281375D01*
X163501394Y-122420531D01*
X163273203Y-122607803D01*
X163085931Y-122835995D01*
X163068000Y-122869541D01*
X163050069Y-122835994D01*
X162862797Y-122607803D01*
X162634605Y-122420531D01*
X162374263Y-122281375D01*
X162091776Y-122195684D01*
X161798000Y-122166749D01*
X161504223Y-122195684D01*
X161221736Y-122281375D01*
X160961394Y-122420531D01*
X160733203Y-122607803D01*
X160545931Y-122835995D01*
X160406775Y-123096337D01*
X160321084Y-123378824D01*
X160299400Y-123598982D01*
X158216600Y-123598982D01*
X158216600Y-123598981D01*
X158194916Y-123378823D01*
X158109225Y-123096336D01*
X157970069Y-122835994D01*
X157782797Y-122607803D01*
X157554605Y-122420531D01*
X157294263Y-122281375D01*
X157011776Y-122195684D01*
X156718000Y-122166749D01*
X156424223Y-122195684D01*
X156141736Y-122281375D01*
X155881394Y-122420531D01*
X155653203Y-122607803D01*
X155465931Y-122835995D01*
X155444576Y-122875947D01*
X155296486Y-122673271D01*
X155080035Y-122474267D01*
X154828919Y-122321314D01*
X154552789Y-122220291D01*
X154537026Y-122217642D01*
X154305000Y-122338783D01*
X154051000Y-122338783D01*
X153818974Y-122217642D01*
X153803211Y-122220291D01*
X153527081Y-122321314D01*
X153275965Y-122474267D01*
X153059514Y-122673271D01*
X152908000Y-122880633D01*
X152756486Y-122673271D01*
X152540035Y-122474267D01*
X152288919Y-122321314D01*
X152012789Y-122220291D01*
X151997026Y-122217642D01*
X151765000Y-122338783D01*
X151511000Y-122338783D01*
X151278974Y-122217642D01*
X151263211Y-122220291D01*
X150987081Y-122321314D01*
X150735965Y-122474267D01*
X150519514Y-122673271D01*
X150371424Y-122875947D01*
X150350069Y-122835994D01*
X150162797Y-122607803D01*
X149934605Y-122420531D01*
X149674263Y-122281375D01*
X149391776Y-122195684D01*
X149098000Y-122166749D01*
X148804223Y-122195684D01*
X148521736Y-122281375D01*
X148261394Y-122420531D01*
X148033203Y-122607803D01*
X147845931Y-122835995D01*
X147828000Y-122869541D01*
X147810069Y-122835994D01*
X147622797Y-122607803D01*
X147394605Y-122420531D01*
X147318000Y-122379585D01*
X147318000Y-119842775D01*
X147409013Y-119781962D01*
X147594962Y-119596013D01*
X147741061Y-119377359D01*
X147773880Y-119298126D01*
X147826320Y-119424727D01*
X147983363Y-119659759D01*
X148183241Y-119859637D01*
X148418273Y-120016680D01*
X148679426Y-120124853D01*
X148956665Y-120180000D01*
X149239335Y-120180000D01*
X149516574Y-120124853D01*
X149777727Y-120016680D01*
X150012759Y-119859637D01*
X150212637Y-119659759D01*
X150368000Y-119427241D01*
X150523363Y-119659759D01*
X150723241Y-119859637D01*
X150958273Y-120016680D01*
X151219426Y-120124853D01*
X151496665Y-120180000D01*
X151779335Y-120180000D01*
X152056574Y-120124853D01*
X152317727Y-120016680D01*
X152552759Y-119859637D01*
X152752637Y-119659759D01*
X152908000Y-119427241D01*
X153063363Y-119659759D01*
X153263241Y-119859637D01*
X153498273Y-120016680D01*
X153759426Y-120124853D01*
X154036665Y-120180000D01*
X154319335Y-120180000D01*
X154596574Y-120124853D01*
X154857727Y-120016680D01*
X155092759Y-119859637D01*
X155292637Y-119659759D01*
X155448000Y-119427241D01*
X155603363Y-119659759D01*
X155803241Y-119859637D01*
X156038273Y-120016680D01*
X156299426Y-120124853D01*
X156576665Y-120180000D01*
X156859335Y-120180000D01*
X157136574Y-120124853D01*
X157397727Y-120016680D01*
X157632759Y-119859637D01*
X157832637Y-119659759D01*
X157988000Y-119427241D01*
X158143363Y-119659759D01*
X158343241Y-119859637D01*
X158578273Y-120016680D01*
X158839426Y-120124853D01*
X159116665Y-120180000D01*
X159399335Y-120180000D01*
X159676574Y-120124853D01*
X159937727Y-120016680D01*
X160172759Y-119859637D01*
X160372637Y-119659759D01*
X160528000Y-119427241D01*
X160683363Y-119659759D01*
X160883241Y-119859637D01*
X161118273Y-120016680D01*
X161379426Y-120124853D01*
X161656665Y-120180000D01*
X161939335Y-120180000D01*
X162216574Y-120124853D01*
X162477727Y-120016680D01*
X162712759Y-119859637D01*
X162912637Y-119659759D01*
X163068000Y-119427241D01*
X163223363Y-119659759D01*
X163423241Y-119859637D01*
X163658273Y-120016680D01*
X163919426Y-120124853D01*
X164196665Y-120180000D01*
X164479335Y-120180000D01*
X164756574Y-120124853D01*
X165017727Y-120016680D01*
X165252759Y-119859637D01*
X165452637Y-119659759D01*
X165608000Y-119427241D01*
X165763363Y-119659759D01*
X165963241Y-119859637D01*
X166198273Y-120016680D01*
X166459426Y-120124853D01*
X166736665Y-120180000D01*
X167019335Y-120180000D01*
X167296574Y-120124853D01*
X167557727Y-120016680D01*
X167792759Y-119859637D01*
X167992637Y-119659759D01*
X168148000Y-119427241D01*
X168303363Y-119659759D01*
X168503241Y-119859637D01*
X168738273Y-120016680D01*
X168999426Y-120124853D01*
X169276665Y-120180000D01*
X169559335Y-120180000D01*
X169836574Y-120124853D01*
X170097727Y-120016680D01*
X170332759Y-119859637D01*
X170532637Y-119659759D01*
X170688000Y-119427241D01*
X170843363Y-119659759D01*
X171043241Y-119859637D01*
X171278273Y-120016680D01*
X171539426Y-120124853D01*
X171816665Y-120180000D01*
X172099335Y-120180000D01*
X172376574Y-120124853D01*
X172637727Y-120016680D01*
X172872759Y-119859637D01*
X173072637Y-119659759D01*
X173229680Y-119424727D01*
X173337853Y-119163574D01*
X173393000Y-118886335D01*
X173393000Y-118603665D01*
X173337853Y-118326426D01*
X173229680Y-118065273D01*
X173072637Y-117830241D01*
X172872759Y-117630363D01*
X172640241Y-117475000D01*
X172872759Y-117319637D01*
X173072637Y-117119759D01*
X173229680Y-116884727D01*
X173337853Y-116623574D01*
X173393000Y-116346335D01*
X173393000Y-116063665D01*
X173337853Y-115786426D01*
X173229680Y-115525273D01*
X173072637Y-115290241D01*
X172872759Y-115090363D01*
X172640241Y-114935000D01*
X172872759Y-114779637D01*
X173072637Y-114579759D01*
X173228000Y-114347241D01*
X173383363Y-114579759D01*
X173583241Y-114779637D01*
X173818273Y-114936680D01*
X174079426Y-115044853D01*
X174356665Y-115100000D01*
X174639335Y-115100000D01*
X174916574Y-115044853D01*
X175177727Y-114936680D01*
X175412759Y-114779637D01*
X175612637Y-114579759D01*
X175768000Y-114347241D01*
X175923363Y-114579759D01*
X176123241Y-114779637D01*
X176358273Y-114936680D01*
X176619426Y-115044853D01*
X176896665Y-115100000D01*
X177179335Y-115100000D01*
X177456574Y-115044853D01*
X177717727Y-114936680D01*
X177952759Y-114779637D01*
X178152637Y-114579759D01*
X178309680Y-114344727D01*
X178417853Y-114083574D01*
X178473000Y-113806335D01*
X178473000Y-113523665D01*
X178417853Y-113246426D01*
X178309680Y-112985273D01*
X178152637Y-112750241D01*
X177952759Y-112550363D01*
X177720241Y-112395000D01*
X177952759Y-112239637D01*
X178152637Y-112039759D01*
X178309680Y-111804727D01*
X178417853Y-111543574D01*
X178473000Y-111266335D01*
X178473000Y-110983665D01*
X178417853Y-110706426D01*
X178309680Y-110445273D01*
X178152637Y-110210241D01*
X177952759Y-110010363D01*
X177720241Y-109855000D01*
X177952759Y-109699637D01*
X178152637Y-109499759D01*
X178309680Y-109264727D01*
X178417853Y-109003574D01*
X178473000Y-108726335D01*
X178473000Y-108443665D01*
X178417853Y-108166426D01*
X178309680Y-107905273D01*
X178152637Y-107670241D01*
X177952759Y-107470363D01*
X177720241Y-107315000D01*
X177952759Y-107159637D01*
X178152637Y-106959759D01*
X178309680Y-106724727D01*
X178417853Y-106463574D01*
X178473000Y-106186335D01*
X178473000Y-105903665D01*
X178417853Y-105626426D01*
X178309680Y-105365273D01*
X178152637Y-105130241D01*
X177952759Y-104930363D01*
X177720241Y-104775000D01*
X177952759Y-104619637D01*
X178152637Y-104419759D01*
X178309680Y-104184727D01*
X178417853Y-103923574D01*
X178473000Y-103646335D01*
X178473000Y-103363665D01*
X178417853Y-103086426D01*
X178309680Y-102825273D01*
X178152637Y-102590241D01*
X177952759Y-102390363D01*
X177717727Y-102233320D01*
X177456574Y-102125147D01*
X177179335Y-102070000D01*
X176896665Y-102070000D01*
X176619426Y-102125147D01*
X176358273Y-102233320D01*
X176123241Y-102390363D01*
X175923363Y-102590241D01*
X175768000Y-102822759D01*
X175612637Y-102590241D01*
X175412759Y-102390363D01*
X175177727Y-102233320D01*
X174916574Y-102125147D01*
X174639335Y-102070000D01*
X174356665Y-102070000D01*
X174079426Y-102125147D01*
X173818273Y-102233320D01*
X173583241Y-102390363D01*
X173383363Y-102590241D01*
X173228000Y-102822759D01*
X173072637Y-102590241D01*
X172872759Y-102390363D01*
X172637727Y-102233320D01*
X172376574Y-102125147D01*
X172099335Y-102070000D01*
X171816665Y-102070000D01*
X171539426Y-102125147D01*
X171278273Y-102233320D01*
X171043241Y-102390363D01*
X170843363Y-102590241D01*
X170688000Y-102822759D01*
X170532637Y-102590241D01*
X170332759Y-102390363D01*
X170097727Y-102233320D01*
X169836574Y-102125147D01*
X169559335Y-102070000D01*
X169276665Y-102070000D01*
X168999426Y-102125147D01*
X168738273Y-102233320D01*
X168503241Y-102390363D01*
X168303363Y-102590241D01*
X168148000Y-102822759D01*
X167992637Y-102590241D01*
X167792759Y-102390363D01*
X167557727Y-102233320D01*
X167296574Y-102125147D01*
X167019335Y-102070000D01*
X166736665Y-102070000D01*
X166459426Y-102125147D01*
X166198273Y-102233320D01*
X165963241Y-102390363D01*
X165763363Y-102590241D01*
X165608000Y-102822759D01*
X165452637Y-102590241D01*
X165252759Y-102390363D01*
X165017727Y-102233320D01*
X164756574Y-102125147D01*
X164479335Y-102070000D01*
X164196665Y-102070000D01*
X163919426Y-102125147D01*
X163658273Y-102233320D01*
X163423241Y-102390363D01*
X163223363Y-102590241D01*
X163068000Y-102822759D01*
X162912637Y-102590241D01*
X162712759Y-102390363D01*
X162480241Y-102235000D01*
X162712759Y-102079637D01*
X162912637Y-101879759D01*
X163069680Y-101644727D01*
X163177853Y-101383574D01*
X163233000Y-101106335D01*
X163233000Y-100823665D01*
X163177853Y-100546426D01*
X163069680Y-100285273D01*
X162912637Y-100050241D01*
X162712759Y-99850363D01*
X162477727Y-99693320D01*
X162216574Y-99585147D01*
X161939335Y-99530000D01*
X161656665Y-99530000D01*
X161379426Y-99585147D01*
X161118273Y-99693320D01*
X160883241Y-99850363D01*
X160683363Y-100050241D01*
X160528000Y-100282759D01*
X160372637Y-100050241D01*
X160172759Y-99850363D01*
X159937727Y-99693320D01*
X159676574Y-99585147D01*
X159399335Y-99530000D01*
X159116665Y-99530000D01*
X158839426Y-99585147D01*
X158578273Y-99693320D01*
X158343241Y-99850363D01*
X158143363Y-100050241D01*
X157988000Y-100282759D01*
X157832637Y-100050241D01*
X157632759Y-99850363D01*
X157397727Y-99693320D01*
X157136574Y-99585147D01*
X156859335Y-99530000D01*
X156576665Y-99530000D01*
X156299426Y-99585147D01*
X156038273Y-99693320D01*
X155803241Y-99850363D01*
X155603363Y-100050241D01*
X155448000Y-100282759D01*
X155292637Y-100050241D01*
X155092759Y-99850363D01*
X154857727Y-99693320D01*
X154596574Y-99585147D01*
X154319335Y-99530000D01*
X154036665Y-99530000D01*
X153759426Y-99585147D01*
X153498273Y-99693320D01*
X153263241Y-99850363D01*
X153063363Y-100050241D01*
X152908000Y-100282759D01*
X152752637Y-100050241D01*
X152552759Y-99850363D01*
X152317727Y-99693320D01*
X152056574Y-99585147D01*
X151779335Y-99530000D01*
X151496665Y-99530000D01*
X151219426Y-99585147D01*
X150958273Y-99693320D01*
X150723241Y-99850363D01*
X150523363Y-100050241D01*
X150368000Y-100282759D01*
X150212637Y-100050241D01*
X150012759Y-99850363D01*
X149777727Y-99693320D01*
X149516574Y-99585147D01*
X149239335Y-99530000D01*
X148956665Y-99530000D01*
X148679426Y-99585147D01*
X148418273Y-99693320D01*
X148183241Y-99850363D01*
X147983363Y-100050241D01*
X147826320Y-100285273D01*
X147718147Y-100546426D01*
X147663000Y-100823665D01*
X147663000Y-101106335D01*
X147718147Y-101383574D01*
X147826320Y-101644727D01*
X147983363Y-101879759D01*
X148183241Y-102079637D01*
X148415759Y-102235000D01*
X148183241Y-102390363D01*
X147983363Y-102590241D01*
X147826320Y-102825273D01*
X147718147Y-103086426D01*
X147663000Y-103363665D01*
X147663000Y-103646335D01*
X147718147Y-103923574D01*
X147826320Y-104184727D01*
X147983363Y-104419759D01*
X148183241Y-104619637D01*
X148415759Y-104775000D01*
X148183241Y-104930363D01*
X147983363Y-105130241D01*
X147826320Y-105365273D01*
X147775669Y-105487556D01*
X147766935Y-105463634D01*
X147713037Y-105362797D01*
X147479269Y-105303336D01*
X146737605Y-106045000D01*
X147479269Y-106786664D01*
X147713037Y-106727203D01*
X147773498Y-106597203D01*
X147826320Y-106724727D01*
X147983363Y-106959759D01*
X148183241Y-107159637D01*
X148415759Y-107315000D01*
X148183241Y-107470363D01*
X147983363Y-107670241D01*
X147826320Y-107905273D01*
X147775669Y-108027556D01*
X147766935Y-108003634D01*
X147713037Y-107902797D01*
X147479269Y-107843336D01*
X146737605Y-108585000D01*
X147479269Y-109326664D01*
X147713037Y-109267203D01*
X147773498Y-109137203D01*
X147826320Y-109264727D01*
X147983363Y-109499759D01*
X148183241Y-109699637D01*
X148415759Y-109855000D01*
X148183241Y-110010363D01*
X147983363Y-110210241D01*
X147826320Y-110445273D01*
X147773880Y-110571874D01*
X147741061Y-110492641D01*
X147594962Y-110273987D01*
X147409013Y-110088038D01*
X147190359Y-109941939D01*
X146976556Y-109853379D01*
X147139366Y-109793935D01*
X147240203Y-109740037D01*
X147299664Y-109506269D01*
X146558000Y-108764605D01*
X145816336Y-109506269D01*
X145875797Y-109740037D01*
X146114242Y-109850934D01*
X146133827Y-109855706D01*
X145925641Y-109941939D01*
X145706987Y-110088038D01*
X145521038Y-110273987D01*
X145374939Y-110492641D01*
X145274304Y-110735595D01*
X145223000Y-110993514D01*
X145223000Y-111256486D01*
X145274304Y-111514405D01*
X145374939Y-111757359D01*
X145521038Y-111976013D01*
X145706987Y-112161962D01*
X145925641Y-112308061D01*
X146135530Y-112395000D01*
X145925641Y-112481939D01*
X145706987Y-112628038D01*
X145521038Y-112813987D01*
X145374939Y-113032641D01*
X145274304Y-113275595D01*
X145223000Y-113533514D01*
X145223000Y-113796486D01*
X145274304Y-114054405D01*
X145374939Y-114297359D01*
X145521038Y-114516013D01*
X145706987Y-114701962D01*
X145925641Y-114848061D01*
X146135530Y-114935000D01*
X145925641Y-115021939D01*
X145706987Y-115168038D01*
X145521038Y-115353987D01*
X145374939Y-115572641D01*
X145274304Y-115815595D01*
X145223000Y-116073514D01*
X145223000Y-116336486D01*
X145274304Y-116594405D01*
X145374939Y-116837359D01*
X145521038Y-117056013D01*
X145706987Y-117241962D01*
X145798001Y-117302775D01*
X145798001Y-117647225D01*
X145706987Y-117708038D01*
X145521038Y-117893987D01*
X145374939Y-118112641D01*
X145274304Y-118355595D01*
X145223000Y-118613514D01*
X145223000Y-118876486D01*
X145274304Y-119134405D01*
X145374939Y-119377359D01*
X145521038Y-119596013D01*
X145706987Y-119781962D01*
X145798001Y-119842775D01*
X145798000Y-122379584D01*
X145721394Y-122420531D01*
X145493203Y-122607803D01*
X145305931Y-122835995D01*
X145288000Y-122869541D01*
X145270069Y-122835994D01*
X145082797Y-122607803D01*
X144854605Y-122420531D01*
X144594263Y-122281375D01*
X144311776Y-122195684D01*
X144018000Y-122166749D01*
X143724223Y-122195684D01*
X143441736Y-122281375D01*
X143181394Y-122420531D01*
X142953203Y-122607803D01*
X142765931Y-122835995D01*
X142748000Y-122869541D01*
X142730069Y-122835994D01*
X142542797Y-122607803D01*
X142314605Y-122420531D01*
X142054263Y-122281375D01*
X141771776Y-122195684D01*
X141478000Y-122166749D01*
X141184223Y-122195684D01*
X140901736Y-122281375D01*
X140641394Y-122420531D01*
X140413203Y-122607803D01*
X140225931Y-122835995D01*
X140208000Y-122869541D01*
X140190069Y-122835994D01*
X140002797Y-122607803D01*
X139774605Y-122420531D01*
X139514263Y-122281375D01*
X139231776Y-122195684D01*
X138938000Y-122166749D01*
X138644223Y-122195684D01*
X138361736Y-122281375D01*
X138101394Y-122420531D01*
X137873203Y-122607803D01*
X137685931Y-122835995D01*
X137546775Y-123096337D01*
X137461084Y-123378824D01*
X137439400Y-123598982D01*
X127635000Y-123598982D01*
X127635000Y-123562323D01*
X127532508Y-123047065D01*
X127331464Y-122561702D01*
X127039594Y-122124887D01*
X126668113Y-121753406D01*
X126231298Y-121461536D01*
X125745935Y-121260492D01*
X125230677Y-121158000D01*
X124705323Y-121158000D01*
X124190065Y-121260492D01*
X123704702Y-121461536D01*
X123267887Y-121753406D01*
X122896406Y-122124887D01*
X122604536Y-122561702D01*
X122403492Y-123047065D01*
X122301000Y-123562323D01*
X122301000Y-124087677D01*
X122403492Y-124602935D01*
X122604536Y-125088298D01*
X122896406Y-125525113D01*
X123026293Y-125655000D01*
X113695958Y-125655000D01*
X113561566Y-125585040D01*
X113203032Y-125356629D01*
X112865770Y-125097839D01*
X112552354Y-124810646D01*
X112265161Y-124497230D01*
X112006371Y-124159968D01*
X111777960Y-123801434D01*
X111708000Y-123667042D01*
X111708000Y-120115000D01*
X121769928Y-120115000D01*
X121782188Y-120239482D01*
X121818498Y-120359180D01*
X121877463Y-120469494D01*
X121956815Y-120566185D01*
X122053506Y-120645537D01*
X122163820Y-120704502D01*
X122283518Y-120740812D01*
X122408000Y-120753072D01*
X123872250Y-120750000D01*
X124031000Y-120591250D01*
X124031000Y-118492000D01*
X124285000Y-118492000D01*
X124285000Y-120591250D01*
X124443750Y-120750000D01*
X125908000Y-120753072D01*
X126032482Y-120740812D01*
X126152180Y-120704502D01*
X126262494Y-120645537D01*
X126359185Y-120566185D01*
X126438537Y-120469494D01*
X126497502Y-120359180D01*
X126533812Y-120239482D01*
X126546072Y-120115000D01*
X126543000Y-118650750D01*
X126384250Y-118492000D01*
X124285000Y-118492000D01*
X124031000Y-118492000D01*
X121931750Y-118492000D01*
X121773000Y-118650750D01*
X121769928Y-120115000D01*
X111708000Y-120115000D01*
X111708000Y-115415000D01*
X119019928Y-115415000D01*
X119032188Y-115539482D01*
X119068498Y-115659180D01*
X119127463Y-115769494D01*
X119206815Y-115866185D01*
X119303506Y-115945537D01*
X119413820Y-116004502D01*
X119533518Y-116040812D01*
X119658000Y-116053072D01*
X120872250Y-116050000D01*
X121031000Y-115891250D01*
X121031000Y-113792000D01*
X121285000Y-113792000D01*
X121285000Y-115891250D01*
X121443750Y-116050000D01*
X122114805Y-116051698D01*
X122053506Y-116084463D01*
X121956815Y-116163815D01*
X121877463Y-116260506D01*
X121818498Y-116370820D01*
X121782188Y-116490518D01*
X121769928Y-116615000D01*
X121773000Y-118079250D01*
X121931750Y-118238000D01*
X124031000Y-118238000D01*
X124031000Y-116138750D01*
X124285000Y-116138750D01*
X124285000Y-118238000D01*
X126384250Y-118238000D01*
X126543000Y-118079250D01*
X126546072Y-116615000D01*
X126533812Y-116490518D01*
X126497502Y-116370820D01*
X126438537Y-116260506D01*
X126359185Y-116163815D01*
X126262494Y-116084463D01*
X126203767Y-116053072D01*
X128908000Y-116053072D01*
X129032482Y-116040812D01*
X129152180Y-116004502D01*
X129262494Y-115945537D01*
X129359185Y-115866185D01*
X129438537Y-115769494D01*
X129497502Y-115659180D01*
X129533812Y-115539482D01*
X129546072Y-115415000D01*
X129546072Y-111915000D01*
X129533812Y-111790518D01*
X129497502Y-111670820D01*
X129438537Y-111560506D01*
X129359185Y-111463815D01*
X129262494Y-111384463D01*
X129152180Y-111325498D01*
X129032482Y-111289188D01*
X128908000Y-111276928D01*
X125408000Y-111276928D01*
X125283518Y-111289188D01*
X125163820Y-111325498D01*
X125053506Y-111384463D01*
X124956815Y-111463815D01*
X124877463Y-111560506D01*
X124818498Y-111670820D01*
X124782188Y-111790518D01*
X124769928Y-111915000D01*
X124769928Y-115415000D01*
X124782188Y-115539482D01*
X124818498Y-115659180D01*
X124877463Y-115769494D01*
X124956815Y-115866185D01*
X125053506Y-115945537D01*
X125115345Y-115978591D01*
X124443750Y-115980000D01*
X124285000Y-116138750D01*
X124031000Y-116138750D01*
X123872250Y-115980000D01*
X122951633Y-115978069D01*
X123012494Y-115945537D01*
X123109185Y-115866185D01*
X123188537Y-115769494D01*
X123247502Y-115659180D01*
X123283812Y-115539482D01*
X123296072Y-115415000D01*
X123293000Y-113950750D01*
X123134250Y-113792000D01*
X121285000Y-113792000D01*
X121031000Y-113792000D01*
X119181750Y-113792000D01*
X119023000Y-113950750D01*
X119019928Y-115415000D01*
X111708000Y-115415000D01*
X111708000Y-111915000D01*
X119019928Y-111915000D01*
X119023000Y-113379250D01*
X119181750Y-113538000D01*
X121031000Y-113538000D01*
X121031000Y-111438750D01*
X121285000Y-111438750D01*
X121285000Y-113538000D01*
X123134250Y-113538000D01*
X123293000Y-113379250D01*
X123296072Y-111915000D01*
X123283812Y-111790518D01*
X123247502Y-111670820D01*
X123188537Y-111560506D01*
X123109185Y-111463815D01*
X123012494Y-111384463D01*
X122902180Y-111325498D01*
X122782482Y-111289188D01*
X122658000Y-111276928D01*
X121443750Y-111280000D01*
X121285000Y-111438750D01*
X121031000Y-111438750D01*
X120872250Y-111280000D01*
X119658000Y-111276928D01*
X119533518Y-111289188D01*
X119413820Y-111325498D01*
X119303506Y-111384463D01*
X119206815Y-111463815D01*
X119127463Y-111560506D01*
X119068498Y-111670820D01*
X119032188Y-111790518D01*
X119019928Y-111915000D01*
X111708000Y-111915000D01*
X111708000Y-105913514D01*
X119823000Y-105913514D01*
X119823000Y-106176486D01*
X119874304Y-106434405D01*
X119974939Y-106677359D01*
X120121038Y-106896013D01*
X120306987Y-107081962D01*
X120525641Y-107228061D01*
X120768595Y-107328696D01*
X121026514Y-107380000D01*
X121289486Y-107380000D01*
X121547405Y-107328696D01*
X121790359Y-107228061D01*
X122009013Y-107081962D01*
X122194962Y-106896013D01*
X122341061Y-106677359D01*
X122441696Y-106434405D01*
X122493000Y-106176486D01*
X122493000Y-105913514D01*
X122441696Y-105655595D01*
X122341061Y-105412641D01*
X122194962Y-105193987D01*
X122009013Y-105008038D01*
X121790359Y-104861939D01*
X121547405Y-104761304D01*
X121289486Y-104710000D01*
X121026514Y-104710000D01*
X120768595Y-104761304D01*
X120525641Y-104861939D01*
X120306987Y-105008038D01*
X120121038Y-105193987D01*
X119974939Y-105412641D01*
X119874304Y-105655595D01*
X119823000Y-105913514D01*
X111708000Y-105913514D01*
X111708000Y-101321890D01*
X122256524Y-101321890D01*
X122301175Y-101469099D01*
X122426359Y-101731920D01*
X122600412Y-101965269D01*
X122816645Y-102160178D01*
X123066748Y-102309157D01*
X123341109Y-102406481D01*
X123571000Y-102285814D01*
X123571000Y-101092000D01*
X123825000Y-101092000D01*
X123825000Y-102285814D01*
X124054891Y-102406481D01*
X124329252Y-102309157D01*
X124579355Y-102160178D01*
X124775502Y-101983374D01*
X124798498Y-102059180D01*
X124857463Y-102169494D01*
X124936815Y-102266185D01*
X125033506Y-102345537D01*
X125143820Y-102404502D01*
X125263518Y-102440812D01*
X125388000Y-102453072D01*
X125952250Y-102450000D01*
X126111000Y-102291250D01*
X126111000Y-101092000D01*
X126365000Y-101092000D01*
X126365000Y-102291250D01*
X126523750Y-102450000D01*
X127088000Y-102453072D01*
X127212482Y-102440812D01*
X127332180Y-102404502D01*
X127442494Y-102345537D01*
X127539185Y-102266185D01*
X127618537Y-102169494D01*
X127677502Y-102059180D01*
X127713812Y-101939482D01*
X127726072Y-101815000D01*
X127723000Y-101250750D01*
X127564250Y-101092000D01*
X126365000Y-101092000D01*
X126111000Y-101092000D01*
X123825000Y-101092000D01*
X123571000Y-101092000D01*
X122377845Y-101092000D01*
X122256524Y-101321890D01*
X111708000Y-101321890D01*
X111708000Y-95738740D01*
X122213000Y-95738740D01*
X122213000Y-96031260D01*
X122270068Y-96318158D01*
X122382010Y-96588411D01*
X122544525Y-96831632D01*
X122751368Y-97038475D01*
X122925760Y-97155000D01*
X122751368Y-97271525D01*
X122544525Y-97478368D01*
X122382010Y-97721589D01*
X122270068Y-97991842D01*
X122213000Y-98278740D01*
X122213000Y-98571260D01*
X122270068Y-98858158D01*
X122382010Y-99128411D01*
X122544525Y-99371632D01*
X122751368Y-99578475D01*
X122933534Y-99700195D01*
X122816645Y-99769822D01*
X122600412Y-99964731D01*
X122426359Y-100198080D01*
X122301175Y-100460901D01*
X122256524Y-100608110D01*
X122377845Y-100838000D01*
X123571000Y-100838000D01*
X123571000Y-100818000D01*
X123825000Y-100818000D01*
X123825000Y-100838000D01*
X126111000Y-100838000D01*
X126111000Y-100818000D01*
X126365000Y-100818000D01*
X126365000Y-100838000D01*
X127564250Y-100838000D01*
X127723000Y-100679250D01*
X127726072Y-100115000D01*
X127713812Y-99990518D01*
X127677502Y-99870820D01*
X127618537Y-99760506D01*
X127539185Y-99663815D01*
X127442494Y-99584463D01*
X127332180Y-99525498D01*
X127259620Y-99503487D01*
X127391475Y-99371632D01*
X127399247Y-99360000D01*
X132905025Y-99360000D01*
X133006987Y-99461962D01*
X133225641Y-99608061D01*
X133468595Y-99708696D01*
X133726514Y-99760000D01*
X133988198Y-99760000D01*
X133543199Y-100205000D01*
X132475909Y-100205000D01*
X132393799Y-100082114D01*
X132200886Y-99889201D01*
X131974043Y-99737629D01*
X131721989Y-99633225D01*
X131454411Y-99580000D01*
X131181589Y-99580000D01*
X130914011Y-99633225D01*
X130661957Y-99737629D01*
X130435114Y-99889201D01*
X130242201Y-100082114D01*
X130090629Y-100308957D01*
X129986225Y-100561011D01*
X129933000Y-100828589D01*
X129933000Y-101101411D01*
X129986225Y-101368989D01*
X130090629Y-101621043D01*
X130242201Y-101847886D01*
X130435114Y-102040799D01*
X130661957Y-102192371D01*
X130764873Y-102235000D01*
X130661957Y-102277629D01*
X130435114Y-102429201D01*
X130242201Y-102622114D01*
X130090629Y-102848957D01*
X129986225Y-103101011D01*
X129933000Y-103368589D01*
X129933000Y-103641411D01*
X129986225Y-103908989D01*
X130090629Y-104161043D01*
X130242201Y-104387886D01*
X130435114Y-104580799D01*
X130551483Y-104658555D01*
X130443518Y-104669188D01*
X130323820Y-104705498D01*
X130213506Y-104764463D01*
X130116815Y-104843815D01*
X130037463Y-104940506D01*
X129978498Y-105050820D01*
X129942188Y-105170518D01*
X129929928Y-105295000D01*
X129929928Y-105366047D01*
X129814962Y-105193987D01*
X129629013Y-105008038D01*
X129410359Y-104861939D01*
X129167405Y-104761304D01*
X128909486Y-104710000D01*
X128646514Y-104710000D01*
X128388595Y-104761304D01*
X128145641Y-104861939D01*
X127926987Y-105008038D01*
X127741038Y-105193987D01*
X127594939Y-105412641D01*
X127494304Y-105655595D01*
X127443000Y-105913514D01*
X127443000Y-106176486D01*
X127494304Y-106434405D01*
X127594939Y-106677359D01*
X127741038Y-106896013D01*
X127926987Y-107081962D01*
X128145641Y-107228061D01*
X128388595Y-107328696D01*
X128646514Y-107380000D01*
X128909486Y-107380000D01*
X129016844Y-107358645D01*
X131828000Y-110169802D01*
X131828001Y-114897668D01*
X131824324Y-114935000D01*
X131828001Y-114972333D01*
X131838998Y-115083986D01*
X131843856Y-115100000D01*
X131882454Y-115227246D01*
X131953026Y-115359276D01*
X131998758Y-115415000D01*
X132048000Y-115475001D01*
X132076998Y-115498799D01*
X132374269Y-115796070D01*
X132323000Y-116053816D01*
X132323000Y-116356184D01*
X132381989Y-116652743D01*
X132497701Y-116932095D01*
X132665688Y-117183505D01*
X132879495Y-117397312D01*
X133130905Y-117565299D01*
X133410257Y-117681011D01*
X133706816Y-117740000D01*
X134009184Y-117740000D01*
X134305743Y-117681011D01*
X134585095Y-117565299D01*
X134836505Y-117397312D01*
X134902944Y-117330873D01*
X134908498Y-117349180D01*
X134967463Y-117459494D01*
X135046815Y-117556185D01*
X135143506Y-117635537D01*
X135253820Y-117694502D01*
X135373518Y-117730812D01*
X135498000Y-117743072D01*
X136112250Y-117740000D01*
X136271000Y-117581250D01*
X136271000Y-116332000D01*
X136525000Y-116332000D01*
X136525000Y-117581250D01*
X136683750Y-117740000D01*
X137298000Y-117743072D01*
X137422482Y-117730812D01*
X137542180Y-117694502D01*
X137652494Y-117635537D01*
X137749185Y-117556185D01*
X137828537Y-117459494D01*
X137887502Y-117349180D01*
X137923812Y-117229482D01*
X137936072Y-117105000D01*
X137933000Y-116490750D01*
X137774250Y-116332000D01*
X136525000Y-116332000D01*
X136271000Y-116332000D01*
X136251000Y-116332000D01*
X136251000Y-116078000D01*
X136271000Y-116078000D01*
X136271000Y-114828750D01*
X136525000Y-114828750D01*
X136525000Y-116078000D01*
X137774250Y-116078000D01*
X137933000Y-115919250D01*
X137936072Y-115305000D01*
X137923812Y-115180518D01*
X137887502Y-115060820D01*
X137828537Y-114950506D01*
X137749185Y-114853815D01*
X137652494Y-114774463D01*
X137542180Y-114715498D01*
X137422482Y-114679188D01*
X137298000Y-114666928D01*
X136683750Y-114670000D01*
X136525000Y-114828750D01*
X136271000Y-114828750D01*
X136112250Y-114670000D01*
X135498000Y-114666928D01*
X135373518Y-114679188D01*
X135253820Y-114715498D01*
X135143506Y-114774463D01*
X135046815Y-114853815D01*
X134967463Y-114950506D01*
X134908498Y-115060820D01*
X134902944Y-115079127D01*
X134836505Y-115012688D01*
X134585095Y-114844701D01*
X134305743Y-114728989D01*
X134009184Y-114670000D01*
X133706816Y-114670000D01*
X133449070Y-114721269D01*
X133348000Y-114620199D01*
X133348000Y-112358744D01*
X133468595Y-112408696D01*
X133726514Y-112460000D01*
X133989486Y-112460000D01*
X134247405Y-112408696D01*
X134490359Y-112308061D01*
X134709013Y-112161962D01*
X134894962Y-111976013D01*
X135041061Y-111757359D01*
X135141696Y-111514405D01*
X135193000Y-111256486D01*
X135193000Y-110993514D01*
X135141696Y-110735595D01*
X135041061Y-110492641D01*
X134894962Y-110273987D01*
X134709013Y-110088038D01*
X134490359Y-109941939D01*
X134247405Y-109841304D01*
X133989486Y-109790000D01*
X133726514Y-109790000D01*
X133468595Y-109841304D01*
X133348110Y-109891211D01*
X133351676Y-109855000D01*
X133348000Y-109817675D01*
X133348000Y-109817667D01*
X133337003Y-109706014D01*
X133293546Y-109562753D01*
X133222974Y-109430724D01*
X133128001Y-109314999D01*
X133099004Y-109291202D01*
X132261316Y-108453514D01*
X135063000Y-108453514D01*
X135063000Y-108716486D01*
X135114304Y-108974405D01*
X135214939Y-109217359D01*
X135361038Y-109436013D01*
X135546987Y-109621962D01*
X135765641Y-109768061D01*
X136008595Y-109868696D01*
X136266514Y-109920000D01*
X136529486Y-109920000D01*
X136787405Y-109868696D01*
X137030359Y-109768061D01*
X137249013Y-109621962D01*
X137434962Y-109436013D01*
X137581061Y-109217359D01*
X137681696Y-108974405D01*
X137733000Y-108716486D01*
X137733000Y-108453514D01*
X137681696Y-108195595D01*
X137581061Y-107952641D01*
X137434962Y-107733987D01*
X137249013Y-107548038D01*
X137030359Y-107401939D01*
X136787405Y-107301304D01*
X136529486Y-107250000D01*
X136266514Y-107250000D01*
X136008595Y-107301304D01*
X135765641Y-107401939D01*
X135546987Y-107548038D01*
X135361038Y-107733987D01*
X135214939Y-107952641D01*
X135114304Y-108195595D01*
X135063000Y-108453514D01*
X132261316Y-108453514D01*
X131240874Y-107433072D01*
X132068000Y-107433072D01*
X132192482Y-107420812D01*
X132312180Y-107384502D01*
X132422494Y-107325537D01*
X132519185Y-107246185D01*
X132598537Y-107149494D01*
X132657502Y-107039180D01*
X132693812Y-106919482D01*
X132705087Y-106805000D01*
X139893199Y-106805000D01*
X140834206Y-107746008D01*
X140858000Y-107775001D01*
X140886993Y-107798795D01*
X140966997Y-107878799D01*
X140967002Y-107878803D01*
X142184201Y-109096003D01*
X142207999Y-109125001D01*
X142323724Y-109219974D01*
X142455753Y-109290546D01*
X142599014Y-109334003D01*
X142710667Y-109345000D01*
X142710676Y-109345000D01*
X142747999Y-109348676D01*
X142785322Y-109345000D01*
X142920225Y-109345000D01*
X142981038Y-109436013D01*
X143166987Y-109621962D01*
X143385641Y-109768061D01*
X143628595Y-109868696D01*
X143886514Y-109920000D01*
X144149486Y-109920000D01*
X144407405Y-109868696D01*
X144650359Y-109768061D01*
X144869013Y-109621962D01*
X145054962Y-109436013D01*
X145201061Y-109217359D01*
X145289621Y-109003556D01*
X145349065Y-109166366D01*
X145402963Y-109267203D01*
X145636731Y-109326664D01*
X146378395Y-108585000D01*
X145636731Y-107843336D01*
X145402963Y-107902797D01*
X145292066Y-108141242D01*
X145287294Y-108160827D01*
X145201061Y-107952641D01*
X145054962Y-107733987D01*
X144869013Y-107548038D01*
X144650359Y-107401939D01*
X144407405Y-107301304D01*
X144149486Y-107250000D01*
X143886514Y-107250000D01*
X143628595Y-107301304D01*
X143385641Y-107401939D01*
X143166987Y-107548038D01*
X142981038Y-107733987D01*
X142977333Y-107739532D01*
X142204070Y-106966269D01*
X145816336Y-106966269D01*
X145875797Y-107200037D01*
X146114242Y-107310934D01*
X146138701Y-107316893D01*
X145976634Y-107376065D01*
X145875797Y-107429963D01*
X145816336Y-107663731D01*
X146558000Y-108405395D01*
X147299664Y-107663731D01*
X147240203Y-107429963D01*
X147001758Y-107319066D01*
X146977299Y-107313107D01*
X147139366Y-107253935D01*
X147240203Y-107200037D01*
X147299664Y-106966269D01*
X146558000Y-106224605D01*
X145816336Y-106966269D01*
X142204070Y-106966269D01*
X142158000Y-106920199D01*
X142158000Y-106119473D01*
X145218610Y-106119473D01*
X145258875Y-106379344D01*
X145349065Y-106626366D01*
X145402963Y-106727203D01*
X145636731Y-106786664D01*
X146378395Y-106045000D01*
X145636731Y-105303336D01*
X145402963Y-105362797D01*
X145292066Y-105601242D01*
X145229817Y-105856740D01*
X145218610Y-106119473D01*
X142158000Y-106119473D01*
X142158000Y-105123731D01*
X145816336Y-105123731D01*
X146558000Y-105865395D01*
X147299664Y-105123731D01*
X147240203Y-104889963D01*
X147001758Y-104779066D01*
X146746260Y-104716817D01*
X146483527Y-104705610D01*
X146223656Y-104745875D01*
X145976634Y-104836065D01*
X145875797Y-104889963D01*
X145816336Y-105123731D01*
X142158000Y-105123731D01*
X142158000Y-104723043D01*
X142312759Y-104619637D01*
X142512637Y-104419759D01*
X142669680Y-104184727D01*
X142777853Y-103923574D01*
X142833000Y-103646335D01*
X142833000Y-103363665D01*
X142777853Y-103086426D01*
X142669680Y-102825273D01*
X142512637Y-102590241D01*
X142312759Y-102390363D01*
X142077727Y-102233320D01*
X141816574Y-102125147D01*
X141539335Y-102070000D01*
X141256665Y-102070000D01*
X140979426Y-102125147D01*
X140718273Y-102233320D01*
X140483241Y-102390363D01*
X140283363Y-102590241D01*
X140126320Y-102825273D01*
X140018147Y-103086426D01*
X139963000Y-103363665D01*
X139963000Y-103646335D01*
X140018147Y-103923574D01*
X140126320Y-104184727D01*
X140283363Y-104419759D01*
X140483241Y-104619637D01*
X140638000Y-104723044D01*
X140638001Y-105414724D01*
X140632276Y-105410026D01*
X140500247Y-105339454D01*
X140356986Y-105295997D01*
X140245333Y-105285000D01*
X140245322Y-105285000D01*
X140208000Y-105281324D01*
X140170678Y-105285000D01*
X132705087Y-105285000D01*
X132693812Y-105170518D01*
X132657502Y-105050820D01*
X132598537Y-104940506D01*
X132519185Y-104843815D01*
X132422494Y-104764463D01*
X132312180Y-104705498D01*
X132192482Y-104669188D01*
X132084517Y-104658555D01*
X132200886Y-104580799D01*
X132393799Y-104387886D01*
X132545371Y-104161043D01*
X132615060Y-103992799D01*
X132674939Y-104137359D01*
X132821038Y-104356013D01*
X133006987Y-104541962D01*
X133225641Y-104688061D01*
X133468595Y-104788696D01*
X133726514Y-104840000D01*
X133989486Y-104840000D01*
X134247405Y-104788696D01*
X134490359Y-104688061D01*
X134709013Y-104541962D01*
X134894962Y-104356013D01*
X135041061Y-104137359D01*
X135073880Y-104058126D01*
X135126320Y-104184727D01*
X135283363Y-104419759D01*
X135483241Y-104619637D01*
X135718273Y-104776680D01*
X135979426Y-104884853D01*
X136256665Y-104940000D01*
X136539335Y-104940000D01*
X136816574Y-104884853D01*
X137077727Y-104776680D01*
X137312759Y-104619637D01*
X137512637Y-104419759D01*
X137669680Y-104184727D01*
X137777853Y-103923574D01*
X137833000Y-103646335D01*
X137833000Y-103363665D01*
X137777853Y-103086426D01*
X137669680Y-102825273D01*
X137512637Y-102590241D01*
X137312759Y-102390363D01*
X137077727Y-102233320D01*
X136816574Y-102125147D01*
X136539335Y-102070000D01*
X136256665Y-102070000D01*
X135979426Y-102125147D01*
X135718273Y-102233320D01*
X135483241Y-102390363D01*
X135283363Y-102590241D01*
X135126320Y-102825273D01*
X135073880Y-102951874D01*
X135041061Y-102872641D01*
X134894962Y-102653987D01*
X134709013Y-102468038D01*
X134490359Y-102321939D01*
X134247405Y-102221304D01*
X133989486Y-102170000D01*
X133726514Y-102170000D01*
X133468595Y-102221304D01*
X133225641Y-102321939D01*
X133006987Y-102468038D01*
X132821038Y-102653987D01*
X132674939Y-102872641D01*
X132615060Y-103017201D01*
X132545371Y-102848957D01*
X132393799Y-102622114D01*
X132200886Y-102429201D01*
X131974043Y-102277629D01*
X131871127Y-102235000D01*
X131974043Y-102192371D01*
X132200886Y-102040799D01*
X132393799Y-101847886D01*
X132475909Y-101725000D01*
X133820678Y-101725000D01*
X133858000Y-101728676D01*
X133895322Y-101725000D01*
X133895333Y-101725000D01*
X134006986Y-101714003D01*
X134150247Y-101670546D01*
X134282276Y-101599974D01*
X134398001Y-101505001D01*
X134421804Y-101475997D01*
X136712803Y-99185000D01*
X143980678Y-99185000D01*
X144018000Y-99188676D01*
X144055322Y-99185000D01*
X144055333Y-99185000D01*
X144166986Y-99174003D01*
X144310247Y-99130546D01*
X144442276Y-99059974D01*
X144558001Y-98965001D01*
X144581804Y-98935997D01*
X145253834Y-98263967D01*
X162703000Y-98263967D01*
X162703000Y-98586033D01*
X162765832Y-98901912D01*
X162889082Y-99199463D01*
X163068013Y-99467252D01*
X163295748Y-99694987D01*
X163563537Y-99873918D01*
X163861088Y-99997168D01*
X164176967Y-100060000D01*
X164499033Y-100060000D01*
X164814912Y-99997168D01*
X165112463Y-99873918D01*
X165380252Y-99694987D01*
X165607987Y-99467252D01*
X165786918Y-99199463D01*
X165910168Y-98901912D01*
X165973000Y-98586033D01*
X165973000Y-98263967D01*
X170323000Y-98263967D01*
X170323000Y-98586033D01*
X170385832Y-98901912D01*
X170509082Y-99199463D01*
X170688013Y-99467252D01*
X170915748Y-99694987D01*
X171183537Y-99873918D01*
X171481088Y-99997168D01*
X171796967Y-100060000D01*
X172119033Y-100060000D01*
X172434912Y-99997168D01*
X172732463Y-99873918D01*
X173000252Y-99694987D01*
X173227987Y-99467252D01*
X173406918Y-99199463D01*
X173530168Y-98901912D01*
X173593000Y-98586033D01*
X173593000Y-98263967D01*
X173530168Y-97948088D01*
X173406918Y-97650537D01*
X173227987Y-97382748D01*
X173000252Y-97155013D01*
X172732463Y-96976082D01*
X172434912Y-96852832D01*
X172119033Y-96790000D01*
X171796967Y-96790000D01*
X171481088Y-96852832D01*
X171183537Y-96976082D01*
X170915748Y-97155013D01*
X170688013Y-97382748D01*
X170509082Y-97650537D01*
X170385832Y-97948088D01*
X170323000Y-98263967D01*
X165973000Y-98263967D01*
X165910168Y-97948088D01*
X165786918Y-97650537D01*
X165607987Y-97382748D01*
X165380252Y-97155013D01*
X165112463Y-96976082D01*
X164814912Y-96852832D01*
X164499033Y-96790000D01*
X164176967Y-96790000D01*
X163861088Y-96852832D01*
X163563537Y-96976082D01*
X163295748Y-97155013D01*
X163068013Y-97382748D01*
X162889082Y-97650537D01*
X162765832Y-97948088D01*
X162703000Y-98263967D01*
X145253834Y-98263967D01*
X145799004Y-97718798D01*
X145828001Y-97695001D01*
X145922974Y-97579276D01*
X145993546Y-97447247D01*
X146037003Y-97303986D01*
X146048000Y-97192333D01*
X146048000Y-97192324D01*
X146051676Y-97155001D01*
X146048000Y-97117678D01*
X146048000Y-94578744D01*
X146168595Y-94628696D01*
X146426514Y-94680000D01*
X146689486Y-94680000D01*
X146796843Y-94658645D01*
X147264201Y-95126003D01*
X147287999Y-95155001D01*
X147403724Y-95249974D01*
X147535753Y-95320546D01*
X147679014Y-95364003D01*
X147790667Y-95375000D01*
X147790676Y-95375000D01*
X147827999Y-95378676D01*
X147865322Y-95375000D01*
X155410678Y-95375000D01*
X155448000Y-95378676D01*
X155485322Y-95375000D01*
X155485333Y-95375000D01*
X155596986Y-95364003D01*
X155740247Y-95320546D01*
X155872276Y-95249974D01*
X155988001Y-95155001D01*
X156011804Y-95125997D01*
X156309070Y-94828731D01*
X156566816Y-94880000D01*
X156869184Y-94880000D01*
X157165743Y-94821011D01*
X157445095Y-94705299D01*
X157696505Y-94537312D01*
X157762944Y-94470873D01*
X157768498Y-94489180D01*
X157827463Y-94599494D01*
X157906815Y-94696185D01*
X158003506Y-94775537D01*
X158113820Y-94834502D01*
X158233518Y-94870812D01*
X158358000Y-94883072D01*
X158972250Y-94880000D01*
X159131000Y-94721250D01*
X159131000Y-93472000D01*
X159385000Y-93472000D01*
X159385000Y-94721250D01*
X159543750Y-94880000D01*
X160158000Y-94883072D01*
X160282482Y-94870812D01*
X160402180Y-94834502D01*
X160512494Y-94775537D01*
X160609185Y-94696185D01*
X160688537Y-94599494D01*
X160747502Y-94489180D01*
X160783812Y-94369482D01*
X160796072Y-94245000D01*
X160793000Y-93630750D01*
X160634250Y-93472000D01*
X159385000Y-93472000D01*
X159131000Y-93472000D01*
X159111000Y-93472000D01*
X159111000Y-93218000D01*
X159131000Y-93218000D01*
X159131000Y-91968750D01*
X159385000Y-91968750D01*
X159385000Y-93218000D01*
X160634250Y-93218000D01*
X160793000Y-93059250D01*
X160796072Y-92445000D01*
X160783812Y-92320518D01*
X160747502Y-92200820D01*
X160688537Y-92090506D01*
X160609185Y-91993815D01*
X160512494Y-91914463D01*
X160402180Y-91855498D01*
X160282482Y-91819188D01*
X160158000Y-91806928D01*
X159543750Y-91810000D01*
X159385000Y-91968750D01*
X159131000Y-91968750D01*
X158972250Y-91810000D01*
X158358000Y-91806928D01*
X158233518Y-91819188D01*
X158113820Y-91855498D01*
X158003506Y-91914463D01*
X157906815Y-91993815D01*
X157827463Y-92090506D01*
X157768498Y-92200820D01*
X157762944Y-92219127D01*
X157696505Y-92152688D01*
X157445095Y-91984701D01*
X157165743Y-91868989D01*
X156869184Y-91810000D01*
X156566816Y-91810000D01*
X156270257Y-91868989D01*
X155990905Y-91984701D01*
X155739495Y-92152688D01*
X155525688Y-92366495D01*
X155357701Y-92617905D01*
X155241989Y-92897257D01*
X155183000Y-93193816D01*
X155183000Y-93496184D01*
X155234269Y-93753930D01*
X155133199Y-93855000D01*
X150331744Y-93855000D01*
X150381696Y-93734405D01*
X150433000Y-93476486D01*
X150433000Y-93213514D01*
X150381696Y-92955595D01*
X150281061Y-92712641D01*
X150134962Y-92493987D01*
X149949013Y-92308038D01*
X149858000Y-92247225D01*
X149858000Y-89849801D01*
X150682802Y-89025000D01*
X155379687Y-89025000D01*
X155525688Y-89243505D01*
X155739495Y-89457312D01*
X155990905Y-89625299D01*
X156270257Y-89741011D01*
X156566816Y-89800000D01*
X156869184Y-89800000D01*
X157165743Y-89741011D01*
X157445095Y-89625299D01*
X157696505Y-89457312D01*
X157762944Y-89390873D01*
X157768498Y-89409180D01*
X157827463Y-89519494D01*
X157906815Y-89616185D01*
X158003506Y-89695537D01*
X158113820Y-89754502D01*
X158233518Y-89790812D01*
X158358000Y-89803072D01*
X158972250Y-89800000D01*
X159131000Y-89641250D01*
X159131000Y-88392000D01*
X159385000Y-88392000D01*
X159385000Y-89641250D01*
X159543750Y-89800000D01*
X160158000Y-89803072D01*
X160282482Y-89790812D01*
X160402180Y-89754502D01*
X160512494Y-89695537D01*
X160609185Y-89616185D01*
X160688537Y-89519494D01*
X160747502Y-89409180D01*
X160783812Y-89289482D01*
X160796072Y-89165000D01*
X160793000Y-88550750D01*
X160634250Y-88392000D01*
X159385000Y-88392000D01*
X159131000Y-88392000D01*
X159111000Y-88392000D01*
X159111000Y-88138000D01*
X159131000Y-88138000D01*
X159131000Y-86888750D01*
X159385000Y-86888750D01*
X159385000Y-88138000D01*
X160634250Y-88138000D01*
X160793000Y-87979250D01*
X160796072Y-87365000D01*
X160783812Y-87240518D01*
X160747502Y-87120820D01*
X160688537Y-87010506D01*
X160609185Y-86913815D01*
X160512494Y-86834463D01*
X160402180Y-86775498D01*
X160282482Y-86739188D01*
X160158000Y-86726928D01*
X159543750Y-86730000D01*
X159385000Y-86888750D01*
X159131000Y-86888750D01*
X158972250Y-86730000D01*
X158358000Y-86726928D01*
X158233518Y-86739188D01*
X158113820Y-86775498D01*
X158003506Y-86834463D01*
X157906815Y-86913815D01*
X157827463Y-87010506D01*
X157768498Y-87120820D01*
X157762944Y-87139127D01*
X157696505Y-87072688D01*
X157445095Y-86904701D01*
X157165743Y-86788989D01*
X156869184Y-86730000D01*
X156566816Y-86730000D01*
X156270257Y-86788989D01*
X155990905Y-86904701D01*
X155739495Y-87072688D01*
X155525688Y-87286495D01*
X155379687Y-87505000D01*
X150405322Y-87505000D01*
X150367999Y-87501324D01*
X150330676Y-87505000D01*
X150330667Y-87505000D01*
X150219014Y-87515997D01*
X150075753Y-87559454D01*
X149943724Y-87630026D01*
X149827999Y-87724999D01*
X149804201Y-87753997D01*
X148586998Y-88971201D01*
X148558000Y-88994999D01*
X148534202Y-89023997D01*
X148534201Y-89023998D01*
X148463026Y-89110724D01*
X148392454Y-89242754D01*
X148378280Y-89289482D01*
X148348999Y-89386013D01*
X148348998Y-89386015D01*
X148334324Y-89535000D01*
X148338001Y-89572332D01*
X148338000Y-92247225D01*
X148246987Y-92308038D01*
X148061038Y-92493987D01*
X147914939Y-92712641D01*
X147828000Y-92922530D01*
X147741061Y-92712641D01*
X147594962Y-92493987D01*
X147409013Y-92308038D01*
X147190359Y-92161939D01*
X146947405Y-92061304D01*
X146689486Y-92010000D01*
X146426514Y-92010000D01*
X146168595Y-92061304D01*
X146048000Y-92111256D01*
X146048000Y-89572322D01*
X146051676Y-89534999D01*
X146048000Y-89497676D01*
X146048000Y-89497667D01*
X146037003Y-89386014D01*
X145993546Y-89242753D01*
X145922974Y-89110724D01*
X145828001Y-88994999D01*
X145799003Y-88971201D01*
X144581804Y-87754003D01*
X144558001Y-87724999D01*
X144442276Y-87630026D01*
X144310247Y-87559454D01*
X144166986Y-87515997D01*
X144055333Y-87505000D01*
X144055322Y-87505000D01*
X144018000Y-87501324D01*
X143980678Y-87505000D01*
X141792802Y-87505000D01*
X140968000Y-86680199D01*
X140968000Y-82229801D01*
X141792802Y-81405000D01*
X144723198Y-81405000D01*
X144256843Y-81871355D01*
X144149486Y-81850000D01*
X143886514Y-81850000D01*
X143628595Y-81901304D01*
X143385641Y-82001939D01*
X143166987Y-82148038D01*
X142981038Y-82333987D01*
X142834939Y-82552641D01*
X142734304Y-82795595D01*
X142683000Y-83053514D01*
X142683000Y-83316486D01*
X142734304Y-83574405D01*
X142834939Y-83817359D01*
X142981038Y-84036013D01*
X143166987Y-84221962D01*
X143385641Y-84368061D01*
X143595530Y-84455000D01*
X143385641Y-84541939D01*
X143166987Y-84688038D01*
X142981038Y-84873987D01*
X142834939Y-85092641D01*
X142734304Y-85335595D01*
X142683000Y-85593514D01*
X142683000Y-85856486D01*
X142734304Y-86114405D01*
X142834939Y-86357359D01*
X142981038Y-86576013D01*
X143166987Y-86761962D01*
X143385641Y-86908061D01*
X143628595Y-87008696D01*
X143886514Y-87060000D01*
X144149486Y-87060000D01*
X144407405Y-87008696D01*
X144650359Y-86908061D01*
X144869013Y-86761962D01*
X145054962Y-86576013D01*
X145201061Y-86357359D01*
X145288000Y-86147470D01*
X145374939Y-86357359D01*
X145521038Y-86576013D01*
X145706987Y-86761962D01*
X145925641Y-86908061D01*
X146168595Y-87008696D01*
X146426514Y-87060000D01*
X146689486Y-87060000D01*
X146947405Y-87008696D01*
X147190359Y-86908061D01*
X147409013Y-86761962D01*
X147594962Y-86576013D01*
X147741061Y-86357359D01*
X147828000Y-86147470D01*
X147914939Y-86357359D01*
X148061038Y-86576013D01*
X148246987Y-86761962D01*
X148465641Y-86908061D01*
X148708595Y-87008696D01*
X148966514Y-87060000D01*
X149229486Y-87060000D01*
X149487405Y-87008696D01*
X149730359Y-86908061D01*
X149949013Y-86761962D01*
X150134962Y-86576013D01*
X150195775Y-86485000D01*
X157950678Y-86485000D01*
X157988000Y-86488676D01*
X158025322Y-86485000D01*
X158025333Y-86485000D01*
X158136986Y-86474003D01*
X158280247Y-86430546D01*
X158412276Y-86359974D01*
X158528001Y-86265001D01*
X158551804Y-86235997D01*
X159769004Y-85018798D01*
X159798001Y-84995001D01*
X159892974Y-84879276D01*
X159963546Y-84747247D01*
X160007003Y-84603986D01*
X160018000Y-84492333D01*
X160018000Y-84492324D01*
X160021676Y-84455001D01*
X160018000Y-84417678D01*
X160018000Y-82698744D01*
X160085111Y-82743586D01*
X160255271Y-82814068D01*
X160376351Y-82838153D01*
X161038000Y-83499802D01*
X161038001Y-92037668D01*
X161034324Y-92075000D01*
X161048998Y-92223985D01*
X161092454Y-92367246D01*
X161163026Y-92499276D01*
X161221509Y-92570537D01*
X161258000Y-92615001D01*
X161286998Y-92638799D01*
X162504200Y-93856002D01*
X162527999Y-93885001D01*
X162643724Y-93979974D01*
X162775753Y-94050546D01*
X162872719Y-94079960D01*
X162889082Y-94119463D01*
X163068013Y-94387252D01*
X163295748Y-94614987D01*
X163563537Y-94793918D01*
X163861088Y-94917168D01*
X164176967Y-94980000D01*
X164499033Y-94980000D01*
X164814912Y-94917168D01*
X165112463Y-94793918D01*
X165380252Y-94614987D01*
X165607987Y-94387252D01*
X165786918Y-94119463D01*
X165792909Y-94105000D01*
X170503091Y-94105000D01*
X170509082Y-94119463D01*
X170688013Y-94387252D01*
X170915748Y-94614987D01*
X171183537Y-94793918D01*
X171481088Y-94917168D01*
X171796967Y-94980000D01*
X172119033Y-94980000D01*
X172434912Y-94917168D01*
X172732463Y-94793918D01*
X173000252Y-94614987D01*
X173227987Y-94387252D01*
X173406918Y-94119463D01*
X173530168Y-93821912D01*
X173593000Y-93506033D01*
X173593000Y-93183967D01*
X173530168Y-92868088D01*
X173406918Y-92570537D01*
X173227987Y-92302748D01*
X173000252Y-92075013D01*
X172732463Y-91896082D01*
X172434912Y-91772832D01*
X172119033Y-91710000D01*
X171796967Y-91710000D01*
X171481088Y-91772832D01*
X171183537Y-91896082D01*
X170915748Y-92075013D01*
X170688013Y-92302748D01*
X170509082Y-92570537D01*
X170503091Y-92585000D01*
X165792909Y-92585000D01*
X165786918Y-92570537D01*
X165607987Y-92302748D01*
X165380252Y-92075013D01*
X165112463Y-91896082D01*
X164814912Y-91772832D01*
X164499033Y-91710000D01*
X164176967Y-91710000D01*
X163861088Y-91772832D01*
X163563537Y-91896082D01*
X163295748Y-92075013D01*
X163084281Y-92286480D01*
X162558000Y-91760199D01*
X162558000Y-88103967D01*
X162703000Y-88103967D01*
X162703000Y-88426033D01*
X162765832Y-88741912D01*
X162889082Y-89039463D01*
X163068013Y-89307252D01*
X163295748Y-89534987D01*
X163563537Y-89713918D01*
X163861088Y-89837168D01*
X164176967Y-89900000D01*
X164499033Y-89900000D01*
X164814912Y-89837168D01*
X165112463Y-89713918D01*
X165380252Y-89534987D01*
X165607987Y-89307252D01*
X165786918Y-89039463D01*
X165910168Y-88741912D01*
X165973000Y-88426033D01*
X165973000Y-88103967D01*
X170323000Y-88103967D01*
X170323000Y-88426033D01*
X170385832Y-88741912D01*
X170509082Y-89039463D01*
X170688013Y-89307252D01*
X170915748Y-89534987D01*
X171183537Y-89713918D01*
X171481088Y-89837168D01*
X171796967Y-89900000D01*
X172119033Y-89900000D01*
X172434912Y-89837168D01*
X172732463Y-89713918D01*
X173000252Y-89534987D01*
X173227987Y-89307252D01*
X173406918Y-89039463D01*
X173530168Y-88741912D01*
X173593000Y-88426033D01*
X173593000Y-88103967D01*
X173530168Y-87788088D01*
X173406918Y-87490537D01*
X173227987Y-87222748D01*
X173000252Y-86995013D01*
X172732463Y-86816082D01*
X172434912Y-86692832D01*
X172119033Y-86630000D01*
X171796967Y-86630000D01*
X171481088Y-86692832D01*
X171183537Y-86816082D01*
X170915748Y-86995013D01*
X170688013Y-87222748D01*
X170509082Y-87490537D01*
X170385832Y-87788088D01*
X170323000Y-88103967D01*
X165973000Y-88103967D01*
X165910168Y-87788088D01*
X165786918Y-87490537D01*
X165607987Y-87222748D01*
X165380252Y-86995013D01*
X165112463Y-86816082D01*
X164814912Y-86692832D01*
X164499033Y-86630000D01*
X164176967Y-86630000D01*
X163861088Y-86692832D01*
X163563537Y-86816082D01*
X163295748Y-86995013D01*
X163068013Y-87222748D01*
X162889082Y-87490537D01*
X162765832Y-87788088D01*
X162703000Y-88103967D01*
X162558000Y-88103967D01*
X162558000Y-83222322D01*
X162561676Y-83184999D01*
X162558000Y-83147676D01*
X162558000Y-83147667D01*
X162547003Y-83036014D01*
X162503546Y-82892753D01*
X162432974Y-82760724D01*
X162338001Y-82644999D01*
X162309003Y-82621201D01*
X161451153Y-81763351D01*
X161427068Y-81642271D01*
X161356586Y-81472111D01*
X161311744Y-81405000D01*
X162753199Y-81405000D01*
X163279480Y-81931281D01*
X163068013Y-82142748D01*
X162889082Y-82410537D01*
X162765832Y-82708088D01*
X162703000Y-83023967D01*
X162703000Y-83346033D01*
X162765832Y-83661912D01*
X162889082Y-83959463D01*
X163068013Y-84227252D01*
X163295748Y-84454987D01*
X163563537Y-84633918D01*
X163861088Y-84757168D01*
X164176967Y-84820000D01*
X164499033Y-84820000D01*
X164814912Y-84757168D01*
X165112463Y-84633918D01*
X165380252Y-84454987D01*
X165607987Y-84227252D01*
X165786918Y-83959463D01*
X165792909Y-83945000D01*
X170503091Y-83945000D01*
X170509082Y-83959463D01*
X170688013Y-84227252D01*
X170915748Y-84454987D01*
X171183537Y-84633918D01*
X171481088Y-84757168D01*
X171796967Y-84820000D01*
X172119033Y-84820000D01*
X172434912Y-84757168D01*
X172732463Y-84633918D01*
X173000252Y-84454987D01*
X173227987Y-84227252D01*
X173406918Y-83959463D01*
X173530168Y-83661912D01*
X173593000Y-83346033D01*
X173593000Y-83023967D01*
X173530168Y-82708088D01*
X173406918Y-82410537D01*
X173227987Y-82142748D01*
X173000252Y-81915013D01*
X172732463Y-81736082D01*
X172434912Y-81612832D01*
X172119033Y-81550000D01*
X171796967Y-81550000D01*
X171481088Y-81612832D01*
X171183537Y-81736082D01*
X170915748Y-81915013D01*
X170688013Y-82142748D01*
X170509082Y-82410537D01*
X170503091Y-82425000D01*
X165792909Y-82425000D01*
X165786918Y-82410537D01*
X165607987Y-82142748D01*
X165380252Y-81915013D01*
X165112463Y-81736082D01*
X165072960Y-81719719D01*
X165043546Y-81622753D01*
X164972974Y-81490724D01*
X164878001Y-81374999D01*
X164849003Y-81351201D01*
X163631804Y-80134003D01*
X163608001Y-80104999D01*
X163492276Y-80010026D01*
X163360247Y-79939454D01*
X163216986Y-79895997D01*
X163105333Y-79885000D01*
X163105322Y-79885000D01*
X163068000Y-79881324D01*
X163030678Y-79885000D01*
X161073535Y-79885000D01*
X160970889Y-79816414D01*
X160800729Y-79745932D01*
X160620089Y-79710000D01*
X160435911Y-79710000D01*
X160255271Y-79745932D01*
X160085111Y-79816414D01*
X160018000Y-79861256D01*
X160018000Y-77010416D01*
X160094606Y-76969469D01*
X160322797Y-76782197D01*
X160510069Y-76554006D01*
X160528000Y-76520459D01*
X160545931Y-76554006D01*
X160733203Y-76782197D01*
X160961395Y-76969469D01*
X161221737Y-77108625D01*
X161504224Y-77194316D01*
X161798000Y-77223251D01*
X162091777Y-77194316D01*
X162374264Y-77108625D01*
X162634606Y-76969469D01*
X162862797Y-76782197D01*
X163050069Y-76554006D01*
X163068000Y-76520459D01*
X163085931Y-76554006D01*
X163273203Y-76782197D01*
X163501395Y-76969469D01*
X163761737Y-77108625D01*
X164044224Y-77194316D01*
X164338000Y-77223251D01*
X164631777Y-77194316D01*
X164914264Y-77108625D01*
X165174606Y-76969469D01*
X165402797Y-76782197D01*
X165590069Y-76554006D01*
X165608000Y-76520459D01*
X165625931Y-76554006D01*
X165813203Y-76782197D01*
X166041395Y-76969469D01*
X166301737Y-77108625D01*
X166584224Y-77194316D01*
X166878000Y-77223251D01*
X167171777Y-77194316D01*
X167454264Y-77108625D01*
X167714606Y-76969469D01*
X167942797Y-76782197D01*
X168130069Y-76554006D01*
X168148000Y-76520459D01*
X168165931Y-76554006D01*
X168353203Y-76782197D01*
X168581395Y-76969469D01*
X168841737Y-77108625D01*
X169124224Y-77194316D01*
X169418000Y-77223251D01*
X169711777Y-77194316D01*
X169994264Y-77108625D01*
X170254606Y-76969469D01*
X170482797Y-76782197D01*
X170670069Y-76554006D01*
X170688000Y-76520459D01*
X170705931Y-76554006D01*
X170893203Y-76782197D01*
X171121395Y-76969469D01*
X171381737Y-77108625D01*
X171664224Y-77194316D01*
X171958000Y-77223251D01*
X172251777Y-77194316D01*
X172534264Y-77108625D01*
X172794606Y-76969469D01*
X173022797Y-76782197D01*
X173210069Y-76554006D01*
X173228000Y-76520459D01*
X173245931Y-76554006D01*
X173433203Y-76782197D01*
X173661395Y-76969469D01*
X173921737Y-77108625D01*
X174204224Y-77194316D01*
X174498000Y-77223251D01*
X174791777Y-77194316D01*
X175074264Y-77108625D01*
X175334606Y-76969469D01*
X175562797Y-76782197D01*
X175750069Y-76554006D01*
X175889225Y-76293663D01*
X175974916Y-76011176D01*
X175996600Y-75791018D01*
X175996600Y-75338981D01*
X175974916Y-75118823D01*
X175889225Y-74836336D01*
X175750069Y-74575994D01*
X175562797Y-74347803D01*
X175334605Y-74160531D01*
X175074263Y-74021375D01*
X174791776Y-73935684D01*
X174498000Y-73906749D01*
X174204223Y-73935684D01*
X173921736Y-74021375D01*
X173661394Y-74160531D01*
X173433203Y-74347803D01*
X173245931Y-74575995D01*
X173228000Y-74609541D01*
X173210069Y-74575994D01*
X173022797Y-74347803D01*
X172794605Y-74160531D01*
X172534263Y-74021375D01*
X172251776Y-73935684D01*
X171958000Y-73906749D01*
X171664223Y-73935684D01*
X171381736Y-74021375D01*
X171121394Y-74160531D01*
X170893203Y-74347803D01*
X170705931Y-74575995D01*
X170688000Y-74609541D01*
X170670069Y-74575994D01*
X170482797Y-74347803D01*
X170254605Y-74160531D01*
X169994263Y-74021375D01*
X169711776Y-73935684D01*
X169418000Y-73906749D01*
X169124223Y-73935684D01*
X168841736Y-74021375D01*
X168581394Y-74160531D01*
X168353203Y-74347803D01*
X168165931Y-74575995D01*
X168148000Y-74609541D01*
X168130069Y-74575994D01*
X167942797Y-74347803D01*
X167714605Y-74160531D01*
X167454263Y-74021375D01*
X167171776Y-73935684D01*
X166878000Y-73906749D01*
X166584223Y-73935684D01*
X166301736Y-74021375D01*
X166041394Y-74160531D01*
X165813203Y-74347803D01*
X165625931Y-74575995D01*
X165608000Y-74609541D01*
X165590069Y-74575994D01*
X165402797Y-74347803D01*
X165174605Y-74160531D01*
X164914263Y-74021375D01*
X164631776Y-73935684D01*
X164338000Y-73906749D01*
X164044223Y-73935684D01*
X163761736Y-74021375D01*
X163501394Y-74160531D01*
X163273203Y-74347803D01*
X163085931Y-74575995D01*
X163068000Y-74609541D01*
X163050069Y-74575994D01*
X162862797Y-74347803D01*
X162634605Y-74160531D01*
X162374263Y-74021375D01*
X162091776Y-73935684D01*
X161798000Y-73906749D01*
X161504223Y-73935684D01*
X161221736Y-74021375D01*
X160961394Y-74160531D01*
X160733203Y-74347803D01*
X160545931Y-74575995D01*
X160528000Y-74609541D01*
X160510069Y-74575994D01*
X160322797Y-74347803D01*
X160094605Y-74160531D01*
X159834263Y-74021375D01*
X159551776Y-73935684D01*
X159258000Y-73906749D01*
X158964223Y-73935684D01*
X158681736Y-74021375D01*
X158421394Y-74160531D01*
X158193203Y-74347803D01*
X158005931Y-74575995D01*
X157988000Y-74609541D01*
X157970069Y-74575994D01*
X157782797Y-74347803D01*
X157554605Y-74160531D01*
X157294263Y-74021375D01*
X157011776Y-73935684D01*
X156718000Y-73906749D01*
X156424223Y-73935684D01*
X156141736Y-74021375D01*
X155881394Y-74160531D01*
X155653203Y-74347803D01*
X155465931Y-74575995D01*
X155326775Y-74836337D01*
X155241084Y-75118824D01*
X155219400Y-75338982D01*
X155219400Y-75791019D01*
X155241084Y-76011177D01*
X155326775Y-76293664D01*
X155465931Y-76554006D01*
X155653203Y-76782197D01*
X155881395Y-76969469D01*
X155958001Y-77010416D01*
X155958000Y-82870198D01*
X155133199Y-83695000D01*
X152202801Y-83695000D01*
X153059649Y-82838153D01*
X153180729Y-82814068D01*
X153350889Y-82743586D01*
X153504028Y-82641262D01*
X153634262Y-82511028D01*
X153736586Y-82357889D01*
X153807068Y-82187729D01*
X153843000Y-82007089D01*
X153843000Y-81822911D01*
X153807068Y-81642271D01*
X153736586Y-81472111D01*
X153668000Y-81369465D01*
X153668000Y-76823885D01*
X153718797Y-76782197D01*
X153906069Y-76554006D01*
X154045225Y-76293663D01*
X154130916Y-76011176D01*
X154152600Y-75791018D01*
X154152600Y-75338981D01*
X154130916Y-75118823D01*
X154045225Y-74836336D01*
X153906069Y-74575994D01*
X153718797Y-74347803D01*
X153490605Y-74160531D01*
X153230263Y-74021375D01*
X152947776Y-73935684D01*
X152654000Y-73906749D01*
X152360223Y-73935684D01*
X152077736Y-74021375D01*
X151817394Y-74160531D01*
X151589203Y-74347803D01*
X151401931Y-74575995D01*
X151384000Y-74609541D01*
X151366069Y-74575994D01*
X151178797Y-74347803D01*
X150950605Y-74160531D01*
X150690263Y-74021375D01*
X150407776Y-73935684D01*
X150114000Y-73906749D01*
X149820223Y-73935684D01*
X149537736Y-74021375D01*
X149277394Y-74160531D01*
X149049203Y-74347803D01*
X148861931Y-74575995D01*
X148844000Y-74609541D01*
X148826069Y-74575994D01*
X148638797Y-74347803D01*
X148410605Y-74160531D01*
X148150263Y-74021375D01*
X147867776Y-73935684D01*
X147574000Y-73906749D01*
X147280223Y-73935684D01*
X146997736Y-74021375D01*
X146737394Y-74160531D01*
X146509203Y-74347803D01*
X146321931Y-74575995D01*
X146304000Y-74609541D01*
X146286069Y-74575994D01*
X146098797Y-74347803D01*
X145870605Y-74160531D01*
X145610263Y-74021375D01*
X145327776Y-73935684D01*
X145034000Y-73906749D01*
X144740223Y-73935684D01*
X144457736Y-74021375D01*
X144197394Y-74160531D01*
X143969203Y-74347803D01*
X143781931Y-74575995D01*
X143764000Y-74609541D01*
X143746069Y-74575994D01*
X143558797Y-74347803D01*
X143330605Y-74160531D01*
X143070263Y-74021375D01*
X142787776Y-73935684D01*
X142494000Y-73906749D01*
X142200223Y-73935684D01*
X141917736Y-74021375D01*
X141657394Y-74160531D01*
X141429203Y-74347803D01*
X141241931Y-74575995D01*
X141224000Y-74609541D01*
X141206069Y-74575994D01*
X141018797Y-74347803D01*
X140790605Y-74160531D01*
X140530263Y-74021375D01*
X140247776Y-73935684D01*
X139954000Y-73906749D01*
X139660223Y-73935684D01*
X139377736Y-74021375D01*
X139117394Y-74160531D01*
X138889203Y-74347803D01*
X138701931Y-74575995D01*
X138680576Y-74615947D01*
X138532486Y-74413271D01*
X138316035Y-74214267D01*
X138064919Y-74061314D01*
X137788789Y-73960291D01*
X137773026Y-73957642D01*
X137541000Y-74078783D01*
X137541000Y-75438000D01*
X137561000Y-75438000D01*
X137561000Y-75692000D01*
X137541000Y-75692000D01*
X137541000Y-77051217D01*
X137773026Y-77172358D01*
X137788789Y-77169709D01*
X138064919Y-77068686D01*
X138316035Y-76915733D01*
X138532486Y-76716729D01*
X138680576Y-76514053D01*
X138701931Y-76554006D01*
X138889203Y-76782197D01*
X139117395Y-76969469D01*
X139377737Y-77108625D01*
X139660224Y-77194316D01*
X139954000Y-77223251D01*
X140247777Y-77194316D01*
X140530264Y-77108625D01*
X140790606Y-76969469D01*
X141018797Y-76782197D01*
X141206069Y-76554006D01*
X141224000Y-76520459D01*
X141241931Y-76554006D01*
X141429203Y-76782197D01*
X141657395Y-76969469D01*
X141917737Y-77108625D01*
X142200224Y-77194316D01*
X142494000Y-77223251D01*
X142787777Y-77194316D01*
X143070264Y-77108625D01*
X143330606Y-76969469D01*
X143558797Y-76782197D01*
X143746069Y-76554006D01*
X143764000Y-76520459D01*
X143781931Y-76554006D01*
X143969203Y-76782197D01*
X144197395Y-76969469D01*
X144457737Y-77108625D01*
X144528000Y-77129939D01*
X144528000Y-77790198D01*
X143703199Y-78615000D01*
X141515322Y-78615000D01*
X141477999Y-78611324D01*
X141440676Y-78615000D01*
X141440667Y-78615000D01*
X141329014Y-78625997D01*
X141185753Y-78669454D01*
X141053724Y-78740026D01*
X141053722Y-78740027D01*
X141053723Y-78740027D01*
X140966996Y-78811201D01*
X140966992Y-78811205D01*
X140937999Y-78834999D01*
X140914205Y-78863992D01*
X138426998Y-81351201D01*
X138398000Y-81374999D01*
X138374202Y-81403997D01*
X138374201Y-81403998D01*
X138303026Y-81490724D01*
X138232454Y-81622754D01*
X138230560Y-81628999D01*
X138188999Y-81766013D01*
X138188998Y-81766015D01*
X138174324Y-81915000D01*
X138178001Y-81952332D01*
X138178000Y-86680198D01*
X137353199Y-87505000D01*
X132475909Y-87505000D01*
X132393799Y-87382114D01*
X132200886Y-87189201D01*
X131974043Y-87037629D01*
X131721989Y-86933225D01*
X131454411Y-86880000D01*
X131181589Y-86880000D01*
X130914011Y-86933225D01*
X130661957Y-87037629D01*
X130435114Y-87189201D01*
X130242201Y-87382114D01*
X130090629Y-87608957D01*
X129986225Y-87861011D01*
X129933000Y-88128589D01*
X129933000Y-88401411D01*
X129986225Y-88668989D01*
X130090629Y-88921043D01*
X130242201Y-89147886D01*
X130435114Y-89340799D01*
X130661957Y-89492371D01*
X130764873Y-89535000D01*
X130661957Y-89577629D01*
X130435114Y-89729201D01*
X130242201Y-89922114D01*
X130090629Y-90148957D01*
X129986225Y-90401011D01*
X129933000Y-90668589D01*
X129933000Y-90941411D01*
X129986225Y-91208989D01*
X130090629Y-91461043D01*
X130242201Y-91687886D01*
X130435114Y-91880799D01*
X130551483Y-91958555D01*
X130443518Y-91969188D01*
X130323820Y-92005498D01*
X130213506Y-92064463D01*
X130116815Y-92143815D01*
X130037463Y-92240506D01*
X129978498Y-92350820D01*
X129942188Y-92470518D01*
X129929928Y-92595000D01*
X129929928Y-94095000D01*
X129942188Y-94219482D01*
X129978498Y-94339180D01*
X130037463Y-94449494D01*
X130116815Y-94546185D01*
X130213506Y-94625537D01*
X130323820Y-94684502D01*
X130443518Y-94720812D01*
X130568000Y-94733072D01*
X132068000Y-94733072D01*
X132192482Y-94720812D01*
X132312180Y-94684502D01*
X132422494Y-94625537D01*
X132519185Y-94546185D01*
X132598537Y-94449494D01*
X132657502Y-94339180D01*
X132693812Y-94219482D01*
X132705087Y-94105000D01*
X139893199Y-94105000D01*
X140834206Y-95046008D01*
X140858000Y-95075001D01*
X140886993Y-95098795D01*
X140966997Y-95178799D01*
X140967002Y-95178803D01*
X142184201Y-96396003D01*
X142207999Y-96425001D01*
X142323724Y-96519974D01*
X142455753Y-96590546D01*
X142599014Y-96634003D01*
X142710667Y-96645000D01*
X142710676Y-96645000D01*
X142747999Y-96648676D01*
X142785322Y-96645000D01*
X142920225Y-96645000D01*
X142981038Y-96736013D01*
X143166987Y-96921962D01*
X143385641Y-97068061D01*
X143628595Y-97168696D01*
X143886514Y-97220000D01*
X144148198Y-97220000D01*
X143703199Y-97665000D01*
X136435322Y-97665000D01*
X136397999Y-97661324D01*
X136360676Y-97665000D01*
X136360667Y-97665000D01*
X136249014Y-97675997D01*
X136105753Y-97719454D01*
X135973724Y-97790026D01*
X135973722Y-97790027D01*
X135973723Y-97790027D01*
X135886996Y-97861201D01*
X135886992Y-97861205D01*
X135857999Y-97884999D01*
X135834205Y-97913992D01*
X135193000Y-98555198D01*
X135193000Y-98293514D01*
X135141696Y-98035595D01*
X135041061Y-97792641D01*
X134894962Y-97573987D01*
X134709013Y-97388038D01*
X134490359Y-97241939D01*
X134247405Y-97141304D01*
X133989486Y-97090000D01*
X133726514Y-97090000D01*
X133468595Y-97141304D01*
X133225641Y-97241939D01*
X133006987Y-97388038D01*
X132905025Y-97490000D01*
X127399247Y-97490000D01*
X127391475Y-97478368D01*
X127184632Y-97271525D01*
X127010240Y-97155000D01*
X127184632Y-97038475D01*
X127391475Y-96831632D01*
X127553990Y-96588411D01*
X127665932Y-96318158D01*
X127723000Y-96031260D01*
X127723000Y-95753514D01*
X135063000Y-95753514D01*
X135063000Y-96016486D01*
X135114304Y-96274405D01*
X135214939Y-96517359D01*
X135361038Y-96736013D01*
X135546987Y-96921962D01*
X135765641Y-97068061D01*
X136008595Y-97168696D01*
X136266514Y-97220000D01*
X136529486Y-97220000D01*
X136787405Y-97168696D01*
X137030359Y-97068061D01*
X137249013Y-96921962D01*
X137434962Y-96736013D01*
X137581061Y-96517359D01*
X137681696Y-96274405D01*
X137733000Y-96016486D01*
X137733000Y-95753514D01*
X137681696Y-95495595D01*
X137581061Y-95252641D01*
X137434962Y-95033987D01*
X137249013Y-94848038D01*
X137030359Y-94701939D01*
X136787405Y-94601304D01*
X136529486Y-94550000D01*
X136266514Y-94550000D01*
X136008595Y-94601304D01*
X135765641Y-94701939D01*
X135546987Y-94848038D01*
X135361038Y-95033987D01*
X135214939Y-95252641D01*
X135114304Y-95495595D01*
X135063000Y-95753514D01*
X127723000Y-95753514D01*
X127723000Y-95738740D01*
X127665932Y-95451842D01*
X127553990Y-95181589D01*
X127391475Y-94938368D01*
X127184632Y-94731525D01*
X126941411Y-94569010D01*
X126671158Y-94457068D01*
X126384260Y-94400000D01*
X126091740Y-94400000D01*
X125804842Y-94457068D01*
X125534589Y-94569010D01*
X125291368Y-94731525D01*
X125084525Y-94938368D01*
X124968000Y-95112760D01*
X124851475Y-94938368D01*
X124644632Y-94731525D01*
X124401411Y-94569010D01*
X124131158Y-94457068D01*
X123844260Y-94400000D01*
X123551740Y-94400000D01*
X123264842Y-94457068D01*
X122994589Y-94569010D01*
X122751368Y-94731525D01*
X122544525Y-94938368D01*
X122382010Y-95181589D01*
X122270068Y-95451842D01*
X122213000Y-95738740D01*
X111708000Y-95738740D01*
X111708000Y-86081890D01*
X122256524Y-86081890D01*
X122301175Y-86229099D01*
X122426359Y-86491920D01*
X122600412Y-86725269D01*
X122816645Y-86920178D01*
X123066748Y-87069157D01*
X123341109Y-87166481D01*
X123571000Y-87045814D01*
X123571000Y-85852000D01*
X123825000Y-85852000D01*
X123825000Y-87045814D01*
X124054891Y-87166481D01*
X124329252Y-87069157D01*
X124579355Y-86920178D01*
X124775502Y-86743374D01*
X124798498Y-86819180D01*
X124857463Y-86929494D01*
X124936815Y-87026185D01*
X125033506Y-87105537D01*
X125143820Y-87164502D01*
X125263518Y-87200812D01*
X125388000Y-87213072D01*
X125952250Y-87210000D01*
X126111000Y-87051250D01*
X126111000Y-85852000D01*
X126365000Y-85852000D01*
X126365000Y-87051250D01*
X126523750Y-87210000D01*
X127088000Y-87213072D01*
X127212482Y-87200812D01*
X127332180Y-87164502D01*
X127442494Y-87105537D01*
X127539185Y-87026185D01*
X127618537Y-86929494D01*
X127677502Y-86819180D01*
X127713812Y-86699482D01*
X127726072Y-86575000D01*
X127723260Y-86058329D01*
X135105284Y-86058329D01*
X135137953Y-86166044D01*
X135248208Y-86403392D01*
X135402649Y-86614670D01*
X135595340Y-86791759D01*
X135818877Y-86927853D01*
X136064670Y-87017722D01*
X136271000Y-86895201D01*
X136271000Y-85852000D01*
X136525000Y-85852000D01*
X136525000Y-86895201D01*
X136731330Y-87017722D01*
X136977123Y-86927853D01*
X137200660Y-86791759D01*
X137393351Y-86614670D01*
X137547792Y-86403392D01*
X137658047Y-86166044D01*
X137690716Y-86058329D01*
X137567374Y-85852000D01*
X136525000Y-85852000D01*
X136271000Y-85852000D01*
X135228626Y-85852000D01*
X135105284Y-86058329D01*
X127723260Y-86058329D01*
X127723000Y-86010750D01*
X127564250Y-85852000D01*
X126365000Y-85852000D01*
X126111000Y-85852000D01*
X123825000Y-85852000D01*
X123571000Y-85852000D01*
X122377845Y-85852000D01*
X122256524Y-86081890D01*
X111708000Y-86081890D01*
X111708000Y-75722958D01*
X111777960Y-75588566D01*
X112006371Y-75230032D01*
X112265161Y-74892770D01*
X112552354Y-74579354D01*
X112865770Y-74292161D01*
X113203032Y-74033371D01*
X113561566Y-73804960D01*
X113695958Y-73735000D01*
X124296293Y-73735000D01*
X124166406Y-73864887D01*
G37*
X124166406Y-73864887D02*
X123874536Y-74301702D01*
X123673492Y-74787065D01*
X123571000Y-75302323D01*
X123571000Y-75827677D01*
X123673492Y-76342935D01*
X123874536Y-76828298D01*
X124166406Y-77265113D01*
X124537887Y-77636594D01*
X124974702Y-77928464D01*
X125460065Y-78129508D01*
X125975323Y-78232000D01*
X126500677Y-78232000D01*
X127015935Y-78129508D01*
X127501298Y-77928464D01*
X127938113Y-77636594D01*
X128309594Y-77265113D01*
X128601464Y-76828298D01*
X128657001Y-76694219D01*
X128729203Y-76782197D01*
X128957395Y-76969469D01*
X129034000Y-77010415D01*
X129034001Y-79742604D01*
X128870089Y-79710000D01*
X128685911Y-79710000D01*
X128505271Y-79745932D01*
X128335111Y-79816414D01*
X128232465Y-79885000D01*
X127516178Y-79885000D01*
X127391475Y-79698368D01*
X127184632Y-79491525D01*
X126941411Y-79329010D01*
X126671158Y-79217068D01*
X126384260Y-79160000D01*
X126091740Y-79160000D01*
X125804842Y-79217068D01*
X125534589Y-79329010D01*
X125291368Y-79491525D01*
X125084525Y-79698368D01*
X124968000Y-79872760D01*
X124851475Y-79698368D01*
X124644632Y-79491525D01*
X124401411Y-79329010D01*
X124131158Y-79217068D01*
X123844260Y-79160000D01*
X123551740Y-79160000D01*
X123264842Y-79217068D01*
X122994589Y-79329010D01*
X122751368Y-79491525D01*
X122544525Y-79698368D01*
X122382010Y-79941589D01*
X122270068Y-80211842D01*
X122213000Y-80498740D01*
X122213000Y-80791260D01*
X122270068Y-81078158D01*
X122382010Y-81348411D01*
X122544525Y-81591632D01*
X122751368Y-81798475D01*
X122925760Y-81915000D01*
X122751368Y-82031525D01*
X122544525Y-82238368D01*
X122382010Y-82481589D01*
X122270068Y-82751842D01*
X122213000Y-83038740D01*
X122213000Y-83331260D01*
X122270068Y-83618158D01*
X122382010Y-83888411D01*
X122544525Y-84131632D01*
X122751368Y-84338475D01*
X122933534Y-84460195D01*
X122816645Y-84529822D01*
X122600412Y-84724731D01*
X122426359Y-84958080D01*
X122301175Y-85220901D01*
X122256524Y-85368110D01*
X122377845Y-85598000D01*
X123571000Y-85598000D01*
X123571000Y-85578000D01*
X123825000Y-85578000D01*
X123825000Y-85598000D01*
X126111000Y-85598000D01*
X126111000Y-85578000D01*
X126365000Y-85578000D01*
X126365000Y-85598000D01*
X127564250Y-85598000D01*
X127723000Y-85439250D01*
X127726072Y-84875000D01*
X127713812Y-84750518D01*
X127677502Y-84630820D01*
X127618537Y-84520506D01*
X127539185Y-84423815D01*
X127442494Y-84344463D01*
X127332180Y-84285498D01*
X127259620Y-84263487D01*
X127391475Y-84131632D01*
X127516178Y-83945000D01*
X128740678Y-83945000D01*
X128778000Y-83948676D01*
X128815322Y-83945000D01*
X128815333Y-83945000D01*
X128926986Y-83934003D01*
X129070247Y-83890546D01*
X129202276Y-83819974D01*
X129318001Y-83725001D01*
X129341804Y-83695998D01*
X129519473Y-83518329D01*
X135105284Y-83518329D01*
X135137953Y-83626044D01*
X135248208Y-83863392D01*
X135402649Y-84074670D01*
X135595340Y-84251759D01*
X135818877Y-84387853D01*
X136002525Y-84455000D01*
X135818877Y-84522147D01*
X135595340Y-84658241D01*
X135402649Y-84835330D01*
X135248208Y-85046608D01*
X135137953Y-85283956D01*
X135105284Y-85391671D01*
X135228626Y-85598000D01*
X136271000Y-85598000D01*
X136271000Y-84554799D01*
X136102935Y-84455000D01*
X136271000Y-84355201D01*
X136271000Y-83312000D01*
X136525000Y-83312000D01*
X136525000Y-84355201D01*
X136693065Y-84455000D01*
X136525000Y-84554799D01*
X136525000Y-85598000D01*
X137567374Y-85598000D01*
X137690716Y-85391671D01*
X137658047Y-85283956D01*
X137547792Y-85046608D01*
X137393351Y-84835330D01*
X137200660Y-84658241D01*
X136977123Y-84522147D01*
X136793475Y-84455000D01*
X136977123Y-84387853D01*
X137200660Y-84251759D01*
X137393351Y-84074670D01*
X137547792Y-83863392D01*
X137658047Y-83626044D01*
X137690716Y-83518329D01*
X137567374Y-83312000D01*
X136525000Y-83312000D01*
X136271000Y-83312000D01*
X135228626Y-83312000D01*
X135105284Y-83518329D01*
X129519473Y-83518329D01*
X130186131Y-82851671D01*
X135105284Y-82851671D01*
X135228626Y-83058000D01*
X136271000Y-83058000D01*
X136271000Y-82014799D01*
X136525000Y-82014799D01*
X136525000Y-83058000D01*
X137567374Y-83058000D01*
X137690716Y-82851671D01*
X137658047Y-82743956D01*
X137547792Y-82506608D01*
X137393351Y-82295330D01*
X137200660Y-82118241D01*
X136977123Y-81982147D01*
X136731330Y-81892278D01*
X136525000Y-82014799D01*
X136271000Y-82014799D01*
X136064670Y-81892278D01*
X135818877Y-81982147D01*
X135595340Y-82118241D01*
X135402649Y-82295330D01*
X135248208Y-82506608D01*
X135137953Y-82743956D01*
X135105284Y-82851671D01*
X130186131Y-82851671D01*
X130305003Y-82732799D01*
X130334001Y-82709001D01*
X130370931Y-82664002D01*
X130428974Y-82593277D01*
X130499546Y-82461247D01*
X130511656Y-82421324D01*
X130543003Y-82317986D01*
X130554000Y-82206333D01*
X130554000Y-82206323D01*
X130557676Y-82169000D01*
X130554000Y-82131678D01*
X130554000Y-81184549D01*
X130591738Y-81241028D01*
X130721972Y-81371262D01*
X130875111Y-81473586D01*
X131045271Y-81544068D01*
X131225911Y-81580000D01*
X131410089Y-81580000D01*
X131590729Y-81544068D01*
X131760889Y-81473586D01*
X131914028Y-81371262D01*
X132044262Y-81241028D01*
X132146586Y-81087889D01*
X132217068Y-80917729D01*
X132241153Y-80796649D01*
X132845003Y-80192799D01*
X132874001Y-80169001D01*
X132946057Y-80081201D01*
X132968974Y-80053277D01*
X133039546Y-79921247D01*
X133047205Y-79895997D01*
X133083003Y-79777986D01*
X133094000Y-79666333D01*
X133094000Y-79666323D01*
X133097676Y-79629000D01*
X133094000Y-79591678D01*
X133094000Y-77010416D01*
X133170606Y-76969469D01*
X133398797Y-76782197D01*
X133586069Y-76554006D01*
X133604000Y-76520459D01*
X133621931Y-76554006D01*
X133809203Y-76782197D01*
X134037395Y-76969469D01*
X134297737Y-77108625D01*
X134580224Y-77194316D01*
X134874000Y-77223251D01*
X135167777Y-77194316D01*
X135450264Y-77108625D01*
X135710606Y-76969469D01*
X135938797Y-76782197D01*
X136126069Y-76554006D01*
X136147424Y-76514053D01*
X136295514Y-76716729D01*
X136511965Y-76915733D01*
X136763081Y-77068686D01*
X137039211Y-77169709D01*
X137054974Y-77172358D01*
X137287000Y-77051217D01*
X137287000Y-75692000D01*
X137267000Y-75692000D01*
X137267000Y-75438000D01*
X137287000Y-75438000D01*
X137287000Y-74078783D01*
X137054974Y-73957642D01*
X137039211Y-73960291D01*
X136763081Y-74061314D01*
X136511965Y-74214267D01*
X136295514Y-74413271D01*
X136147424Y-74615947D01*
X136126069Y-74575994D01*
X135938797Y-74347803D01*
X135710605Y-74160531D01*
X135450263Y-74021375D01*
X135167776Y-73935684D01*
X134874000Y-73906749D01*
X134580223Y-73935684D01*
X134297736Y-74021375D01*
X134037394Y-74160531D01*
X133809203Y-74347803D01*
X133621931Y-74575995D01*
X133604000Y-74609541D01*
X133586069Y-74575994D01*
X133398797Y-74347803D01*
X133170605Y-74160531D01*
X132910263Y-74021375D01*
X132627776Y-73935684D01*
X132334000Y-73906749D01*
X132040223Y-73935684D01*
X131757736Y-74021375D01*
X131497394Y-74160531D01*
X131269203Y-74347803D01*
X131081931Y-74575995D01*
X131064000Y-74609541D01*
X131046069Y-74575994D01*
X130858797Y-74347803D01*
X130630605Y-74160531D01*
X130370263Y-74021375D01*
X130087776Y-73935684D01*
X129794000Y-73906749D01*
X129500223Y-73935684D01*
X129217736Y-74021375D01*
X128957394Y-74160531D01*
X128729203Y-74347803D01*
X128657001Y-74435781D01*
X128601464Y-74301702D01*
X128309594Y-73864887D01*
X128179707Y-73735000D01*
X175219909Y-73735000D01*
X176328001Y-74843093D01*
X176328000Y-85944125D01*
X176324565Y-85979000D01*
X176328000Y-86013875D01*
X176328000Y-86013876D01*
X176338273Y-86118183D01*
X176378872Y-86252019D01*
X176444800Y-86375362D01*
X176533525Y-86483474D01*
X176560617Y-86505708D01*
X178868001Y-88813093D01*
X178868001Y-88863294D01*
X178738113Y-88733406D01*
X178301298Y-88441536D01*
X177815935Y-88240492D01*
X177300677Y-88138000D01*
X176775323Y-88138000D01*
X176260065Y-88240492D01*
X175774702Y-88441536D01*
X175337887Y-88733406D01*
X174966406Y-89104887D01*
X174674536Y-89541702D01*
X174473492Y-90027065D01*
X174371000Y-90542323D01*
X174371000Y-91067677D01*
X174473492Y-91582935D01*
X174674536Y-92068298D01*
X174966406Y-92505113D01*
X175337887Y-92876594D01*
X175774702Y-93168464D01*
X176260065Y-93369508D01*
X176775323Y-93472000D01*
X177300677Y-93472000D01*
X177815935Y-93369508D01*
X178301298Y-93168464D01*
X178738113Y-92876594D01*
X178868001Y-92746706D01*
X178868000Y-116803293D01*
X178738113Y-116673406D01*
X178301298Y-116381536D01*
X177815935Y-116180492D01*
X177300677Y-116078000D01*
X176775323Y-116078000D01*
X176260065Y-116180492D01*
X175774702Y-116381536D01*
X175337887Y-116673406D01*
X174966406Y-117044887D01*
X174674536Y-117481702D01*
X174473492Y-117967065D01*
X174371000Y-118482323D01*
X174371000Y-119007677D01*
X174473492Y-119522935D01*
X174674536Y-120008298D01*
X174966406Y-120445113D01*
X175337887Y-120816594D01*
X175774702Y-121108464D01*
X176260065Y-121309508D01*
X176775323Y-121412000D01*
X177300677Y-121412000D01*
X177815935Y-121309508D01*
X178301298Y-121108464D01*
X178738113Y-120816594D01*
X178868000Y-120686707D01*
X178868000Y-120990908D01*
X176560617Y-123298292D01*
X176533526Y-123320525D01*
X176511293Y-123347616D01*
X176444801Y-123428637D01*
X176378872Y-123551981D01*
X176338274Y-123685816D01*
X176324565Y-123825000D01*
X176328001Y-123859885D01*
X176328000Y-125655000D01*
X126909707Y-125655000D01*
X127039594Y-125525113D01*
X127331464Y-125088298D01*
X127532508Y-124602935D01*
X127635000Y-124087677D01*
X127635000Y-123598982D01*
X137439400Y-123598982D01*
X137439400Y-124051019D01*
X137461084Y-124271177D01*
X137546775Y-124553664D01*
X137685931Y-124814006D01*
X137873203Y-125042197D01*
X138101395Y-125229469D01*
X138361737Y-125368625D01*
X138644224Y-125454316D01*
X138938000Y-125483251D01*
X139231777Y-125454316D01*
X139514264Y-125368625D01*
X139774606Y-125229469D01*
X140002797Y-125042197D01*
X140190069Y-124814006D01*
X140208000Y-124780459D01*
X140225931Y-124814006D01*
X140413203Y-125042197D01*
X140641395Y-125229469D01*
X140901737Y-125368625D01*
X141184224Y-125454316D01*
X141478000Y-125483251D01*
X141771777Y-125454316D01*
X142054264Y-125368625D01*
X142314606Y-125229469D01*
X142542797Y-125042197D01*
X142730069Y-124814006D01*
X142748000Y-124780459D01*
X142765931Y-124814006D01*
X142953203Y-125042197D01*
X143181395Y-125229469D01*
X143441737Y-125368625D01*
X143724224Y-125454316D01*
X144018000Y-125483251D01*
X144311777Y-125454316D01*
X144594264Y-125368625D01*
X144854606Y-125229469D01*
X145082797Y-125042197D01*
X145270069Y-124814006D01*
X145288000Y-124780459D01*
X145305931Y-124814006D01*
X145493203Y-125042197D01*
X145721395Y-125229469D01*
X145981737Y-125368625D01*
X146264224Y-125454316D01*
X146558000Y-125483251D01*
X146851777Y-125454316D01*
X147134264Y-125368625D01*
X147394606Y-125229469D01*
X147622797Y-125042197D01*
X147810069Y-124814006D01*
X147828000Y-124780459D01*
X147845931Y-124814006D01*
X148033203Y-125042197D01*
X148261395Y-125229469D01*
X148521737Y-125368625D01*
X148804224Y-125454316D01*
X149098000Y-125483251D01*
X149391777Y-125454316D01*
X149674264Y-125368625D01*
X149934606Y-125229469D01*
X150162797Y-125042197D01*
X150350069Y-124814006D01*
X150371424Y-124774053D01*
X150519514Y-124976729D01*
X150735965Y-125175733D01*
X150987081Y-125328686D01*
X151263211Y-125429709D01*
X151278974Y-125432358D01*
X151511000Y-125311217D01*
X151511000Y-123952000D01*
X151765000Y-123952000D01*
X151765000Y-125311217D01*
X151997026Y-125432358D01*
X152012789Y-125429709D01*
X152288919Y-125328686D01*
X152540035Y-125175733D01*
X152756486Y-124976729D01*
X152908000Y-124769367D01*
X153059514Y-124976729D01*
X153275965Y-125175733D01*
X153527081Y-125328686D01*
X153803211Y-125429709D01*
X153818974Y-125432358D01*
X154051000Y-125311217D01*
X154051000Y-123952000D01*
X151765000Y-123952000D01*
X151511000Y-123952000D01*
X151491000Y-123952000D01*
X151491000Y-123698000D01*
X151511000Y-123698000D01*
X151511000Y-122338783D01*
X151765000Y-122338783D01*
X151765000Y-123698000D01*
X154051000Y-123698000D01*
X154051000Y-122338783D01*
X154305000Y-122338783D01*
X154305000Y-123698000D01*
X154325000Y-123698000D01*
X154325000Y-123952000D01*
X154305000Y-123952000D01*
X154305000Y-125311217D01*
X154537026Y-125432358D01*
X154552789Y-125429709D01*
X154828919Y-125328686D01*
X155080035Y-125175733D01*
X155296486Y-124976729D01*
X155444576Y-124774053D01*
X155465931Y-124814006D01*
X155653203Y-125042197D01*
X155881395Y-125229469D01*
X156141737Y-125368625D01*
X156424224Y-125454316D01*
X156718000Y-125483251D01*
X157011777Y-125454316D01*
X157294264Y-125368625D01*
X157554606Y-125229469D01*
X157782797Y-125042197D01*
X157970069Y-124814006D01*
X158109225Y-124553663D01*
X158194916Y-124271176D01*
X158216600Y-124051018D01*
X158216600Y-123598982D01*
X160299400Y-123598982D01*
X160299400Y-124051019D01*
X160321084Y-124271177D01*
X160406775Y-124553664D01*
X160545931Y-124814006D01*
X160733203Y-125042197D01*
X160961395Y-125229469D01*
X161221737Y-125368625D01*
X161504224Y-125454316D01*
X161798000Y-125483251D01*
X162091777Y-125454316D01*
X162374264Y-125368625D01*
X162634606Y-125229469D01*
X162862797Y-125042197D01*
X163050069Y-124814006D01*
X163068000Y-124780459D01*
X163085931Y-124814006D01*
X163273203Y-125042197D01*
X163501395Y-125229469D01*
X163761737Y-125368625D01*
X164044224Y-125454316D01*
X164338000Y-125483251D01*
X164631777Y-125454316D01*
X164914264Y-125368625D01*
X165174606Y-125229469D01*
X165402797Y-125042197D01*
X165590069Y-124814006D01*
X165608000Y-124780459D01*
X165625931Y-124814006D01*
X165813203Y-125042197D01*
X166041395Y-125229469D01*
X166301737Y-125368625D01*
X166584224Y-125454316D01*
X166878000Y-125483251D01*
X167171777Y-125454316D01*
X167454264Y-125368625D01*
X167714606Y-125229469D01*
X167942797Y-125042197D01*
X168130069Y-124814006D01*
X168148000Y-124780459D01*
X168165931Y-124814006D01*
X168353203Y-125042197D01*
X168581395Y-125229469D01*
X168841737Y-125368625D01*
X169124224Y-125454316D01*
X169418000Y-125483251D01*
X169711777Y-125454316D01*
X169994264Y-125368625D01*
X170254606Y-125229469D01*
X170482797Y-125042197D01*
X170670069Y-124814006D01*
X170688000Y-124780459D01*
X170705931Y-124814006D01*
X170893203Y-125042197D01*
X171121395Y-125229469D01*
X171381737Y-125368625D01*
X171664224Y-125454316D01*
X171958000Y-125483251D01*
X172251777Y-125454316D01*
X172534264Y-125368625D01*
X172794606Y-125229469D01*
X173022797Y-125042197D01*
X173210069Y-124814006D01*
X173228000Y-124780459D01*
X173245931Y-124814006D01*
X173433203Y-125042197D01*
X173661395Y-125229469D01*
X173921737Y-125368625D01*
X174204224Y-125454316D01*
X174498000Y-125483251D01*
X174791777Y-125454316D01*
X175074264Y-125368625D01*
X175334606Y-125229469D01*
X175562797Y-125042197D01*
X175750069Y-124814006D01*
X175889225Y-124553663D01*
X175974916Y-124271176D01*
X175996600Y-124051018D01*
X175996600Y-123598981D01*
X175974916Y-123378823D01*
X175889225Y-123096336D01*
X175750069Y-122835994D01*
X175562797Y-122607803D01*
X175334605Y-122420531D01*
X175074263Y-122281375D01*
X174791776Y-122195684D01*
X174498000Y-122166749D01*
X174204223Y-122195684D01*
X173921736Y-122281375D01*
X173661394Y-122420531D01*
X173433203Y-122607803D01*
X173245931Y-122835995D01*
X173228000Y-122869541D01*
X173210069Y-122835994D01*
X173022797Y-122607803D01*
X172794605Y-122420531D01*
X172534263Y-122281375D01*
X172251776Y-122195684D01*
X171958000Y-122166749D01*
X171664223Y-122195684D01*
X171381736Y-122281375D01*
X171121394Y-122420531D01*
X170893203Y-122607803D01*
X170705931Y-122835995D01*
X170688000Y-122869541D01*
X170670069Y-122835994D01*
X170482797Y-122607803D01*
X170254605Y-122420531D01*
X169994263Y-122281375D01*
X169711776Y-122195684D01*
X169418000Y-122166749D01*
X169124223Y-122195684D01*
X168841736Y-122281375D01*
X168581394Y-122420531D01*
X168353203Y-122607803D01*
X168165931Y-122835995D01*
X168148000Y-122869541D01*
X168130069Y-122835994D01*
X167942797Y-122607803D01*
X167714605Y-122420531D01*
X167454263Y-122281375D01*
X167171776Y-122195684D01*
X166878000Y-122166749D01*
X166584223Y-122195684D01*
X166301736Y-122281375D01*
X166041394Y-122420531D01*
X165813203Y-122607803D01*
X165625931Y-122835995D01*
X165608000Y-122869541D01*
X165590069Y-122835994D01*
X165402797Y-122607803D01*
X165174605Y-122420531D01*
X164914263Y-122281375D01*
X164631776Y-122195684D01*
X164338000Y-122166749D01*
X164044223Y-122195684D01*
X163761736Y-122281375D01*
X163501394Y-122420531D01*
X163273203Y-122607803D01*
X163085931Y-122835995D01*
X163068000Y-122869541D01*
X163050069Y-122835994D01*
X162862797Y-122607803D01*
X162634605Y-122420531D01*
X162374263Y-122281375D01*
X162091776Y-122195684D01*
X161798000Y-122166749D01*
X161504223Y-122195684D01*
X161221736Y-122281375D01*
X160961394Y-122420531D01*
X160733203Y-122607803D01*
X160545931Y-122835995D01*
X160406775Y-123096337D01*
X160321084Y-123378824D01*
X160299400Y-123598982D01*
X158216600Y-123598982D01*
X158216600Y-123598981D01*
X158194916Y-123378823D01*
X158109225Y-123096336D01*
X157970069Y-122835994D01*
X157782797Y-122607803D01*
X157554605Y-122420531D01*
X157294263Y-122281375D01*
X157011776Y-122195684D01*
X156718000Y-122166749D01*
X156424223Y-122195684D01*
X156141736Y-122281375D01*
X155881394Y-122420531D01*
X155653203Y-122607803D01*
X155465931Y-122835995D01*
X155444576Y-122875947D01*
X155296486Y-122673271D01*
X155080035Y-122474267D01*
X154828919Y-122321314D01*
X154552789Y-122220291D01*
X154537026Y-122217642D01*
X154305000Y-122338783D01*
X154051000Y-122338783D01*
X153818974Y-122217642D01*
X153803211Y-122220291D01*
X153527081Y-122321314D01*
X153275965Y-122474267D01*
X153059514Y-122673271D01*
X152908000Y-122880633D01*
X152756486Y-122673271D01*
X152540035Y-122474267D01*
X152288919Y-122321314D01*
X152012789Y-122220291D01*
X151997026Y-122217642D01*
X151765000Y-122338783D01*
X151511000Y-122338783D01*
X151278974Y-122217642D01*
X151263211Y-122220291D01*
X150987081Y-122321314D01*
X150735965Y-122474267D01*
X150519514Y-122673271D01*
X150371424Y-122875947D01*
X150350069Y-122835994D01*
X150162797Y-122607803D01*
X149934605Y-122420531D01*
X149674263Y-122281375D01*
X149391776Y-122195684D01*
X149098000Y-122166749D01*
X148804223Y-122195684D01*
X148521736Y-122281375D01*
X148261394Y-122420531D01*
X148033203Y-122607803D01*
X147845931Y-122835995D01*
X147828000Y-122869541D01*
X147810069Y-122835994D01*
X147622797Y-122607803D01*
X147394605Y-122420531D01*
X147318000Y-122379585D01*
X147318000Y-119842775D01*
X147409013Y-119781962D01*
X147594962Y-119596013D01*
X147741061Y-119377359D01*
X147773880Y-119298126D01*
X147826320Y-119424727D01*
X147983363Y-119659759D01*
X148183241Y-119859637D01*
X148418273Y-120016680D01*
X148679426Y-120124853D01*
X148956665Y-120180000D01*
X149239335Y-120180000D01*
X149516574Y-120124853D01*
X149777727Y-120016680D01*
X150012759Y-119859637D01*
X150212637Y-119659759D01*
X150368000Y-119427241D01*
X150523363Y-119659759D01*
X150723241Y-119859637D01*
X150958273Y-120016680D01*
X151219426Y-120124853D01*
X151496665Y-120180000D01*
X151779335Y-120180000D01*
X152056574Y-120124853D01*
X152317727Y-120016680D01*
X152552759Y-119859637D01*
X152752637Y-119659759D01*
X152908000Y-119427241D01*
X153063363Y-119659759D01*
X153263241Y-119859637D01*
X153498273Y-120016680D01*
X153759426Y-120124853D01*
X154036665Y-120180000D01*
X154319335Y-120180000D01*
X154596574Y-120124853D01*
X154857727Y-120016680D01*
X155092759Y-119859637D01*
X155292637Y-119659759D01*
X155448000Y-119427241D01*
X155603363Y-119659759D01*
X155803241Y-119859637D01*
X156038273Y-120016680D01*
X156299426Y-120124853D01*
X156576665Y-120180000D01*
X156859335Y-120180000D01*
X157136574Y-120124853D01*
X157397727Y-120016680D01*
X157632759Y-119859637D01*
X157832637Y-119659759D01*
X157988000Y-119427241D01*
X158143363Y-119659759D01*
X158343241Y-119859637D01*
X158578273Y-120016680D01*
X158839426Y-120124853D01*
X159116665Y-120180000D01*
X159399335Y-120180000D01*
X159676574Y-120124853D01*
X159937727Y-120016680D01*
X160172759Y-119859637D01*
X160372637Y-119659759D01*
X160528000Y-119427241D01*
X160683363Y-119659759D01*
X160883241Y-119859637D01*
X161118273Y-120016680D01*
X161379426Y-120124853D01*
X161656665Y-120180000D01*
X161939335Y-120180000D01*
X162216574Y-120124853D01*
X162477727Y-120016680D01*
X162712759Y-119859637D01*
X162912637Y-119659759D01*
X163068000Y-119427241D01*
X163223363Y-119659759D01*
X163423241Y-119859637D01*
X163658273Y-120016680D01*
X163919426Y-120124853D01*
X164196665Y-120180000D01*
X164479335Y-120180000D01*
X164756574Y-120124853D01*
X165017727Y-120016680D01*
X165252759Y-119859637D01*
X165452637Y-119659759D01*
X165608000Y-119427241D01*
X165763363Y-119659759D01*
X165963241Y-119859637D01*
X166198273Y-120016680D01*
X166459426Y-120124853D01*
X166736665Y-120180000D01*
X167019335Y-120180000D01*
X167296574Y-120124853D01*
X167557727Y-120016680D01*
X167792759Y-119859637D01*
X167992637Y-119659759D01*
X168148000Y-119427241D01*
X168303363Y-119659759D01*
X168503241Y-119859637D01*
X168738273Y-120016680D01*
X168999426Y-120124853D01*
X169276665Y-120180000D01*
X169559335Y-120180000D01*
X169836574Y-120124853D01*
X170097727Y-120016680D01*
X170332759Y-119859637D01*
X170532637Y-119659759D01*
X170688000Y-119427241D01*
X170843363Y-119659759D01*
X171043241Y-119859637D01*
X171278273Y-120016680D01*
X171539426Y-120124853D01*
X171816665Y-120180000D01*
X172099335Y-120180000D01*
X172376574Y-120124853D01*
X172637727Y-120016680D01*
X172872759Y-119859637D01*
X173072637Y-119659759D01*
X173229680Y-119424727D01*
X173337853Y-119163574D01*
X173393000Y-118886335D01*
X173393000Y-118603665D01*
X173337853Y-118326426D01*
X173229680Y-118065273D01*
X173072637Y-117830241D01*
X172872759Y-117630363D01*
X172640241Y-117475000D01*
X172872759Y-117319637D01*
X173072637Y-117119759D01*
X173229680Y-116884727D01*
X173337853Y-116623574D01*
X173393000Y-116346335D01*
X173393000Y-116063665D01*
X173337853Y-115786426D01*
X173229680Y-115525273D01*
X173072637Y-115290241D01*
X172872759Y-115090363D01*
X172640241Y-114935000D01*
X172872759Y-114779637D01*
X173072637Y-114579759D01*
X173228000Y-114347241D01*
X173383363Y-114579759D01*
X173583241Y-114779637D01*
X173818273Y-114936680D01*
X174079426Y-115044853D01*
X174356665Y-115100000D01*
X174639335Y-115100000D01*
X174916574Y-115044853D01*
X175177727Y-114936680D01*
X175412759Y-114779637D01*
X175612637Y-114579759D01*
X175768000Y-114347241D01*
X175923363Y-114579759D01*
X176123241Y-114779637D01*
X176358273Y-114936680D01*
X176619426Y-115044853D01*
X176896665Y-115100000D01*
X177179335Y-115100000D01*
X177456574Y-115044853D01*
X177717727Y-114936680D01*
X177952759Y-114779637D01*
X178152637Y-114579759D01*
X178309680Y-114344727D01*
X178417853Y-114083574D01*
X178473000Y-113806335D01*
X178473000Y-113523665D01*
X178417853Y-113246426D01*
X178309680Y-112985273D01*
X178152637Y-112750241D01*
X177952759Y-112550363D01*
X177720241Y-112395000D01*
X177952759Y-112239637D01*
X178152637Y-112039759D01*
X178309680Y-111804727D01*
X178417853Y-111543574D01*
X178473000Y-111266335D01*
X178473000Y-110983665D01*
X178417853Y-110706426D01*
X178309680Y-110445273D01*
X178152637Y-110210241D01*
X177952759Y-110010363D01*
X177720241Y-109855000D01*
X177952759Y-109699637D01*
X178152637Y-109499759D01*
X178309680Y-109264727D01*
X178417853Y-109003574D01*
X178473000Y-108726335D01*
X178473000Y-108443665D01*
X178417853Y-108166426D01*
X178309680Y-107905273D01*
X178152637Y-107670241D01*
X177952759Y-107470363D01*
X177720241Y-107315000D01*
X177952759Y-107159637D01*
X178152637Y-106959759D01*
X178309680Y-106724727D01*
X178417853Y-106463574D01*
X178473000Y-106186335D01*
X178473000Y-105903665D01*
X178417853Y-105626426D01*
X178309680Y-105365273D01*
X178152637Y-105130241D01*
X177952759Y-104930363D01*
X177720241Y-104775000D01*
X177952759Y-104619637D01*
X178152637Y-104419759D01*
X178309680Y-104184727D01*
X178417853Y-103923574D01*
X178473000Y-103646335D01*
X178473000Y-103363665D01*
X178417853Y-103086426D01*
X178309680Y-102825273D01*
X178152637Y-102590241D01*
X177952759Y-102390363D01*
X177717727Y-102233320D01*
X177456574Y-102125147D01*
X177179335Y-102070000D01*
X176896665Y-102070000D01*
X176619426Y-102125147D01*
X176358273Y-102233320D01*
X176123241Y-102390363D01*
X175923363Y-102590241D01*
X175768000Y-102822759D01*
X175612637Y-102590241D01*
X175412759Y-102390363D01*
X175177727Y-102233320D01*
X174916574Y-102125147D01*
X174639335Y-102070000D01*
X174356665Y-102070000D01*
X174079426Y-102125147D01*
X173818273Y-102233320D01*
X173583241Y-102390363D01*
X173383363Y-102590241D01*
X173228000Y-102822759D01*
X173072637Y-102590241D01*
X172872759Y-102390363D01*
X172637727Y-102233320D01*
X172376574Y-102125147D01*
X172099335Y-102070000D01*
X171816665Y-102070000D01*
X171539426Y-102125147D01*
X171278273Y-102233320D01*
X171043241Y-102390363D01*
X170843363Y-102590241D01*
X170688000Y-102822759D01*
X170532637Y-102590241D01*
X170332759Y-102390363D01*
X170097727Y-102233320D01*
X169836574Y-102125147D01*
X169559335Y-102070000D01*
X169276665Y-102070000D01*
X168999426Y-102125147D01*
X168738273Y-102233320D01*
X168503241Y-102390363D01*
X168303363Y-102590241D01*
X168148000Y-102822759D01*
X167992637Y-102590241D01*
X167792759Y-102390363D01*
X167557727Y-102233320D01*
X167296574Y-102125147D01*
X167019335Y-102070000D01*
X166736665Y-102070000D01*
X166459426Y-102125147D01*
X166198273Y-102233320D01*
X165963241Y-102390363D01*
X165763363Y-102590241D01*
X165608000Y-102822759D01*
X165452637Y-102590241D01*
X165252759Y-102390363D01*
X165017727Y-102233320D01*
X164756574Y-102125147D01*
X164479335Y-102070000D01*
X164196665Y-102070000D01*
X163919426Y-102125147D01*
X163658273Y-102233320D01*
X163423241Y-102390363D01*
X163223363Y-102590241D01*
X163068000Y-102822759D01*
X162912637Y-102590241D01*
X162712759Y-102390363D01*
X162480241Y-102235000D01*
X162712759Y-102079637D01*
X162912637Y-101879759D01*
X163069680Y-101644727D01*
X163177853Y-101383574D01*
X163233000Y-101106335D01*
X163233000Y-100823665D01*
X163177853Y-100546426D01*
X163069680Y-100285273D01*
X162912637Y-100050241D01*
X162712759Y-99850363D01*
X162477727Y-99693320D01*
X162216574Y-99585147D01*
X161939335Y-99530000D01*
X161656665Y-99530000D01*
X161379426Y-99585147D01*
X161118273Y-99693320D01*
X160883241Y-99850363D01*
X160683363Y-100050241D01*
X160528000Y-100282759D01*
X160372637Y-100050241D01*
X160172759Y-99850363D01*
X159937727Y-99693320D01*
X159676574Y-99585147D01*
X159399335Y-99530000D01*
X159116665Y-99530000D01*
X158839426Y-99585147D01*
X158578273Y-99693320D01*
X158343241Y-99850363D01*
X158143363Y-100050241D01*
X157988000Y-100282759D01*
X157832637Y-100050241D01*
X157632759Y-99850363D01*
X157397727Y-99693320D01*
X157136574Y-99585147D01*
X156859335Y-99530000D01*
X156576665Y-99530000D01*
X156299426Y-99585147D01*
X156038273Y-99693320D01*
X155803241Y-99850363D01*
X155603363Y-100050241D01*
X155448000Y-100282759D01*
X155292637Y-100050241D01*
X155092759Y-99850363D01*
X154857727Y-99693320D01*
X154596574Y-99585147D01*
X154319335Y-99530000D01*
X154036665Y-99530000D01*
X153759426Y-99585147D01*
X153498273Y-99693320D01*
X153263241Y-99850363D01*
X153063363Y-100050241D01*
X152908000Y-100282759D01*
X152752637Y-100050241D01*
X152552759Y-99850363D01*
X152317727Y-99693320D01*
X152056574Y-99585147D01*
X151779335Y-99530000D01*
X151496665Y-99530000D01*
X151219426Y-99585147D01*
X150958273Y-99693320D01*
X150723241Y-99850363D01*
X150523363Y-100050241D01*
X150368000Y-100282759D01*
X150212637Y-100050241D01*
X150012759Y-99850363D01*
X149777727Y-99693320D01*
X149516574Y-99585147D01*
X149239335Y-99530000D01*
X148956665Y-99530000D01*
X148679426Y-99585147D01*
X148418273Y-99693320D01*
X148183241Y-99850363D01*
X147983363Y-100050241D01*
X147826320Y-100285273D01*
X147718147Y-100546426D01*
X147663000Y-100823665D01*
X147663000Y-101106335D01*
X147718147Y-101383574D01*
X147826320Y-101644727D01*
X147983363Y-101879759D01*
X148183241Y-102079637D01*
X148415759Y-102235000D01*
X148183241Y-102390363D01*
X147983363Y-102590241D01*
X147826320Y-102825273D01*
X147718147Y-103086426D01*
X147663000Y-103363665D01*
X147663000Y-103646335D01*
X147718147Y-103923574D01*
X147826320Y-104184727D01*
X147983363Y-104419759D01*
X148183241Y-104619637D01*
X148415759Y-104775000D01*
X148183241Y-104930363D01*
X147983363Y-105130241D01*
X147826320Y-105365273D01*
X147775669Y-105487556D01*
X147766935Y-105463634D01*
X147713037Y-105362797D01*
X147479269Y-105303336D01*
X146737605Y-106045000D01*
X147479269Y-106786664D01*
X147713037Y-106727203D01*
X147773498Y-106597203D01*
X147826320Y-106724727D01*
X147983363Y-106959759D01*
X148183241Y-107159637D01*
X148415759Y-107315000D01*
X148183241Y-107470363D01*
X147983363Y-107670241D01*
X147826320Y-107905273D01*
X147775669Y-108027556D01*
X147766935Y-108003634D01*
X147713037Y-107902797D01*
X147479269Y-107843336D01*
X146737605Y-108585000D01*
X147479269Y-109326664D01*
X147713037Y-109267203D01*
X147773498Y-109137203D01*
X147826320Y-109264727D01*
X147983363Y-109499759D01*
X148183241Y-109699637D01*
X148415759Y-109855000D01*
X148183241Y-110010363D01*
X147983363Y-110210241D01*
X147826320Y-110445273D01*
X147773880Y-110571874D01*
X147741061Y-110492641D01*
X147594962Y-110273987D01*
X147409013Y-110088038D01*
X147190359Y-109941939D01*
X146976556Y-109853379D01*
X147139366Y-109793935D01*
X147240203Y-109740037D01*
X147299664Y-109506269D01*
X146558000Y-108764605D01*
X145816336Y-109506269D01*
X145875797Y-109740037D01*
X146114242Y-109850934D01*
X146133827Y-109855706D01*
X145925641Y-109941939D01*
X145706987Y-110088038D01*
X145521038Y-110273987D01*
X145374939Y-110492641D01*
X145274304Y-110735595D01*
X145223000Y-110993514D01*
X145223000Y-111256486D01*
X145274304Y-111514405D01*
X145374939Y-111757359D01*
X145521038Y-111976013D01*
X145706987Y-112161962D01*
X145925641Y-112308061D01*
X146135530Y-112395000D01*
X145925641Y-112481939D01*
X145706987Y-112628038D01*
X145521038Y-112813987D01*
X145374939Y-113032641D01*
X145274304Y-113275595D01*
X145223000Y-113533514D01*
X145223000Y-113796486D01*
X145274304Y-114054405D01*
X145374939Y-114297359D01*
X145521038Y-114516013D01*
X145706987Y-114701962D01*
X145925641Y-114848061D01*
X146135530Y-114935000D01*
X145925641Y-115021939D01*
X145706987Y-115168038D01*
X145521038Y-115353987D01*
X145374939Y-115572641D01*
X145274304Y-115815595D01*
X145223000Y-116073514D01*
X145223000Y-116336486D01*
X145274304Y-116594405D01*
X145374939Y-116837359D01*
X145521038Y-117056013D01*
X145706987Y-117241962D01*
X145798001Y-117302775D01*
X145798001Y-117647225D01*
X145706987Y-117708038D01*
X145521038Y-117893987D01*
X145374939Y-118112641D01*
X145274304Y-118355595D01*
X145223000Y-118613514D01*
X145223000Y-118876486D01*
X145274304Y-119134405D01*
X145374939Y-119377359D01*
X145521038Y-119596013D01*
X145706987Y-119781962D01*
X145798001Y-119842775D01*
X145798000Y-122379584D01*
X145721394Y-122420531D01*
X145493203Y-122607803D01*
X145305931Y-122835995D01*
X145288000Y-122869541D01*
X145270069Y-122835994D01*
X145082797Y-122607803D01*
X144854605Y-122420531D01*
X144594263Y-122281375D01*
X144311776Y-122195684D01*
X144018000Y-122166749D01*
X143724223Y-122195684D01*
X143441736Y-122281375D01*
X143181394Y-122420531D01*
X142953203Y-122607803D01*
X142765931Y-122835995D01*
X142748000Y-122869541D01*
X142730069Y-122835994D01*
X142542797Y-122607803D01*
X142314605Y-122420531D01*
X142054263Y-122281375D01*
X141771776Y-122195684D01*
X141478000Y-122166749D01*
X141184223Y-122195684D01*
X140901736Y-122281375D01*
X140641394Y-122420531D01*
X140413203Y-122607803D01*
X140225931Y-122835995D01*
X140208000Y-122869541D01*
X140190069Y-122835994D01*
X140002797Y-122607803D01*
X139774605Y-122420531D01*
X139514263Y-122281375D01*
X139231776Y-122195684D01*
X138938000Y-122166749D01*
X138644223Y-122195684D01*
X138361736Y-122281375D01*
X138101394Y-122420531D01*
X137873203Y-122607803D01*
X137685931Y-122835995D01*
X137546775Y-123096337D01*
X137461084Y-123378824D01*
X137439400Y-123598982D01*
X127635000Y-123598982D01*
X127635000Y-123562323D01*
X127532508Y-123047065D01*
X127331464Y-122561702D01*
X127039594Y-122124887D01*
X126668113Y-121753406D01*
X126231298Y-121461536D01*
X125745935Y-121260492D01*
X125230677Y-121158000D01*
X124705323Y-121158000D01*
X124190065Y-121260492D01*
X123704702Y-121461536D01*
X123267887Y-121753406D01*
X122896406Y-122124887D01*
X122604536Y-122561702D01*
X122403492Y-123047065D01*
X122301000Y-123562323D01*
X122301000Y-124087677D01*
X122403492Y-124602935D01*
X122604536Y-125088298D01*
X122896406Y-125525113D01*
X123026293Y-125655000D01*
X113695958Y-125655000D01*
X113561566Y-125585040D01*
X113203032Y-125356629D01*
X112865770Y-125097839D01*
X112552354Y-124810646D01*
X112265161Y-124497230D01*
X112006371Y-124159968D01*
X111777960Y-123801434D01*
X111708000Y-123667042D01*
X111708000Y-120115000D01*
X121769928Y-120115000D01*
X121782188Y-120239482D01*
X121818498Y-120359180D01*
X121877463Y-120469494D01*
X121956815Y-120566185D01*
X122053506Y-120645537D01*
X122163820Y-120704502D01*
X122283518Y-120740812D01*
X122408000Y-120753072D01*
X123872250Y-120750000D01*
X124031000Y-120591250D01*
X124031000Y-118492000D01*
X124285000Y-118492000D01*
X124285000Y-120591250D01*
X124443750Y-120750000D01*
X125908000Y-120753072D01*
X126032482Y-120740812D01*
X126152180Y-120704502D01*
X126262494Y-120645537D01*
X126359185Y-120566185D01*
X126438537Y-120469494D01*
X126497502Y-120359180D01*
X126533812Y-120239482D01*
X126546072Y-120115000D01*
X126543000Y-118650750D01*
X126384250Y-118492000D01*
X124285000Y-118492000D01*
X124031000Y-118492000D01*
X121931750Y-118492000D01*
X121773000Y-118650750D01*
X121769928Y-120115000D01*
X111708000Y-120115000D01*
X111708000Y-115415000D01*
X119019928Y-115415000D01*
X119032188Y-115539482D01*
X119068498Y-115659180D01*
X119127463Y-115769494D01*
X119206815Y-115866185D01*
X119303506Y-115945537D01*
X119413820Y-116004502D01*
X119533518Y-116040812D01*
X119658000Y-116053072D01*
X120872250Y-116050000D01*
X121031000Y-115891250D01*
X121031000Y-113792000D01*
X121285000Y-113792000D01*
X121285000Y-115891250D01*
X121443750Y-116050000D01*
X122114805Y-116051698D01*
X122053506Y-116084463D01*
X121956815Y-116163815D01*
X121877463Y-116260506D01*
X121818498Y-116370820D01*
X121782188Y-116490518D01*
X121769928Y-116615000D01*
X121773000Y-118079250D01*
X121931750Y-118238000D01*
X124031000Y-118238000D01*
X124031000Y-116138750D01*
X124285000Y-116138750D01*
X124285000Y-118238000D01*
X126384250Y-118238000D01*
X126543000Y-118079250D01*
X126546072Y-116615000D01*
X126533812Y-116490518D01*
X126497502Y-116370820D01*
X126438537Y-116260506D01*
X126359185Y-116163815D01*
X126262494Y-116084463D01*
X126203767Y-116053072D01*
X128908000Y-116053072D01*
X129032482Y-116040812D01*
X129152180Y-116004502D01*
X129262494Y-115945537D01*
X129359185Y-115866185D01*
X129438537Y-115769494D01*
X129497502Y-115659180D01*
X129533812Y-115539482D01*
X129546072Y-115415000D01*
X129546072Y-111915000D01*
X129533812Y-111790518D01*
X129497502Y-111670820D01*
X129438537Y-111560506D01*
X129359185Y-111463815D01*
X129262494Y-111384463D01*
X129152180Y-111325498D01*
X129032482Y-111289188D01*
X128908000Y-111276928D01*
X125408000Y-111276928D01*
X125283518Y-111289188D01*
X125163820Y-111325498D01*
X125053506Y-111384463D01*
X124956815Y-111463815D01*
X124877463Y-111560506D01*
X124818498Y-111670820D01*
X124782188Y-111790518D01*
X124769928Y-111915000D01*
X124769928Y-115415000D01*
X124782188Y-115539482D01*
X124818498Y-115659180D01*
X124877463Y-115769494D01*
X124956815Y-115866185D01*
X125053506Y-115945537D01*
X125115345Y-115978591D01*
X124443750Y-115980000D01*
X124285000Y-116138750D01*
X124031000Y-116138750D01*
X123872250Y-115980000D01*
X122951633Y-115978069D01*
X123012494Y-115945537D01*
X123109185Y-115866185D01*
X123188537Y-115769494D01*
X123247502Y-115659180D01*
X123283812Y-115539482D01*
X123296072Y-115415000D01*
X123293000Y-113950750D01*
X123134250Y-113792000D01*
X121285000Y-113792000D01*
X121031000Y-113792000D01*
X119181750Y-113792000D01*
X119023000Y-113950750D01*
X119019928Y-115415000D01*
X111708000Y-115415000D01*
X111708000Y-111915000D01*
X119019928Y-111915000D01*
X119023000Y-113379250D01*
X119181750Y-113538000D01*
X121031000Y-113538000D01*
X121031000Y-111438750D01*
X121285000Y-111438750D01*
X121285000Y-113538000D01*
X123134250Y-113538000D01*
X123293000Y-113379250D01*
X123296072Y-111915000D01*
X123283812Y-111790518D01*
X123247502Y-111670820D01*
X123188537Y-111560506D01*
X123109185Y-111463815D01*
X123012494Y-111384463D01*
X122902180Y-111325498D01*
X122782482Y-111289188D01*
X122658000Y-111276928D01*
X121443750Y-111280000D01*
X121285000Y-111438750D01*
X121031000Y-111438750D01*
X120872250Y-111280000D01*
X119658000Y-111276928D01*
X119533518Y-111289188D01*
X119413820Y-111325498D01*
X119303506Y-111384463D01*
X119206815Y-111463815D01*
X119127463Y-111560506D01*
X119068498Y-111670820D01*
X119032188Y-111790518D01*
X119019928Y-111915000D01*
X111708000Y-111915000D01*
X111708000Y-105913514D01*
X119823000Y-105913514D01*
X119823000Y-106176486D01*
X119874304Y-106434405D01*
X119974939Y-106677359D01*
X120121038Y-106896013D01*
X120306987Y-107081962D01*
X120525641Y-107228061D01*
X120768595Y-107328696D01*
X121026514Y-107380000D01*
X121289486Y-107380000D01*
X121547405Y-107328696D01*
X121790359Y-107228061D01*
X122009013Y-107081962D01*
X122194962Y-106896013D01*
X122341061Y-106677359D01*
X122441696Y-106434405D01*
X122493000Y-106176486D01*
X122493000Y-105913514D01*
X122441696Y-105655595D01*
X122341061Y-105412641D01*
X122194962Y-105193987D01*
X122009013Y-105008038D01*
X121790359Y-104861939D01*
X121547405Y-104761304D01*
X121289486Y-104710000D01*
X121026514Y-104710000D01*
X120768595Y-104761304D01*
X120525641Y-104861939D01*
X120306987Y-105008038D01*
X120121038Y-105193987D01*
X119974939Y-105412641D01*
X119874304Y-105655595D01*
X119823000Y-105913514D01*
X111708000Y-105913514D01*
X111708000Y-101321890D01*
X122256524Y-101321890D01*
X122301175Y-101469099D01*
X122426359Y-101731920D01*
X122600412Y-101965269D01*
X122816645Y-102160178D01*
X123066748Y-102309157D01*
X123341109Y-102406481D01*
X123571000Y-102285814D01*
X123571000Y-101092000D01*
X123825000Y-101092000D01*
X123825000Y-102285814D01*
X124054891Y-102406481D01*
X124329252Y-102309157D01*
X124579355Y-102160178D01*
X124775502Y-101983374D01*
X124798498Y-102059180D01*
X124857463Y-102169494D01*
X124936815Y-102266185D01*
X125033506Y-102345537D01*
X125143820Y-102404502D01*
X125263518Y-102440812D01*
X125388000Y-102453072D01*
X125952250Y-102450000D01*
X126111000Y-102291250D01*
X126111000Y-101092000D01*
X126365000Y-101092000D01*
X126365000Y-102291250D01*
X126523750Y-102450000D01*
X127088000Y-102453072D01*
X127212482Y-102440812D01*
X127332180Y-102404502D01*
X127442494Y-102345537D01*
X127539185Y-102266185D01*
X127618537Y-102169494D01*
X127677502Y-102059180D01*
X127713812Y-101939482D01*
X127726072Y-101815000D01*
X127723000Y-101250750D01*
X127564250Y-101092000D01*
X126365000Y-101092000D01*
X126111000Y-101092000D01*
X123825000Y-101092000D01*
X123571000Y-101092000D01*
X122377845Y-101092000D01*
X122256524Y-101321890D01*
X111708000Y-101321890D01*
X111708000Y-95738740D01*
X122213000Y-95738740D01*
X122213000Y-96031260D01*
X122270068Y-96318158D01*
X122382010Y-96588411D01*
X122544525Y-96831632D01*
X122751368Y-97038475D01*
X122925760Y-97155000D01*
X122751368Y-97271525D01*
X122544525Y-97478368D01*
X122382010Y-97721589D01*
X122270068Y-97991842D01*
X122213000Y-98278740D01*
X122213000Y-98571260D01*
X122270068Y-98858158D01*
X122382010Y-99128411D01*
X122544525Y-99371632D01*
X122751368Y-99578475D01*
X122933534Y-99700195D01*
X122816645Y-99769822D01*
X122600412Y-99964731D01*
X122426359Y-100198080D01*
X122301175Y-100460901D01*
X122256524Y-100608110D01*
X122377845Y-100838000D01*
X123571000Y-100838000D01*
X123571000Y-100818000D01*
X123825000Y-100818000D01*
X123825000Y-100838000D01*
X126111000Y-100838000D01*
X126111000Y-100818000D01*
X126365000Y-100818000D01*
X126365000Y-100838000D01*
X127564250Y-100838000D01*
X127723000Y-100679250D01*
X127726072Y-100115000D01*
X127713812Y-99990518D01*
X127677502Y-99870820D01*
X127618537Y-99760506D01*
X127539185Y-99663815D01*
X127442494Y-99584463D01*
X127332180Y-99525498D01*
X127259620Y-99503487D01*
X127391475Y-99371632D01*
X127399247Y-99360000D01*
X132905025Y-99360000D01*
X133006987Y-99461962D01*
X133225641Y-99608061D01*
X133468595Y-99708696D01*
X133726514Y-99760000D01*
X133988198Y-99760000D01*
X133543199Y-100205000D01*
X132475909Y-100205000D01*
X132393799Y-100082114D01*
X132200886Y-99889201D01*
X131974043Y-99737629D01*
X131721989Y-99633225D01*
X131454411Y-99580000D01*
X131181589Y-99580000D01*
X130914011Y-99633225D01*
X130661957Y-99737629D01*
X130435114Y-99889201D01*
X130242201Y-100082114D01*
X130090629Y-100308957D01*
X129986225Y-100561011D01*
X129933000Y-100828589D01*
X129933000Y-101101411D01*
X129986225Y-101368989D01*
X130090629Y-101621043D01*
X130242201Y-101847886D01*
X130435114Y-102040799D01*
X130661957Y-102192371D01*
X130764873Y-102235000D01*
X130661957Y-102277629D01*
X130435114Y-102429201D01*
X130242201Y-102622114D01*
X130090629Y-102848957D01*
X129986225Y-103101011D01*
X129933000Y-103368589D01*
X129933000Y-103641411D01*
X129986225Y-103908989D01*
X130090629Y-104161043D01*
X130242201Y-104387886D01*
X130435114Y-104580799D01*
X130551483Y-104658555D01*
X130443518Y-104669188D01*
X130323820Y-104705498D01*
X130213506Y-104764463D01*
X130116815Y-104843815D01*
X130037463Y-104940506D01*
X129978498Y-105050820D01*
X129942188Y-105170518D01*
X129929928Y-105295000D01*
X129929928Y-105366047D01*
X129814962Y-105193987D01*
X129629013Y-105008038D01*
X129410359Y-104861939D01*
X129167405Y-104761304D01*
X128909486Y-104710000D01*
X128646514Y-104710000D01*
X128388595Y-104761304D01*
X128145641Y-104861939D01*
X127926987Y-105008038D01*
X127741038Y-105193987D01*
X127594939Y-105412641D01*
X127494304Y-105655595D01*
X127443000Y-105913514D01*
X127443000Y-106176486D01*
X127494304Y-106434405D01*
X127594939Y-106677359D01*
X127741038Y-106896013D01*
X127926987Y-107081962D01*
X128145641Y-107228061D01*
X128388595Y-107328696D01*
X128646514Y-107380000D01*
X128909486Y-107380000D01*
X129016844Y-107358645D01*
X131828000Y-110169802D01*
X131828001Y-114897668D01*
X131824324Y-114935000D01*
X131828001Y-114972333D01*
X131838998Y-115083986D01*
X131843856Y-115100000D01*
X131882454Y-115227246D01*
X131953026Y-115359276D01*
X131998758Y-115415000D01*
X132048000Y-115475001D01*
X132076998Y-115498799D01*
X132374269Y-115796070D01*
X132323000Y-116053816D01*
X132323000Y-116356184D01*
X132381989Y-116652743D01*
X132497701Y-116932095D01*
X132665688Y-117183505D01*
X132879495Y-117397312D01*
X133130905Y-117565299D01*
X133410257Y-117681011D01*
X133706816Y-117740000D01*
X134009184Y-117740000D01*
X134305743Y-117681011D01*
X134585095Y-117565299D01*
X134836505Y-117397312D01*
X134902944Y-117330873D01*
X134908498Y-117349180D01*
X134967463Y-117459494D01*
X135046815Y-117556185D01*
X135143506Y-117635537D01*
X135253820Y-117694502D01*
X135373518Y-117730812D01*
X135498000Y-117743072D01*
X136112250Y-117740000D01*
X136271000Y-117581250D01*
X136271000Y-116332000D01*
X136525000Y-116332000D01*
X136525000Y-117581250D01*
X136683750Y-117740000D01*
X137298000Y-117743072D01*
X137422482Y-117730812D01*
X137542180Y-117694502D01*
X137652494Y-117635537D01*
X137749185Y-117556185D01*
X137828537Y-117459494D01*
X137887502Y-117349180D01*
X137923812Y-117229482D01*
X137936072Y-117105000D01*
X137933000Y-116490750D01*
X137774250Y-116332000D01*
X136525000Y-116332000D01*
X136271000Y-116332000D01*
X136251000Y-116332000D01*
X136251000Y-116078000D01*
X136271000Y-116078000D01*
X136271000Y-114828750D01*
X136525000Y-114828750D01*
X136525000Y-116078000D01*
X137774250Y-116078000D01*
X137933000Y-115919250D01*
X137936072Y-115305000D01*
X137923812Y-115180518D01*
X137887502Y-115060820D01*
X137828537Y-114950506D01*
X137749185Y-114853815D01*
X137652494Y-114774463D01*
X137542180Y-114715498D01*
X137422482Y-114679188D01*
X137298000Y-114666928D01*
X136683750Y-114670000D01*
X136525000Y-114828750D01*
X136271000Y-114828750D01*
X136112250Y-114670000D01*
X135498000Y-114666928D01*
X135373518Y-114679188D01*
X135253820Y-114715498D01*
X135143506Y-114774463D01*
X135046815Y-114853815D01*
X134967463Y-114950506D01*
X134908498Y-115060820D01*
X134902944Y-115079127D01*
X134836505Y-115012688D01*
X134585095Y-114844701D01*
X134305743Y-114728989D01*
X134009184Y-114670000D01*
X133706816Y-114670000D01*
X133449070Y-114721269D01*
X133348000Y-114620199D01*
X133348000Y-112358744D01*
X133468595Y-112408696D01*
X133726514Y-112460000D01*
X133989486Y-112460000D01*
X134247405Y-112408696D01*
X134490359Y-112308061D01*
X134709013Y-112161962D01*
X134894962Y-111976013D01*
X135041061Y-111757359D01*
X135141696Y-111514405D01*
X135193000Y-111256486D01*
X135193000Y-110993514D01*
X135141696Y-110735595D01*
X135041061Y-110492641D01*
X134894962Y-110273987D01*
X134709013Y-110088038D01*
X134490359Y-109941939D01*
X134247405Y-109841304D01*
X133989486Y-109790000D01*
X133726514Y-109790000D01*
X133468595Y-109841304D01*
X133348110Y-109891211D01*
X133351676Y-109855000D01*
X133348000Y-109817675D01*
X133348000Y-109817667D01*
X133337003Y-109706014D01*
X133293546Y-109562753D01*
X133222974Y-109430724D01*
X133128001Y-109314999D01*
X133099004Y-109291202D01*
X132261316Y-108453514D01*
X135063000Y-108453514D01*
X135063000Y-108716486D01*
X135114304Y-108974405D01*
X135214939Y-109217359D01*
X135361038Y-109436013D01*
X135546987Y-109621962D01*
X135765641Y-109768061D01*
X136008595Y-109868696D01*
X136266514Y-109920000D01*
X136529486Y-109920000D01*
X136787405Y-109868696D01*
X137030359Y-109768061D01*
X137249013Y-109621962D01*
X137434962Y-109436013D01*
X137581061Y-109217359D01*
X137681696Y-108974405D01*
X137733000Y-108716486D01*
X137733000Y-108453514D01*
X137681696Y-108195595D01*
X137581061Y-107952641D01*
X137434962Y-107733987D01*
X137249013Y-107548038D01*
X137030359Y-107401939D01*
X136787405Y-107301304D01*
X136529486Y-107250000D01*
X136266514Y-107250000D01*
X136008595Y-107301304D01*
X135765641Y-107401939D01*
X135546987Y-107548038D01*
X135361038Y-107733987D01*
X135214939Y-107952641D01*
X135114304Y-108195595D01*
X135063000Y-108453514D01*
X132261316Y-108453514D01*
X131240874Y-107433072D01*
X132068000Y-107433072D01*
X132192482Y-107420812D01*
X132312180Y-107384502D01*
X132422494Y-107325537D01*
X132519185Y-107246185D01*
X132598537Y-107149494D01*
X132657502Y-107039180D01*
X132693812Y-106919482D01*
X132705087Y-106805000D01*
X139893199Y-106805000D01*
X140834206Y-107746008D01*
X140858000Y-107775001D01*
X140886993Y-107798795D01*
X140966997Y-107878799D01*
X140967002Y-107878803D01*
X142184201Y-109096003D01*
X142207999Y-109125001D01*
X142323724Y-109219974D01*
X142455753Y-109290546D01*
X142599014Y-109334003D01*
X142710667Y-109345000D01*
X142710676Y-109345000D01*
X142747999Y-109348676D01*
X142785322Y-109345000D01*
X142920225Y-109345000D01*
X142981038Y-109436013D01*
X143166987Y-109621962D01*
X143385641Y-109768061D01*
X143628595Y-109868696D01*
X143886514Y-109920000D01*
X144149486Y-109920000D01*
X144407405Y-109868696D01*
X144650359Y-109768061D01*
X144869013Y-109621962D01*
X145054962Y-109436013D01*
X145201061Y-109217359D01*
X145289621Y-109003556D01*
X145349065Y-109166366D01*
X145402963Y-109267203D01*
X145636731Y-109326664D01*
X146378395Y-108585000D01*
X145636731Y-107843336D01*
X145402963Y-107902797D01*
X145292066Y-108141242D01*
X145287294Y-108160827D01*
X145201061Y-107952641D01*
X145054962Y-107733987D01*
X144869013Y-107548038D01*
X144650359Y-107401939D01*
X144407405Y-107301304D01*
X144149486Y-107250000D01*
X143886514Y-107250000D01*
X143628595Y-107301304D01*
X143385641Y-107401939D01*
X143166987Y-107548038D01*
X142981038Y-107733987D01*
X142977333Y-107739532D01*
X142204070Y-106966269D01*
X145816336Y-106966269D01*
X145875797Y-107200037D01*
X146114242Y-107310934D01*
X146138701Y-107316893D01*
X145976634Y-107376065D01*
X145875797Y-107429963D01*
X145816336Y-107663731D01*
X146558000Y-108405395D01*
X147299664Y-107663731D01*
X147240203Y-107429963D01*
X147001758Y-107319066D01*
X146977299Y-107313107D01*
X147139366Y-107253935D01*
X147240203Y-107200037D01*
X147299664Y-106966269D01*
X146558000Y-106224605D01*
X145816336Y-106966269D01*
X142204070Y-106966269D01*
X142158000Y-106920199D01*
X142158000Y-106119473D01*
X145218610Y-106119473D01*
X145258875Y-106379344D01*
X145349065Y-106626366D01*
X145402963Y-106727203D01*
X145636731Y-106786664D01*
X146378395Y-106045000D01*
X145636731Y-105303336D01*
X145402963Y-105362797D01*
X145292066Y-105601242D01*
X145229817Y-105856740D01*
X145218610Y-106119473D01*
X142158000Y-106119473D01*
X142158000Y-105123731D01*
X145816336Y-105123731D01*
X146558000Y-105865395D01*
X147299664Y-105123731D01*
X147240203Y-104889963D01*
X147001758Y-104779066D01*
X146746260Y-104716817D01*
X146483527Y-104705610D01*
X146223656Y-104745875D01*
X145976634Y-104836065D01*
X145875797Y-104889963D01*
X145816336Y-105123731D01*
X142158000Y-105123731D01*
X142158000Y-104723043D01*
X142312759Y-104619637D01*
X142512637Y-104419759D01*
X142669680Y-104184727D01*
X142777853Y-103923574D01*
X142833000Y-103646335D01*
X142833000Y-103363665D01*
X142777853Y-103086426D01*
X142669680Y-102825273D01*
X142512637Y-102590241D01*
X142312759Y-102390363D01*
X142077727Y-102233320D01*
X141816574Y-102125147D01*
X141539335Y-102070000D01*
X141256665Y-102070000D01*
X140979426Y-102125147D01*
X140718273Y-102233320D01*
X140483241Y-102390363D01*
X140283363Y-102590241D01*
X140126320Y-102825273D01*
X140018147Y-103086426D01*
X139963000Y-103363665D01*
X139963000Y-103646335D01*
X140018147Y-103923574D01*
X140126320Y-104184727D01*
X140283363Y-104419759D01*
X140483241Y-104619637D01*
X140638000Y-104723044D01*
X140638001Y-105414724D01*
X140632276Y-105410026D01*
X140500247Y-105339454D01*
X140356986Y-105295997D01*
X140245333Y-105285000D01*
X140245322Y-105285000D01*
X140208000Y-105281324D01*
X140170678Y-105285000D01*
X132705087Y-105285000D01*
X132693812Y-105170518D01*
X132657502Y-105050820D01*
X132598537Y-104940506D01*
X132519185Y-104843815D01*
X132422494Y-104764463D01*
X132312180Y-104705498D01*
X132192482Y-104669188D01*
X132084517Y-104658555D01*
X132200886Y-104580799D01*
X132393799Y-104387886D01*
X132545371Y-104161043D01*
X132615060Y-103992799D01*
X132674939Y-104137359D01*
X132821038Y-104356013D01*
X133006987Y-104541962D01*
X133225641Y-104688061D01*
X133468595Y-104788696D01*
X133726514Y-104840000D01*
X133989486Y-104840000D01*
X134247405Y-104788696D01*
X134490359Y-104688061D01*
X134709013Y-104541962D01*
X134894962Y-104356013D01*
X135041061Y-104137359D01*
X135073880Y-104058126D01*
X135126320Y-104184727D01*
X135283363Y-104419759D01*
X135483241Y-104619637D01*
X135718273Y-104776680D01*
X135979426Y-104884853D01*
X136256665Y-104940000D01*
X136539335Y-104940000D01*
X136816574Y-104884853D01*
X137077727Y-104776680D01*
X137312759Y-104619637D01*
X137512637Y-104419759D01*
X137669680Y-104184727D01*
X137777853Y-103923574D01*
X137833000Y-103646335D01*
X137833000Y-103363665D01*
X137777853Y-103086426D01*
X137669680Y-102825273D01*
X137512637Y-102590241D01*
X137312759Y-102390363D01*
X137077727Y-102233320D01*
X136816574Y-102125147D01*
X136539335Y-102070000D01*
X136256665Y-102070000D01*
X135979426Y-102125147D01*
X135718273Y-102233320D01*
X135483241Y-102390363D01*
X135283363Y-102590241D01*
X135126320Y-102825273D01*
X135073880Y-102951874D01*
X135041061Y-102872641D01*
X134894962Y-102653987D01*
X134709013Y-102468038D01*
X134490359Y-102321939D01*
X134247405Y-102221304D01*
X133989486Y-102170000D01*
X133726514Y-102170000D01*
X133468595Y-102221304D01*
X133225641Y-102321939D01*
X133006987Y-102468038D01*
X132821038Y-102653987D01*
X132674939Y-102872641D01*
X132615060Y-103017201D01*
X132545371Y-102848957D01*
X132393799Y-102622114D01*
X132200886Y-102429201D01*
X131974043Y-102277629D01*
X131871127Y-102235000D01*
X131974043Y-102192371D01*
X132200886Y-102040799D01*
X132393799Y-101847886D01*
X132475909Y-101725000D01*
X133820678Y-101725000D01*
X133858000Y-101728676D01*
X133895322Y-101725000D01*
X133895333Y-101725000D01*
X134006986Y-101714003D01*
X134150247Y-101670546D01*
X134282276Y-101599974D01*
X134398001Y-101505001D01*
X134421804Y-101475997D01*
X136712803Y-99185000D01*
X143980678Y-99185000D01*
X144018000Y-99188676D01*
X144055322Y-99185000D01*
X144055333Y-99185000D01*
X144166986Y-99174003D01*
X144310247Y-99130546D01*
X144442276Y-99059974D01*
X144558001Y-98965001D01*
X144581804Y-98935997D01*
X145253834Y-98263967D01*
X162703000Y-98263967D01*
X162703000Y-98586033D01*
X162765832Y-98901912D01*
X162889082Y-99199463D01*
X163068013Y-99467252D01*
X163295748Y-99694987D01*
X163563537Y-99873918D01*
X163861088Y-99997168D01*
X164176967Y-100060000D01*
X164499033Y-100060000D01*
X164814912Y-99997168D01*
X165112463Y-99873918D01*
X165380252Y-99694987D01*
X165607987Y-99467252D01*
X165786918Y-99199463D01*
X165910168Y-98901912D01*
X165973000Y-98586033D01*
X165973000Y-98263967D01*
X170323000Y-98263967D01*
X170323000Y-98586033D01*
X170385832Y-98901912D01*
X170509082Y-99199463D01*
X170688013Y-99467252D01*
X170915748Y-99694987D01*
X171183537Y-99873918D01*
X171481088Y-99997168D01*
X171796967Y-100060000D01*
X172119033Y-100060000D01*
X172434912Y-99997168D01*
X172732463Y-99873918D01*
X173000252Y-99694987D01*
X173227987Y-99467252D01*
X173406918Y-99199463D01*
X173530168Y-98901912D01*
X173593000Y-98586033D01*
X173593000Y-98263967D01*
X173530168Y-97948088D01*
X173406918Y-97650537D01*
X173227987Y-97382748D01*
X173000252Y-97155013D01*
X172732463Y-96976082D01*
X172434912Y-96852832D01*
X172119033Y-96790000D01*
X171796967Y-96790000D01*
X171481088Y-96852832D01*
X171183537Y-96976082D01*
X170915748Y-97155013D01*
X170688013Y-97382748D01*
X170509082Y-97650537D01*
X170385832Y-97948088D01*
X170323000Y-98263967D01*
X165973000Y-98263967D01*
X165910168Y-97948088D01*
X165786918Y-97650537D01*
X165607987Y-97382748D01*
X165380252Y-97155013D01*
X165112463Y-96976082D01*
X164814912Y-96852832D01*
X164499033Y-96790000D01*
X164176967Y-96790000D01*
X163861088Y-96852832D01*
X163563537Y-96976082D01*
X163295748Y-97155013D01*
X163068013Y-97382748D01*
X162889082Y-97650537D01*
X162765832Y-97948088D01*
X162703000Y-98263967D01*
X145253834Y-98263967D01*
X145799004Y-97718798D01*
X145828001Y-97695001D01*
X145922974Y-97579276D01*
X145993546Y-97447247D01*
X146037003Y-97303986D01*
X146048000Y-97192333D01*
X146048000Y-97192324D01*
X146051676Y-97155001D01*
X146048000Y-97117678D01*
X146048000Y-94578744D01*
X146168595Y-94628696D01*
X146426514Y-94680000D01*
X146689486Y-94680000D01*
X146796843Y-94658645D01*
X147264201Y-95126003D01*
X147287999Y-95155001D01*
X147403724Y-95249974D01*
X147535753Y-95320546D01*
X147679014Y-95364003D01*
X147790667Y-95375000D01*
X147790676Y-95375000D01*
X147827999Y-95378676D01*
X147865322Y-95375000D01*
X155410678Y-95375000D01*
X155448000Y-95378676D01*
X155485322Y-95375000D01*
X155485333Y-95375000D01*
X155596986Y-95364003D01*
X155740247Y-95320546D01*
X155872276Y-95249974D01*
X155988001Y-95155001D01*
X156011804Y-95125997D01*
X156309070Y-94828731D01*
X156566816Y-94880000D01*
X156869184Y-94880000D01*
X157165743Y-94821011D01*
X157445095Y-94705299D01*
X157696505Y-94537312D01*
X157762944Y-94470873D01*
X157768498Y-94489180D01*
X157827463Y-94599494D01*
X157906815Y-94696185D01*
X158003506Y-94775537D01*
X158113820Y-94834502D01*
X158233518Y-94870812D01*
X158358000Y-94883072D01*
X158972250Y-94880000D01*
X159131000Y-94721250D01*
X159131000Y-93472000D01*
X159385000Y-93472000D01*
X159385000Y-94721250D01*
X159543750Y-94880000D01*
X160158000Y-94883072D01*
X160282482Y-94870812D01*
X160402180Y-94834502D01*
X160512494Y-94775537D01*
X160609185Y-94696185D01*
X160688537Y-94599494D01*
X160747502Y-94489180D01*
X160783812Y-94369482D01*
X160796072Y-94245000D01*
X160793000Y-93630750D01*
X160634250Y-93472000D01*
X159385000Y-93472000D01*
X159131000Y-93472000D01*
X159111000Y-93472000D01*
X159111000Y-93218000D01*
X159131000Y-93218000D01*
X159131000Y-91968750D01*
X159385000Y-91968750D01*
X159385000Y-93218000D01*
X160634250Y-93218000D01*
X160793000Y-93059250D01*
X160796072Y-92445000D01*
X160783812Y-92320518D01*
X160747502Y-92200820D01*
X160688537Y-92090506D01*
X160609185Y-91993815D01*
X160512494Y-91914463D01*
X160402180Y-91855498D01*
X160282482Y-91819188D01*
X160158000Y-91806928D01*
X159543750Y-91810000D01*
X159385000Y-91968750D01*
X159131000Y-91968750D01*
X158972250Y-91810000D01*
X158358000Y-91806928D01*
X158233518Y-91819188D01*
X158113820Y-91855498D01*
X158003506Y-91914463D01*
X157906815Y-91993815D01*
X157827463Y-92090506D01*
X157768498Y-92200820D01*
X157762944Y-92219127D01*
X157696505Y-92152688D01*
X157445095Y-91984701D01*
X157165743Y-91868989D01*
X156869184Y-91810000D01*
X156566816Y-91810000D01*
X156270257Y-91868989D01*
X155990905Y-91984701D01*
X155739495Y-92152688D01*
X155525688Y-92366495D01*
X155357701Y-92617905D01*
X155241989Y-92897257D01*
X155183000Y-93193816D01*
X155183000Y-93496184D01*
X155234269Y-93753930D01*
X155133199Y-93855000D01*
X150331744Y-93855000D01*
X150381696Y-93734405D01*
X150433000Y-93476486D01*
X150433000Y-93213514D01*
X150381696Y-92955595D01*
X150281061Y-92712641D01*
X150134962Y-92493987D01*
X149949013Y-92308038D01*
X149858000Y-92247225D01*
X149858000Y-89849801D01*
X150682802Y-89025000D01*
X155379687Y-89025000D01*
X155525688Y-89243505D01*
X155739495Y-89457312D01*
X155990905Y-89625299D01*
X156270257Y-89741011D01*
X156566816Y-89800000D01*
X156869184Y-89800000D01*
X157165743Y-89741011D01*
X157445095Y-89625299D01*
X157696505Y-89457312D01*
X157762944Y-89390873D01*
X157768498Y-89409180D01*
X157827463Y-89519494D01*
X157906815Y-89616185D01*
X158003506Y-89695537D01*
X158113820Y-89754502D01*
X158233518Y-89790812D01*
X158358000Y-89803072D01*
X158972250Y-89800000D01*
X159131000Y-89641250D01*
X159131000Y-88392000D01*
X159385000Y-88392000D01*
X159385000Y-89641250D01*
X159543750Y-89800000D01*
X160158000Y-89803072D01*
X160282482Y-89790812D01*
X160402180Y-89754502D01*
X160512494Y-89695537D01*
X160609185Y-89616185D01*
X160688537Y-89519494D01*
X160747502Y-89409180D01*
X160783812Y-89289482D01*
X160796072Y-89165000D01*
X160793000Y-88550750D01*
X160634250Y-88392000D01*
X159385000Y-88392000D01*
X159131000Y-88392000D01*
X159111000Y-88392000D01*
X159111000Y-88138000D01*
X159131000Y-88138000D01*
X159131000Y-86888750D01*
X159385000Y-86888750D01*
X159385000Y-88138000D01*
X160634250Y-88138000D01*
X160793000Y-87979250D01*
X160796072Y-87365000D01*
X160783812Y-87240518D01*
X160747502Y-87120820D01*
X160688537Y-87010506D01*
X160609185Y-86913815D01*
X160512494Y-86834463D01*
X160402180Y-86775498D01*
X160282482Y-86739188D01*
X160158000Y-86726928D01*
X159543750Y-86730000D01*
X159385000Y-86888750D01*
X159131000Y-86888750D01*
X158972250Y-86730000D01*
X158358000Y-86726928D01*
X158233518Y-86739188D01*
X158113820Y-86775498D01*
X158003506Y-86834463D01*
X157906815Y-86913815D01*
X157827463Y-87010506D01*
X157768498Y-87120820D01*
X157762944Y-87139127D01*
X157696505Y-87072688D01*
X157445095Y-86904701D01*
X157165743Y-86788989D01*
X156869184Y-86730000D01*
X156566816Y-86730000D01*
X156270257Y-86788989D01*
X155990905Y-86904701D01*
X155739495Y-87072688D01*
X155525688Y-87286495D01*
X155379687Y-87505000D01*
X150405322Y-87505000D01*
X150367999Y-87501324D01*
X150330676Y-87505000D01*
X150330667Y-87505000D01*
X150219014Y-87515997D01*
X150075753Y-87559454D01*
X149943724Y-87630026D01*
X149827999Y-87724999D01*
X149804201Y-87753997D01*
X148586998Y-88971201D01*
X148558000Y-88994999D01*
X148534202Y-89023997D01*
X148534201Y-89023998D01*
X148463026Y-89110724D01*
X148392454Y-89242754D01*
X148378280Y-89289482D01*
X148348999Y-89386013D01*
X148348998Y-89386015D01*
X148334324Y-89535000D01*
X148338001Y-89572332D01*
X148338000Y-92247225D01*
X148246987Y-92308038D01*
X148061038Y-92493987D01*
X147914939Y-92712641D01*
X147828000Y-92922530D01*
X147741061Y-92712641D01*
X147594962Y-92493987D01*
X147409013Y-92308038D01*
X147190359Y-92161939D01*
X146947405Y-92061304D01*
X146689486Y-92010000D01*
X146426514Y-92010000D01*
X146168595Y-92061304D01*
X146048000Y-92111256D01*
X146048000Y-89572322D01*
X146051676Y-89534999D01*
X146048000Y-89497676D01*
X146048000Y-89497667D01*
X146037003Y-89386014D01*
X145993546Y-89242753D01*
X145922974Y-89110724D01*
X145828001Y-88994999D01*
X145799003Y-88971201D01*
X144581804Y-87754003D01*
X144558001Y-87724999D01*
X144442276Y-87630026D01*
X144310247Y-87559454D01*
X144166986Y-87515997D01*
X144055333Y-87505000D01*
X144055322Y-87505000D01*
X144018000Y-87501324D01*
X143980678Y-87505000D01*
X141792802Y-87505000D01*
X140968000Y-86680199D01*
X140968000Y-82229801D01*
X141792802Y-81405000D01*
X144723198Y-81405000D01*
X144256843Y-81871355D01*
X144149486Y-81850000D01*
X143886514Y-81850000D01*
X143628595Y-81901304D01*
X143385641Y-82001939D01*
X143166987Y-82148038D01*
X142981038Y-82333987D01*
X142834939Y-82552641D01*
X142734304Y-82795595D01*
X142683000Y-83053514D01*
X142683000Y-83316486D01*
X142734304Y-83574405D01*
X142834939Y-83817359D01*
X142981038Y-84036013D01*
X143166987Y-84221962D01*
X143385641Y-84368061D01*
X143595530Y-84455000D01*
X143385641Y-84541939D01*
X143166987Y-84688038D01*
X142981038Y-84873987D01*
X142834939Y-85092641D01*
X142734304Y-85335595D01*
X142683000Y-85593514D01*
X142683000Y-85856486D01*
X142734304Y-86114405D01*
X142834939Y-86357359D01*
X142981038Y-86576013D01*
X143166987Y-86761962D01*
X143385641Y-86908061D01*
X143628595Y-87008696D01*
X143886514Y-87060000D01*
X144149486Y-87060000D01*
X144407405Y-87008696D01*
X144650359Y-86908061D01*
X144869013Y-86761962D01*
X145054962Y-86576013D01*
X145201061Y-86357359D01*
X145288000Y-86147470D01*
X145374939Y-86357359D01*
X145521038Y-86576013D01*
X145706987Y-86761962D01*
X145925641Y-86908061D01*
X146168595Y-87008696D01*
X146426514Y-87060000D01*
X146689486Y-87060000D01*
X146947405Y-87008696D01*
X147190359Y-86908061D01*
X147409013Y-86761962D01*
X147594962Y-86576013D01*
X147741061Y-86357359D01*
X147828000Y-86147470D01*
X147914939Y-86357359D01*
X148061038Y-86576013D01*
X148246987Y-86761962D01*
X148465641Y-86908061D01*
X148708595Y-87008696D01*
X148966514Y-87060000D01*
X149229486Y-87060000D01*
X149487405Y-87008696D01*
X149730359Y-86908061D01*
X149949013Y-86761962D01*
X150134962Y-86576013D01*
X150195775Y-86485000D01*
X157950678Y-86485000D01*
X157988000Y-86488676D01*
X158025322Y-86485000D01*
X158025333Y-86485000D01*
X158136986Y-86474003D01*
X158280247Y-86430546D01*
X158412276Y-86359974D01*
X158528001Y-86265001D01*
X158551804Y-86235997D01*
X159769004Y-85018798D01*
X159798001Y-84995001D01*
X159892974Y-84879276D01*
X159963546Y-84747247D01*
X160007003Y-84603986D01*
X160018000Y-84492333D01*
X160018000Y-84492324D01*
X160021676Y-84455001D01*
X160018000Y-84417678D01*
X160018000Y-82698744D01*
X160085111Y-82743586D01*
X160255271Y-82814068D01*
X160376351Y-82838153D01*
X161038000Y-83499802D01*
X161038001Y-92037668D01*
X161034324Y-92075000D01*
X161048998Y-92223985D01*
X161092454Y-92367246D01*
X161163026Y-92499276D01*
X161221509Y-92570537D01*
X161258000Y-92615001D01*
X161286998Y-92638799D01*
X162504200Y-93856002D01*
X162527999Y-93885001D01*
X162643724Y-93979974D01*
X162775753Y-94050546D01*
X162872719Y-94079960D01*
X162889082Y-94119463D01*
X163068013Y-94387252D01*
X163295748Y-94614987D01*
X163563537Y-94793918D01*
X163861088Y-94917168D01*
X164176967Y-94980000D01*
X164499033Y-94980000D01*
X164814912Y-94917168D01*
X165112463Y-94793918D01*
X165380252Y-94614987D01*
X165607987Y-94387252D01*
X165786918Y-94119463D01*
X165792909Y-94105000D01*
X170503091Y-94105000D01*
X170509082Y-94119463D01*
X170688013Y-94387252D01*
X170915748Y-94614987D01*
X171183537Y-94793918D01*
X171481088Y-94917168D01*
X171796967Y-94980000D01*
X172119033Y-94980000D01*
X172434912Y-94917168D01*
X172732463Y-94793918D01*
X173000252Y-94614987D01*
X173227987Y-94387252D01*
X173406918Y-94119463D01*
X173530168Y-93821912D01*
X173593000Y-93506033D01*
X173593000Y-93183967D01*
X173530168Y-92868088D01*
X173406918Y-92570537D01*
X173227987Y-92302748D01*
X173000252Y-92075013D01*
X172732463Y-91896082D01*
X172434912Y-91772832D01*
X172119033Y-91710000D01*
X171796967Y-91710000D01*
X171481088Y-91772832D01*
X171183537Y-91896082D01*
X170915748Y-92075013D01*
X170688013Y-92302748D01*
X170509082Y-92570537D01*
X170503091Y-92585000D01*
X165792909Y-92585000D01*
X165786918Y-92570537D01*
X165607987Y-92302748D01*
X165380252Y-92075013D01*
X165112463Y-91896082D01*
X164814912Y-91772832D01*
X164499033Y-91710000D01*
X164176967Y-91710000D01*
X163861088Y-91772832D01*
X163563537Y-91896082D01*
X163295748Y-92075013D01*
X163084281Y-92286480D01*
X162558000Y-91760199D01*
X162558000Y-88103967D01*
X162703000Y-88103967D01*
X162703000Y-88426033D01*
X162765832Y-88741912D01*
X162889082Y-89039463D01*
X163068013Y-89307252D01*
X163295748Y-89534987D01*
X163563537Y-89713918D01*
X163861088Y-89837168D01*
X164176967Y-89900000D01*
X164499033Y-89900000D01*
X164814912Y-89837168D01*
X165112463Y-89713918D01*
X165380252Y-89534987D01*
X165607987Y-89307252D01*
X165786918Y-89039463D01*
X165910168Y-88741912D01*
X165973000Y-88426033D01*
X165973000Y-88103967D01*
X170323000Y-88103967D01*
X170323000Y-88426033D01*
X170385832Y-88741912D01*
X170509082Y-89039463D01*
X170688013Y-89307252D01*
X170915748Y-89534987D01*
X171183537Y-89713918D01*
X171481088Y-89837168D01*
X171796967Y-89900000D01*
X172119033Y-89900000D01*
X172434912Y-89837168D01*
X172732463Y-89713918D01*
X173000252Y-89534987D01*
X173227987Y-89307252D01*
X173406918Y-89039463D01*
X173530168Y-88741912D01*
X173593000Y-88426033D01*
X173593000Y-88103967D01*
X173530168Y-87788088D01*
X173406918Y-87490537D01*
X173227987Y-87222748D01*
X173000252Y-86995013D01*
X172732463Y-86816082D01*
X172434912Y-86692832D01*
X172119033Y-86630000D01*
X171796967Y-86630000D01*
X171481088Y-86692832D01*
X171183537Y-86816082D01*
X170915748Y-86995013D01*
X170688013Y-87222748D01*
X170509082Y-87490537D01*
X170385832Y-87788088D01*
X170323000Y-88103967D01*
X165973000Y-88103967D01*
X165910168Y-87788088D01*
X165786918Y-87490537D01*
X165607987Y-87222748D01*
X165380252Y-86995013D01*
X165112463Y-86816082D01*
X164814912Y-86692832D01*
X164499033Y-86630000D01*
X164176967Y-86630000D01*
X163861088Y-86692832D01*
X163563537Y-86816082D01*
X163295748Y-86995013D01*
X163068013Y-87222748D01*
X162889082Y-87490537D01*
X162765832Y-87788088D01*
X162703000Y-88103967D01*
X162558000Y-88103967D01*
X162558000Y-83222322D01*
X162561676Y-83184999D01*
X162558000Y-83147676D01*
X162558000Y-83147667D01*
X162547003Y-83036014D01*
X162503546Y-82892753D01*
X162432974Y-82760724D01*
X162338001Y-82644999D01*
X162309003Y-82621201D01*
X161451153Y-81763351D01*
X161427068Y-81642271D01*
X161356586Y-81472111D01*
X161311744Y-81405000D01*
X162753199Y-81405000D01*
X163279480Y-81931281D01*
X163068013Y-82142748D01*
X162889082Y-82410537D01*
X162765832Y-82708088D01*
X162703000Y-83023967D01*
X162703000Y-83346033D01*
X162765832Y-83661912D01*
X162889082Y-83959463D01*
X163068013Y-84227252D01*
X163295748Y-84454987D01*
X163563537Y-84633918D01*
X163861088Y-84757168D01*
X164176967Y-84820000D01*
X164499033Y-84820000D01*
X164814912Y-84757168D01*
X165112463Y-84633918D01*
X165380252Y-84454987D01*
X165607987Y-84227252D01*
X165786918Y-83959463D01*
X165792909Y-83945000D01*
X170503091Y-83945000D01*
X170509082Y-83959463D01*
X170688013Y-84227252D01*
X170915748Y-84454987D01*
X171183537Y-84633918D01*
X171481088Y-84757168D01*
X171796967Y-84820000D01*
X172119033Y-84820000D01*
X172434912Y-84757168D01*
X172732463Y-84633918D01*
X173000252Y-84454987D01*
X173227987Y-84227252D01*
X173406918Y-83959463D01*
X173530168Y-83661912D01*
X173593000Y-83346033D01*
X173593000Y-83023967D01*
X173530168Y-82708088D01*
X173406918Y-82410537D01*
X173227987Y-82142748D01*
X173000252Y-81915013D01*
X172732463Y-81736082D01*
X172434912Y-81612832D01*
X172119033Y-81550000D01*
X171796967Y-81550000D01*
X171481088Y-81612832D01*
X171183537Y-81736082D01*
X170915748Y-81915013D01*
X170688013Y-82142748D01*
X170509082Y-82410537D01*
X170503091Y-82425000D01*
X165792909Y-82425000D01*
X165786918Y-82410537D01*
X165607987Y-82142748D01*
X165380252Y-81915013D01*
X165112463Y-81736082D01*
X165072960Y-81719719D01*
X165043546Y-81622753D01*
X164972974Y-81490724D01*
X164878001Y-81374999D01*
X164849003Y-81351201D01*
X163631804Y-80134003D01*
X163608001Y-80104999D01*
X163492276Y-80010026D01*
X163360247Y-79939454D01*
X163216986Y-79895997D01*
X163105333Y-79885000D01*
X163105322Y-79885000D01*
X163068000Y-79881324D01*
X163030678Y-79885000D01*
X161073535Y-79885000D01*
X160970889Y-79816414D01*
X160800729Y-79745932D01*
X160620089Y-79710000D01*
X160435911Y-79710000D01*
X160255271Y-79745932D01*
X160085111Y-79816414D01*
X160018000Y-79861256D01*
X160018000Y-77010416D01*
X160094606Y-76969469D01*
X160322797Y-76782197D01*
X160510069Y-76554006D01*
X160528000Y-76520459D01*
X160545931Y-76554006D01*
X160733203Y-76782197D01*
X160961395Y-76969469D01*
X161221737Y-77108625D01*
X161504224Y-77194316D01*
X161798000Y-77223251D01*
X162091777Y-77194316D01*
X162374264Y-77108625D01*
X162634606Y-76969469D01*
X162862797Y-76782197D01*
X163050069Y-76554006D01*
X163068000Y-76520459D01*
X163085931Y-76554006D01*
X163273203Y-76782197D01*
X163501395Y-76969469D01*
X163761737Y-77108625D01*
X164044224Y-77194316D01*
X164338000Y-77223251D01*
X164631777Y-77194316D01*
X164914264Y-77108625D01*
X165174606Y-76969469D01*
X165402797Y-76782197D01*
X165590069Y-76554006D01*
X165608000Y-76520459D01*
X165625931Y-76554006D01*
X165813203Y-76782197D01*
X166041395Y-76969469D01*
X166301737Y-77108625D01*
X166584224Y-77194316D01*
X166878000Y-77223251D01*
X167171777Y-77194316D01*
X167454264Y-77108625D01*
X167714606Y-76969469D01*
X167942797Y-76782197D01*
X168130069Y-76554006D01*
X168148000Y-76520459D01*
X168165931Y-76554006D01*
X168353203Y-76782197D01*
X168581395Y-76969469D01*
X168841737Y-77108625D01*
X169124224Y-77194316D01*
X169418000Y-77223251D01*
X169711777Y-77194316D01*
X169994264Y-77108625D01*
X170254606Y-76969469D01*
X170482797Y-76782197D01*
X170670069Y-76554006D01*
X170688000Y-76520459D01*
X170705931Y-76554006D01*
X170893203Y-76782197D01*
X171121395Y-76969469D01*
X171381737Y-77108625D01*
X171664224Y-77194316D01*
X171958000Y-77223251D01*
X172251777Y-77194316D01*
X172534264Y-77108625D01*
X172794606Y-76969469D01*
X173022797Y-76782197D01*
X173210069Y-76554006D01*
X173228000Y-76520459D01*
X173245931Y-76554006D01*
X173433203Y-76782197D01*
X173661395Y-76969469D01*
X173921737Y-77108625D01*
X174204224Y-77194316D01*
X174498000Y-77223251D01*
X174791777Y-77194316D01*
X175074264Y-77108625D01*
X175334606Y-76969469D01*
X175562797Y-76782197D01*
X175750069Y-76554006D01*
X175889225Y-76293663D01*
X175974916Y-76011176D01*
X175996600Y-75791018D01*
X175996600Y-75338981D01*
X175974916Y-75118823D01*
X175889225Y-74836336D01*
X175750069Y-74575994D01*
X175562797Y-74347803D01*
X175334605Y-74160531D01*
X175074263Y-74021375D01*
X174791776Y-73935684D01*
X174498000Y-73906749D01*
X174204223Y-73935684D01*
X173921736Y-74021375D01*
X173661394Y-74160531D01*
X173433203Y-74347803D01*
X173245931Y-74575995D01*
X173228000Y-74609541D01*
X173210069Y-74575994D01*
X173022797Y-74347803D01*
X172794605Y-74160531D01*
X172534263Y-74021375D01*
X172251776Y-73935684D01*
X171958000Y-73906749D01*
X171664223Y-73935684D01*
X171381736Y-74021375D01*
X171121394Y-74160531D01*
X170893203Y-74347803D01*
X170705931Y-74575995D01*
X170688000Y-74609541D01*
X170670069Y-74575994D01*
X170482797Y-74347803D01*
X170254605Y-74160531D01*
X169994263Y-74021375D01*
X169711776Y-73935684D01*
X169418000Y-73906749D01*
X169124223Y-73935684D01*
X168841736Y-74021375D01*
X168581394Y-74160531D01*
X168353203Y-74347803D01*
X168165931Y-74575995D01*
X168148000Y-74609541D01*
X168130069Y-74575994D01*
X167942797Y-74347803D01*
X167714605Y-74160531D01*
X167454263Y-74021375D01*
X167171776Y-73935684D01*
X166878000Y-73906749D01*
X166584223Y-73935684D01*
X166301736Y-74021375D01*
X166041394Y-74160531D01*
X165813203Y-74347803D01*
X165625931Y-74575995D01*
X165608000Y-74609541D01*
X165590069Y-74575994D01*
X165402797Y-74347803D01*
X165174605Y-74160531D01*
X164914263Y-74021375D01*
X164631776Y-73935684D01*
X164338000Y-73906749D01*
X164044223Y-73935684D01*
X163761736Y-74021375D01*
X163501394Y-74160531D01*
X163273203Y-74347803D01*
X163085931Y-74575995D01*
X163068000Y-74609541D01*
X163050069Y-74575994D01*
X162862797Y-74347803D01*
X162634605Y-74160531D01*
X162374263Y-74021375D01*
X162091776Y-73935684D01*
X161798000Y-73906749D01*
X161504223Y-73935684D01*
X161221736Y-74021375D01*
X160961394Y-74160531D01*
X160733203Y-74347803D01*
X160545931Y-74575995D01*
X160528000Y-74609541D01*
X160510069Y-74575994D01*
X160322797Y-74347803D01*
X160094605Y-74160531D01*
X159834263Y-74021375D01*
X159551776Y-73935684D01*
X159258000Y-73906749D01*
X158964223Y-73935684D01*
X158681736Y-74021375D01*
X158421394Y-74160531D01*
X158193203Y-74347803D01*
X158005931Y-74575995D01*
X157988000Y-74609541D01*
X157970069Y-74575994D01*
X157782797Y-74347803D01*
X157554605Y-74160531D01*
X157294263Y-74021375D01*
X157011776Y-73935684D01*
X156718000Y-73906749D01*
X156424223Y-73935684D01*
X156141736Y-74021375D01*
X155881394Y-74160531D01*
X155653203Y-74347803D01*
X155465931Y-74575995D01*
X155326775Y-74836337D01*
X155241084Y-75118824D01*
X155219400Y-75338982D01*
X155219400Y-75791019D01*
X155241084Y-76011177D01*
X155326775Y-76293664D01*
X155465931Y-76554006D01*
X155653203Y-76782197D01*
X155881395Y-76969469D01*
X155958001Y-77010416D01*
X155958000Y-82870198D01*
X155133199Y-83695000D01*
X152202801Y-83695000D01*
X153059649Y-82838153D01*
X153180729Y-82814068D01*
X153350889Y-82743586D01*
X153504028Y-82641262D01*
X153634262Y-82511028D01*
X153736586Y-82357889D01*
X153807068Y-82187729D01*
X153843000Y-82007089D01*
X153843000Y-81822911D01*
X153807068Y-81642271D01*
X153736586Y-81472111D01*
X153668000Y-81369465D01*
X153668000Y-76823885D01*
X153718797Y-76782197D01*
X153906069Y-76554006D01*
X154045225Y-76293663D01*
X154130916Y-76011176D01*
X154152600Y-75791018D01*
X154152600Y-75338981D01*
X154130916Y-75118823D01*
X154045225Y-74836336D01*
X153906069Y-74575994D01*
X153718797Y-74347803D01*
X153490605Y-74160531D01*
X153230263Y-74021375D01*
X152947776Y-73935684D01*
X152654000Y-73906749D01*
X152360223Y-73935684D01*
X152077736Y-74021375D01*
X151817394Y-74160531D01*
X151589203Y-74347803D01*
X151401931Y-74575995D01*
X151384000Y-74609541D01*
X151366069Y-74575994D01*
X151178797Y-74347803D01*
X150950605Y-74160531D01*
X150690263Y-74021375D01*
X150407776Y-73935684D01*
X150114000Y-73906749D01*
X149820223Y-73935684D01*
X149537736Y-74021375D01*
X149277394Y-74160531D01*
X149049203Y-74347803D01*
X148861931Y-74575995D01*
X148844000Y-74609541D01*
X148826069Y-74575994D01*
X148638797Y-74347803D01*
X148410605Y-74160531D01*
X148150263Y-74021375D01*
X147867776Y-73935684D01*
X147574000Y-73906749D01*
X147280223Y-73935684D01*
X146997736Y-74021375D01*
X146737394Y-74160531D01*
X146509203Y-74347803D01*
X146321931Y-74575995D01*
X146304000Y-74609541D01*
X146286069Y-74575994D01*
X146098797Y-74347803D01*
X145870605Y-74160531D01*
X145610263Y-74021375D01*
X145327776Y-73935684D01*
X145034000Y-73906749D01*
X144740223Y-73935684D01*
X144457736Y-74021375D01*
X144197394Y-74160531D01*
X143969203Y-74347803D01*
X143781931Y-74575995D01*
X143764000Y-74609541D01*
X143746069Y-74575994D01*
X143558797Y-74347803D01*
X143330605Y-74160531D01*
X143070263Y-74021375D01*
X142787776Y-73935684D01*
X142494000Y-73906749D01*
X142200223Y-73935684D01*
X141917736Y-74021375D01*
X141657394Y-74160531D01*
X141429203Y-74347803D01*
X141241931Y-74575995D01*
X141224000Y-74609541D01*
X141206069Y-74575994D01*
X141018797Y-74347803D01*
X140790605Y-74160531D01*
X140530263Y-74021375D01*
X140247776Y-73935684D01*
X139954000Y-73906749D01*
X139660223Y-73935684D01*
X139377736Y-74021375D01*
X139117394Y-74160531D01*
X138889203Y-74347803D01*
X138701931Y-74575995D01*
X138680576Y-74615947D01*
X138532486Y-74413271D01*
X138316035Y-74214267D01*
X138064919Y-74061314D01*
X137788789Y-73960291D01*
X137773026Y-73957642D01*
X137541000Y-74078783D01*
X137541000Y-75438000D01*
X137561000Y-75438000D01*
X137561000Y-75692000D01*
X137541000Y-75692000D01*
X137541000Y-77051217D01*
X137773026Y-77172358D01*
X137788789Y-77169709D01*
X138064919Y-77068686D01*
X138316035Y-76915733D01*
X138532486Y-76716729D01*
X138680576Y-76514053D01*
X138701931Y-76554006D01*
X138889203Y-76782197D01*
X139117395Y-76969469D01*
X139377737Y-77108625D01*
X139660224Y-77194316D01*
X139954000Y-77223251D01*
X140247777Y-77194316D01*
X140530264Y-77108625D01*
X140790606Y-76969469D01*
X141018797Y-76782197D01*
X141206069Y-76554006D01*
X141224000Y-76520459D01*
X141241931Y-76554006D01*
X141429203Y-76782197D01*
X141657395Y-76969469D01*
X141917737Y-77108625D01*
X142200224Y-77194316D01*
X142494000Y-77223251D01*
X142787777Y-77194316D01*
X143070264Y-77108625D01*
X143330606Y-76969469D01*
X143558797Y-76782197D01*
X143746069Y-76554006D01*
X143764000Y-76520459D01*
X143781931Y-76554006D01*
X143969203Y-76782197D01*
X144197395Y-76969469D01*
X144457737Y-77108625D01*
X144528000Y-77129939D01*
X144528000Y-77790198D01*
X143703199Y-78615000D01*
X141515322Y-78615000D01*
X141477999Y-78611324D01*
X141440676Y-78615000D01*
X141440667Y-78615000D01*
X141329014Y-78625997D01*
X141185753Y-78669454D01*
X141053724Y-78740026D01*
X141053722Y-78740027D01*
X141053723Y-78740027D01*
X140966996Y-78811201D01*
X140966992Y-78811205D01*
X140937999Y-78834999D01*
X140914205Y-78863992D01*
X138426998Y-81351201D01*
X138398000Y-81374999D01*
X138374202Y-81403997D01*
X138374201Y-81403998D01*
X138303026Y-81490724D01*
X138232454Y-81622754D01*
X138230560Y-81628999D01*
X138188999Y-81766013D01*
X138188998Y-81766015D01*
X138174324Y-81915000D01*
X138178001Y-81952332D01*
X138178000Y-86680198D01*
X137353199Y-87505000D01*
X132475909Y-87505000D01*
X132393799Y-87382114D01*
X132200886Y-87189201D01*
X131974043Y-87037629D01*
X131721989Y-86933225D01*
X131454411Y-86880000D01*
X131181589Y-86880000D01*
X130914011Y-86933225D01*
X130661957Y-87037629D01*
X130435114Y-87189201D01*
X130242201Y-87382114D01*
X130090629Y-87608957D01*
X129986225Y-87861011D01*
X129933000Y-88128589D01*
X129933000Y-88401411D01*
X129986225Y-88668989D01*
X130090629Y-88921043D01*
X130242201Y-89147886D01*
X130435114Y-89340799D01*
X130661957Y-89492371D01*
X130764873Y-89535000D01*
X130661957Y-89577629D01*
X130435114Y-89729201D01*
X130242201Y-89922114D01*
X130090629Y-90148957D01*
X129986225Y-90401011D01*
X129933000Y-90668589D01*
X129933000Y-90941411D01*
X129986225Y-91208989D01*
X130090629Y-91461043D01*
X130242201Y-91687886D01*
X130435114Y-91880799D01*
X130551483Y-91958555D01*
X130443518Y-91969188D01*
X130323820Y-92005498D01*
X130213506Y-92064463D01*
X130116815Y-92143815D01*
X130037463Y-92240506D01*
X129978498Y-92350820D01*
X129942188Y-92470518D01*
X129929928Y-92595000D01*
X129929928Y-94095000D01*
X129942188Y-94219482D01*
X129978498Y-94339180D01*
X130037463Y-94449494D01*
X130116815Y-94546185D01*
X130213506Y-94625537D01*
X130323820Y-94684502D01*
X130443518Y-94720812D01*
X130568000Y-94733072D01*
X132068000Y-94733072D01*
X132192482Y-94720812D01*
X132312180Y-94684502D01*
X132422494Y-94625537D01*
X132519185Y-94546185D01*
X132598537Y-94449494D01*
X132657502Y-94339180D01*
X132693812Y-94219482D01*
X132705087Y-94105000D01*
X139893199Y-94105000D01*
X140834206Y-95046008D01*
X140858000Y-95075001D01*
X140886993Y-95098795D01*
X140966997Y-95178799D01*
X140967002Y-95178803D01*
X142184201Y-96396003D01*
X142207999Y-96425001D01*
X142323724Y-96519974D01*
X142455753Y-96590546D01*
X142599014Y-96634003D01*
X142710667Y-96645000D01*
X142710676Y-96645000D01*
X142747999Y-96648676D01*
X142785322Y-96645000D01*
X142920225Y-96645000D01*
X142981038Y-96736013D01*
X143166987Y-96921962D01*
X143385641Y-97068061D01*
X143628595Y-97168696D01*
X143886514Y-97220000D01*
X144148198Y-97220000D01*
X143703199Y-97665000D01*
X136435322Y-97665000D01*
X136397999Y-97661324D01*
X136360676Y-97665000D01*
X136360667Y-97665000D01*
X136249014Y-97675997D01*
X136105753Y-97719454D01*
X135973724Y-97790026D01*
X135973722Y-97790027D01*
X135973723Y-97790027D01*
X135886996Y-97861201D01*
X135886992Y-97861205D01*
X135857999Y-97884999D01*
X135834205Y-97913992D01*
X135193000Y-98555198D01*
X135193000Y-98293514D01*
X135141696Y-98035595D01*
X135041061Y-97792641D01*
X134894962Y-97573987D01*
X134709013Y-97388038D01*
X134490359Y-97241939D01*
X134247405Y-97141304D01*
X133989486Y-97090000D01*
X133726514Y-97090000D01*
X133468595Y-97141304D01*
X133225641Y-97241939D01*
X133006987Y-97388038D01*
X132905025Y-97490000D01*
X127399247Y-97490000D01*
X127391475Y-97478368D01*
X127184632Y-97271525D01*
X127010240Y-97155000D01*
X127184632Y-97038475D01*
X127391475Y-96831632D01*
X127553990Y-96588411D01*
X127665932Y-96318158D01*
X127723000Y-96031260D01*
X127723000Y-95753514D01*
X135063000Y-95753514D01*
X135063000Y-96016486D01*
X135114304Y-96274405D01*
X135214939Y-96517359D01*
X135361038Y-96736013D01*
X135546987Y-96921962D01*
X135765641Y-97068061D01*
X136008595Y-97168696D01*
X136266514Y-97220000D01*
X136529486Y-97220000D01*
X136787405Y-97168696D01*
X137030359Y-97068061D01*
X137249013Y-96921962D01*
X137434962Y-96736013D01*
X137581061Y-96517359D01*
X137681696Y-96274405D01*
X137733000Y-96016486D01*
X137733000Y-95753514D01*
X137681696Y-95495595D01*
X137581061Y-95252641D01*
X137434962Y-95033987D01*
X137249013Y-94848038D01*
X137030359Y-94701939D01*
X136787405Y-94601304D01*
X136529486Y-94550000D01*
X136266514Y-94550000D01*
X136008595Y-94601304D01*
X135765641Y-94701939D01*
X135546987Y-94848038D01*
X135361038Y-95033987D01*
X135214939Y-95252641D01*
X135114304Y-95495595D01*
X135063000Y-95753514D01*
X127723000Y-95753514D01*
X127723000Y-95738740D01*
X127665932Y-95451842D01*
X127553990Y-95181589D01*
X127391475Y-94938368D01*
X127184632Y-94731525D01*
X126941411Y-94569010D01*
X126671158Y-94457068D01*
X126384260Y-94400000D01*
X126091740Y-94400000D01*
X125804842Y-94457068D01*
X125534589Y-94569010D01*
X125291368Y-94731525D01*
X125084525Y-94938368D01*
X124968000Y-95112760D01*
X124851475Y-94938368D01*
X124644632Y-94731525D01*
X124401411Y-94569010D01*
X124131158Y-94457068D01*
X123844260Y-94400000D01*
X123551740Y-94400000D01*
X123264842Y-94457068D01*
X122994589Y-94569010D01*
X122751368Y-94731525D01*
X122544525Y-94938368D01*
X122382010Y-95181589D01*
X122270068Y-95451842D01*
X122213000Y-95738740D01*
X111708000Y-95738740D01*
X111708000Y-86081890D01*
X122256524Y-86081890D01*
X122301175Y-86229099D01*
X122426359Y-86491920D01*
X122600412Y-86725269D01*
X122816645Y-86920178D01*
X123066748Y-87069157D01*
X123341109Y-87166481D01*
X123571000Y-87045814D01*
X123571000Y-85852000D01*
X123825000Y-85852000D01*
X123825000Y-87045814D01*
X124054891Y-87166481D01*
X124329252Y-87069157D01*
X124579355Y-86920178D01*
X124775502Y-86743374D01*
X124798498Y-86819180D01*
X124857463Y-86929494D01*
X124936815Y-87026185D01*
X125033506Y-87105537D01*
X125143820Y-87164502D01*
X125263518Y-87200812D01*
X125388000Y-87213072D01*
X125952250Y-87210000D01*
X126111000Y-87051250D01*
X126111000Y-85852000D01*
X126365000Y-85852000D01*
X126365000Y-87051250D01*
X126523750Y-87210000D01*
X127088000Y-87213072D01*
X127212482Y-87200812D01*
X127332180Y-87164502D01*
X127442494Y-87105537D01*
X127539185Y-87026185D01*
X127618537Y-86929494D01*
X127677502Y-86819180D01*
X127713812Y-86699482D01*
X127726072Y-86575000D01*
X127723260Y-86058329D01*
X135105284Y-86058329D01*
X135137953Y-86166044D01*
X135248208Y-86403392D01*
X135402649Y-86614670D01*
X135595340Y-86791759D01*
X135818877Y-86927853D01*
X136064670Y-87017722D01*
X136271000Y-86895201D01*
X136271000Y-85852000D01*
X136525000Y-85852000D01*
X136525000Y-86895201D01*
X136731330Y-87017722D01*
X136977123Y-86927853D01*
X137200660Y-86791759D01*
X137393351Y-86614670D01*
X137547792Y-86403392D01*
X137658047Y-86166044D01*
X137690716Y-86058329D01*
X137567374Y-85852000D01*
X136525000Y-85852000D01*
X136271000Y-85852000D01*
X135228626Y-85852000D01*
X135105284Y-86058329D01*
X127723260Y-86058329D01*
X127723000Y-86010750D01*
X127564250Y-85852000D01*
X126365000Y-85852000D01*
X126111000Y-85852000D01*
X123825000Y-85852000D01*
X123571000Y-85852000D01*
X122377845Y-85852000D01*
X122256524Y-86081890D01*
X111708000Y-86081890D01*
X111708000Y-75722958D01*
X111777960Y-75588566D01*
X112006371Y-75230032D01*
X112265161Y-74892770D01*
X112552354Y-74579354D01*
X112865770Y-74292161D01*
X113203032Y-74033371D01*
X113561566Y-73804960D01*
X113695958Y-73735000D01*
X124296293Y-73735000D01*
X124166406Y-73864887D01*
%TD*%
M02*
