%TF.GenerationSoftware,KiCad,Pcbnew,(5.1.6)-1*%
%TF.CreationDate,2020-05-24T17:59:59+09:00*%
%TF.ProjectId,BeadsEe,42656164-7345-4652-9e6b-696361645f70,Rev.1.0*%
%TF.SameCoordinates,Original*%
%TF.FileFunction,Legend,Top*%
%TF.FilePolarity,Positive*%
%FSLAX46Y46*%
G04 Gerber Fmt 4.6, Leading zero omitted, Abs format (unit mm)*
G04 Created by KiCad (PCBNEW (5.1.6)-1) date 2020-05-24 17:59:59*
%MOMM*%
%LPD*%
G01*
G04 APERTURE LIST*
%ADD10C,0.150000*%
%ADD11C,0.200000*%
%ADD12C,0.300000*%
%ADD13C,0.120000*%
%ADD14C,0.010000*%
G04 APERTURE END LIST*
D10*
X144153000Y-106806904D02*
X144105380Y-106902142D01*
X144105380Y-107045000D01*
X144153000Y-107187857D01*
X144248238Y-107283095D01*
X144343476Y-107330714D01*
X144533952Y-107378333D01*
X144676809Y-107378333D01*
X144867285Y-107330714D01*
X144962523Y-107283095D01*
X145057761Y-107187857D01*
X145105380Y-107045000D01*
X145105380Y-106949761D01*
X145057761Y-106806904D01*
X145010142Y-106759285D01*
X144676809Y-106759285D01*
X144676809Y-106949761D01*
X145105380Y-106330714D02*
X144105380Y-106330714D01*
X145105380Y-105759285D01*
X144105380Y-105759285D01*
X145105380Y-105283095D02*
X144105380Y-105283095D01*
X144105380Y-105045000D01*
X144153000Y-104902142D01*
X144248238Y-104806904D01*
X144343476Y-104759285D01*
X144533952Y-104711666D01*
X144676809Y-104711666D01*
X144867285Y-104759285D01*
X144962523Y-104806904D01*
X145057761Y-104902142D01*
X145105380Y-105045000D01*
X145105380Y-105283095D01*
X144105380Y-110886904D02*
X144105380Y-111363095D01*
X144581571Y-111410714D01*
X144533952Y-111363095D01*
X144486333Y-111267857D01*
X144486333Y-111029761D01*
X144533952Y-110934523D01*
X144581571Y-110886904D01*
X144676809Y-110839285D01*
X144914904Y-110839285D01*
X145010142Y-110886904D01*
X145057761Y-110934523D01*
X145105380Y-111029761D01*
X145105380Y-111267857D01*
X145057761Y-111363095D01*
X145010142Y-111410714D01*
X144105380Y-117252619D02*
X144105380Y-116633571D01*
X144486333Y-116966904D01*
X144486333Y-116824047D01*
X144533952Y-116728809D01*
X144581571Y-116681190D01*
X144676809Y-116633571D01*
X144914904Y-116633571D01*
X145010142Y-116681190D01*
X145057761Y-116728809D01*
X145105380Y-116824047D01*
X145105380Y-117109761D01*
X145057761Y-117205000D01*
X145010142Y-117252619D01*
X145010142Y-116205000D02*
X145057761Y-116157380D01*
X145105380Y-116205000D01*
X145057761Y-116252619D01*
X145010142Y-116205000D01*
X145105380Y-116205000D01*
X144105380Y-115824047D02*
X144105380Y-115205000D01*
X144486333Y-115538333D01*
X144486333Y-115395476D01*
X144533952Y-115300238D01*
X144581571Y-115252619D01*
X144676809Y-115205000D01*
X144914904Y-115205000D01*
X145010142Y-115252619D01*
X145057761Y-115300238D01*
X145105380Y-115395476D01*
X145105380Y-115681190D01*
X145057761Y-115776428D01*
X145010142Y-115824047D01*
D11*
X127866571Y-81670714D02*
X128038000Y-81727857D01*
X128323714Y-81727857D01*
X128438000Y-81670714D01*
X128495142Y-81613571D01*
X128552285Y-81499285D01*
X128552285Y-81385000D01*
X128495142Y-81270714D01*
X128438000Y-81213571D01*
X128323714Y-81156428D01*
X128095142Y-81099285D01*
X127980857Y-81042142D01*
X127923714Y-80985000D01*
X127866571Y-80870714D01*
X127866571Y-80756428D01*
X127923714Y-80642142D01*
X127980857Y-80585000D01*
X128095142Y-80527857D01*
X128380857Y-80527857D01*
X128552285Y-80585000D01*
X129066571Y-81727857D02*
X129066571Y-80527857D01*
X129352285Y-80527857D01*
X129523714Y-80585000D01*
X129638000Y-80699285D01*
X129695142Y-80813571D01*
X129752285Y-81042142D01*
X129752285Y-81213571D01*
X129695142Y-81442142D01*
X129638000Y-81556428D01*
X129523714Y-81670714D01*
X129352285Y-81727857D01*
X129066571Y-81727857D01*
X127866571Y-83670714D02*
X128038000Y-83727857D01*
X128323714Y-83727857D01*
X128438000Y-83670714D01*
X128495142Y-83613571D01*
X128552285Y-83499285D01*
X128552285Y-83385000D01*
X128495142Y-83270714D01*
X128438000Y-83213571D01*
X128323714Y-83156428D01*
X128095142Y-83099285D01*
X127980857Y-83042142D01*
X127923714Y-82985000D01*
X127866571Y-82870714D01*
X127866571Y-82756428D01*
X127923714Y-82642142D01*
X127980857Y-82585000D01*
X128095142Y-82527857D01*
X128380857Y-82527857D01*
X128552285Y-82585000D01*
X129752285Y-83613571D02*
X129695142Y-83670714D01*
X129523714Y-83727857D01*
X129409428Y-83727857D01*
X129238000Y-83670714D01*
X129123714Y-83556428D01*
X129066571Y-83442142D01*
X129009428Y-83213571D01*
X129009428Y-83042142D01*
X129066571Y-82813571D01*
X129123714Y-82699285D01*
X129238000Y-82585000D01*
X129409428Y-82527857D01*
X129523714Y-82527857D01*
X129695142Y-82585000D01*
X129752285Y-82642142D01*
X128552285Y-84585000D02*
X128438000Y-84527857D01*
X128266571Y-84527857D01*
X128095142Y-84585000D01*
X127980857Y-84699285D01*
X127923714Y-84813571D01*
X127866571Y-85042142D01*
X127866571Y-85213571D01*
X127923714Y-85442142D01*
X127980857Y-85556428D01*
X128095142Y-85670714D01*
X128266571Y-85727857D01*
X128380857Y-85727857D01*
X128552285Y-85670714D01*
X128609428Y-85613571D01*
X128609428Y-85213571D01*
X128380857Y-85213571D01*
X127866571Y-96910714D02*
X128038000Y-96967857D01*
X128323714Y-96967857D01*
X128438000Y-96910714D01*
X128495142Y-96853571D01*
X128552285Y-96739285D01*
X128552285Y-96625000D01*
X128495142Y-96510714D01*
X128438000Y-96453571D01*
X128323714Y-96396428D01*
X128095142Y-96339285D01*
X127980857Y-96282142D01*
X127923714Y-96225000D01*
X127866571Y-96110714D01*
X127866571Y-95996428D01*
X127923714Y-95882142D01*
X127980857Y-95825000D01*
X128095142Y-95767857D01*
X128380857Y-95767857D01*
X128552285Y-95825000D01*
X127923714Y-98510714D02*
X128838000Y-98510714D01*
X128380857Y-98967857D02*
X128380857Y-98053571D01*
X128552285Y-99825000D02*
X128438000Y-99767857D01*
X128266571Y-99767857D01*
X128095142Y-99825000D01*
X127980857Y-99939285D01*
X127923714Y-100053571D01*
X127866571Y-100282142D01*
X127866571Y-100453571D01*
X127923714Y-100682142D01*
X127980857Y-100796428D01*
X128095142Y-100910714D01*
X128266571Y-100967857D01*
X128380857Y-100967857D01*
X128552285Y-100910714D01*
X128609428Y-100853571D01*
X128609428Y-100453571D01*
X128380857Y-100453571D01*
X113953714Y-92687857D02*
X113953714Y-93659285D01*
X114010857Y-93773571D01*
X114068000Y-93830714D01*
X114182285Y-93887857D01*
X114410857Y-93887857D01*
X114525142Y-93830714D01*
X114582285Y-93773571D01*
X114639428Y-93659285D01*
X114639428Y-92687857D01*
X115210857Y-93087857D02*
X115210857Y-94287857D01*
X115210857Y-93145000D02*
X115325142Y-93087857D01*
X115553714Y-93087857D01*
X115668000Y-93145000D01*
X115725142Y-93202142D01*
X115782285Y-93316428D01*
X115782285Y-93659285D01*
X115725142Y-93773571D01*
X115668000Y-93830714D01*
X115553714Y-93887857D01*
X115325142Y-93887857D01*
X115210857Y-93830714D01*
X116296571Y-93773571D02*
X116353714Y-93830714D01*
X116296571Y-93887857D01*
X116239428Y-93830714D01*
X116296571Y-93773571D01*
X116296571Y-93887857D01*
X116296571Y-93145000D02*
X116353714Y-93202142D01*
X116296571Y-93259285D01*
X116239428Y-93202142D01*
X116296571Y-93145000D01*
X116296571Y-93259285D01*
X116753714Y-92687857D02*
X117553714Y-92687857D01*
X116753714Y-93887857D01*
X117553714Y-93887857D01*
X119496571Y-93887857D02*
X118925142Y-93887857D01*
X118925142Y-92687857D01*
X120068000Y-93887857D02*
X119953714Y-93830714D01*
X119896571Y-93773571D01*
X119839428Y-93659285D01*
X119839428Y-93316428D01*
X119896571Y-93202142D01*
X119953714Y-93145000D01*
X120068000Y-93087857D01*
X120239428Y-93087857D01*
X120353714Y-93145000D01*
X120410857Y-93202142D01*
X120468000Y-93316428D01*
X120468000Y-93659285D01*
X120410857Y-93773571D01*
X120353714Y-93830714D01*
X120239428Y-93887857D01*
X120068000Y-93887857D01*
X120982285Y-93773571D02*
X121039428Y-93830714D01*
X120982285Y-93887857D01*
X120925142Y-93830714D01*
X120982285Y-93773571D01*
X120982285Y-93887857D01*
X120982285Y-93145000D02*
X121039428Y-93202142D01*
X120982285Y-93259285D01*
X120925142Y-93202142D01*
X120982285Y-93145000D01*
X120982285Y-93259285D01*
X121496571Y-93545000D02*
X122068000Y-93545000D01*
X121382285Y-93887857D02*
X121782285Y-92687857D01*
X122182285Y-93887857D01*
D12*
X114090142Y-78783571D02*
X114090142Y-77283571D01*
X114733000Y-77426428D02*
X114804428Y-77355000D01*
X114947285Y-77283571D01*
X115304428Y-77283571D01*
X115447285Y-77355000D01*
X115518714Y-77426428D01*
X115590142Y-77569285D01*
X115590142Y-77712142D01*
X115518714Y-77926428D01*
X114661571Y-78783571D01*
X115590142Y-78783571D01*
X117090142Y-78640714D02*
X117018714Y-78712142D01*
X116804428Y-78783571D01*
X116661571Y-78783571D01*
X116447285Y-78712142D01*
X116304428Y-78569285D01*
X116233000Y-78426428D01*
X116161571Y-78140714D01*
X116161571Y-77926428D01*
X116233000Y-77640714D01*
X116304428Y-77497857D01*
X116447285Y-77355000D01*
X116661571Y-77283571D01*
X116804428Y-77283571D01*
X117018714Y-77355000D01*
X117090142Y-77426428D01*
X114018714Y-91412142D02*
X114233000Y-91483571D01*
X114590142Y-91483571D01*
X114733000Y-91412142D01*
X114804428Y-91340714D01*
X114875857Y-91197857D01*
X114875857Y-91055000D01*
X114804428Y-90912142D01*
X114733000Y-90840714D01*
X114590142Y-90769285D01*
X114304428Y-90697857D01*
X114161571Y-90626428D01*
X114090142Y-90555000D01*
X114018714Y-90412142D01*
X114018714Y-90269285D01*
X114090142Y-90126428D01*
X114161571Y-90055000D01*
X114304428Y-89983571D01*
X114661571Y-89983571D01*
X114875857Y-90055000D01*
X116090142Y-91412142D02*
X115947285Y-91483571D01*
X115661571Y-91483571D01*
X115518714Y-91412142D01*
X115447285Y-91269285D01*
X115447285Y-90697857D01*
X115518714Y-90555000D01*
X115661571Y-90483571D01*
X115947285Y-90483571D01*
X116090142Y-90555000D01*
X116161571Y-90697857D01*
X116161571Y-90840714D01*
X115447285Y-90983571D01*
X116804428Y-91483571D02*
X116804428Y-90483571D01*
X116804428Y-90769285D02*
X116875857Y-90626428D01*
X116947285Y-90555000D01*
X117090142Y-90483571D01*
X117233000Y-90483571D01*
X117590142Y-90483571D02*
X117947285Y-91483571D01*
X118304428Y-90483571D01*
X119090142Y-91483571D02*
X118947285Y-91412142D01*
X118875857Y-91340714D01*
X118804428Y-91197857D01*
X118804428Y-90769285D01*
X118875857Y-90626428D01*
X118947285Y-90555000D01*
X119090142Y-90483571D01*
X119304428Y-90483571D01*
X119447285Y-90555000D01*
X119518714Y-90626428D01*
X119590142Y-90769285D01*
X119590142Y-91197857D01*
X119518714Y-91340714D01*
X119447285Y-91412142D01*
X119304428Y-91483571D01*
X119090142Y-91483571D01*
X131925142Y-119990714D02*
X131996571Y-119776428D01*
X131996571Y-119419285D01*
X131925142Y-119276428D01*
X131853714Y-119205000D01*
X131710857Y-119133571D01*
X131568000Y-119133571D01*
X131425142Y-119205000D01*
X131353714Y-119276428D01*
X131282285Y-119419285D01*
X131210857Y-119705000D01*
X131139428Y-119847857D01*
X131068000Y-119919285D01*
X130925142Y-119990714D01*
X130782285Y-119990714D01*
X130639428Y-119919285D01*
X130568000Y-119847857D01*
X130496571Y-119705000D01*
X130496571Y-119347857D01*
X130568000Y-119133571D01*
X130996571Y-118633571D02*
X131996571Y-118276428D01*
X130996571Y-117919285D01*
X131996571Y-116205000D02*
X130496571Y-116205000D01*
X130496571Y-115633571D01*
X130568000Y-115490714D01*
X130639428Y-115419285D01*
X130782285Y-115347857D01*
X130996571Y-115347857D01*
X131139428Y-115419285D01*
X131210857Y-115490714D01*
X131282285Y-115633571D01*
X131282285Y-116205000D01*
X131996571Y-114490714D02*
X131925142Y-114633571D01*
X131853714Y-114705000D01*
X131710857Y-114776428D01*
X131282285Y-114776428D01*
X131139428Y-114705000D01*
X131068000Y-114633571D01*
X130996571Y-114490714D01*
X130996571Y-114276428D01*
X131068000Y-114133571D01*
X131139428Y-114062142D01*
X131282285Y-113990714D01*
X131710857Y-113990714D01*
X131853714Y-114062142D01*
X131925142Y-114133571D01*
X131996571Y-114276428D01*
X131996571Y-114490714D01*
X130996571Y-113490714D02*
X131996571Y-113205000D01*
X131282285Y-112919285D01*
X131996571Y-112633571D01*
X130996571Y-112347857D01*
D11*
X143290857Y-118995714D02*
X142090857Y-118995714D01*
X142490857Y-118424285D02*
X143290857Y-118424285D01*
X142605142Y-118424285D02*
X142548000Y-118367142D01*
X142490857Y-118252857D01*
X142490857Y-118081428D01*
X142548000Y-117967142D01*
X142662285Y-117910000D01*
X143290857Y-117910000D01*
X142490857Y-117510000D02*
X142490857Y-117052857D01*
X142090857Y-117338571D02*
X143119428Y-117338571D01*
X143233714Y-117281428D01*
X143290857Y-117167142D01*
X143290857Y-117052857D01*
X140122285Y-119195714D02*
X140122285Y-118795714D01*
X140750857Y-118624285D02*
X140750857Y-119195714D01*
X139550857Y-119195714D01*
X139550857Y-118624285D01*
X140750857Y-118224285D02*
X139950857Y-117595714D01*
X139950857Y-118224285D02*
X140750857Y-117595714D01*
X139950857Y-117310000D02*
X139950857Y-116852857D01*
X139550857Y-117138571D02*
X140579428Y-117138571D01*
X140693714Y-117081428D01*
X140750857Y-116967142D01*
X140750857Y-116852857D01*
D12*
X158238000Y-84812142D02*
X158238000Y-84097857D01*
X158666571Y-84955000D02*
X157166571Y-84455000D01*
X158666571Y-83955000D01*
X157166571Y-97655000D02*
X157166571Y-96655000D01*
X158666571Y-97655000D01*
X158666571Y-96655000D01*
X154428000Y-96840714D02*
X154428000Y-96126428D01*
X154856571Y-96983571D02*
X153356571Y-96483571D01*
X154856571Y-95983571D01*
X154856571Y-95626428D02*
X153856571Y-94840714D01*
X153856571Y-95626428D02*
X154856571Y-94840714D01*
X154856571Y-94269285D02*
X153856571Y-94269285D01*
X153356571Y-94269285D02*
X153428000Y-94340714D01*
X153499428Y-94269285D01*
X153428000Y-94197857D01*
X153356571Y-94269285D01*
X153499428Y-94269285D01*
X154785142Y-93626428D02*
X154856571Y-93483571D01*
X154856571Y-93197857D01*
X154785142Y-93055000D01*
X154642285Y-92983571D01*
X154570857Y-92983571D01*
X154428000Y-93055000D01*
X154356571Y-93197857D01*
X154356571Y-93412142D01*
X154285142Y-93555000D01*
X154142285Y-93626428D01*
X154070857Y-93626428D01*
X153928000Y-93555000D01*
X153856571Y-93412142D01*
X153856571Y-93197857D01*
X153928000Y-93055000D01*
X154785142Y-91269285D02*
X154856571Y-91055000D01*
X154856571Y-90697857D01*
X154785142Y-90555000D01*
X154713714Y-90483571D01*
X154570857Y-90412142D01*
X154428000Y-90412142D01*
X154285142Y-90483571D01*
X154213714Y-90555000D01*
X154142285Y-90697857D01*
X154070857Y-90983571D01*
X153999428Y-91126428D01*
X153928000Y-91197857D01*
X153785142Y-91269285D01*
X153642285Y-91269285D01*
X153499428Y-91197857D01*
X153428000Y-91126428D01*
X153356571Y-90983571D01*
X153356571Y-90626428D01*
X153428000Y-90412142D01*
X153856571Y-89983571D02*
X153856571Y-89412142D01*
X153356571Y-89769285D02*
X154642285Y-89769285D01*
X154785142Y-89697857D01*
X154856571Y-89555000D01*
X154856571Y-89412142D01*
X154856571Y-88269285D02*
X154070857Y-88269285D01*
X153928000Y-88340714D01*
X153856571Y-88483571D01*
X153856571Y-88769285D01*
X153928000Y-88912142D01*
X154785142Y-88269285D02*
X154856571Y-88412142D01*
X154856571Y-88769285D01*
X154785142Y-88912142D01*
X154642285Y-88983571D01*
X154499428Y-88983571D01*
X154356571Y-88912142D01*
X154285142Y-88769285D01*
X154285142Y-88412142D01*
X154213714Y-88269285D01*
X153856571Y-87769285D02*
X153856571Y-87197857D01*
X153356571Y-87555000D02*
X154642285Y-87555000D01*
X154785142Y-87483571D01*
X154856571Y-87340714D01*
X154856571Y-87197857D01*
X153856571Y-86055000D02*
X154856571Y-86055000D01*
X153856571Y-86697857D02*
X154642285Y-86697857D01*
X154785142Y-86626428D01*
X154856571Y-86483571D01*
X154856571Y-86269285D01*
X154785142Y-86126428D01*
X154713714Y-86055000D01*
X154785142Y-85412142D02*
X154856571Y-85269285D01*
X154856571Y-84983571D01*
X154785142Y-84840714D01*
X154642285Y-84769285D01*
X154570857Y-84769285D01*
X154428000Y-84840714D01*
X154356571Y-84983571D01*
X154356571Y-85197857D01*
X154285142Y-85340714D01*
X154142285Y-85412142D01*
X154070857Y-85412142D01*
X153928000Y-85340714D01*
X153856571Y-85197857D01*
X153856571Y-84983571D01*
X153928000Y-84840714D01*
X175176571Y-83970714D02*
X174462285Y-84470714D01*
X175176571Y-84827857D02*
X173676571Y-84827857D01*
X173676571Y-84256428D01*
X173748000Y-84113571D01*
X173819428Y-84042142D01*
X173962285Y-83970714D01*
X174176571Y-83970714D01*
X174319428Y-84042142D01*
X174390857Y-84113571D01*
X174462285Y-84256428D01*
X174462285Y-84827857D01*
X174390857Y-83327857D02*
X174390857Y-82827857D01*
X175176571Y-82613571D02*
X175176571Y-83327857D01*
X173676571Y-83327857D01*
X173676571Y-82613571D01*
X173676571Y-82185000D02*
X173676571Y-81327857D01*
X175176571Y-81756428D02*
X173676571Y-81756428D01*
X174748000Y-100103571D02*
X174748000Y-99389285D01*
X175176571Y-100246428D02*
X173676571Y-99746428D01*
X175176571Y-99246428D01*
X175033714Y-97889285D02*
X175105142Y-97960714D01*
X175176571Y-98175000D01*
X175176571Y-98317857D01*
X175105142Y-98532142D01*
X174962285Y-98675000D01*
X174819428Y-98746428D01*
X174533714Y-98817857D01*
X174319428Y-98817857D01*
X174033714Y-98746428D01*
X173890857Y-98675000D01*
X173748000Y-98532142D01*
X173676571Y-98317857D01*
X173676571Y-98175000D01*
X173748000Y-97960714D01*
X173819428Y-97889285D01*
X173676571Y-97460714D02*
X173676571Y-96603571D01*
X175176571Y-97032142D02*
X173676571Y-97032142D01*
D10*
X139390380Y-120999285D02*
X139390380Y-121570714D01*
X139390380Y-121285000D02*
X138390380Y-121285000D01*
X138533238Y-121380238D01*
X138628476Y-121475476D01*
X138676095Y-121570714D01*
D13*
%TO.C,TP4*%
X177988000Y-113665000D02*
G75*
G03*
X177988000Y-113665000I-950000J0D01*
G01*
X175448000Y-113665000D02*
G75*
G03*
X175448000Y-113665000I-950000J0D01*
G01*
X172908000Y-113665000D02*
G75*
G03*
X172908000Y-113665000I-950000J0D01*
G01*
X177988000Y-111125000D02*
G75*
G03*
X177988000Y-111125000I-950000J0D01*
G01*
X175448000Y-111125000D02*
G75*
G03*
X175448000Y-111125000I-950000J0D01*
G01*
X172908000Y-111125000D02*
G75*
G03*
X172908000Y-111125000I-950000J0D01*
G01*
X177988000Y-108585000D02*
G75*
G03*
X177988000Y-108585000I-950000J0D01*
G01*
X175448000Y-108585000D02*
G75*
G03*
X175448000Y-108585000I-950000J0D01*
G01*
X172908000Y-108585000D02*
G75*
G03*
X172908000Y-108585000I-950000J0D01*
G01*
X177988000Y-106045000D02*
G75*
G03*
X177988000Y-106045000I-950000J0D01*
G01*
X175448000Y-106045000D02*
G75*
G03*
X175448000Y-106045000I-950000J0D01*
G01*
X172908000Y-106045000D02*
G75*
G03*
X172908000Y-106045000I-950000J0D01*
G01*
X177988000Y-103505000D02*
G75*
G03*
X177988000Y-103505000I-950000J0D01*
G01*
X175448000Y-103505000D02*
G75*
G03*
X175448000Y-103505000I-950000J0D01*
G01*
X172908000Y-118745000D02*
G75*
G03*
X172908000Y-118745000I-950000J0D01*
G01*
X170368000Y-118745000D02*
G75*
G03*
X170368000Y-118745000I-950000J0D01*
G01*
X167828000Y-118745000D02*
G75*
G03*
X167828000Y-118745000I-950000J0D01*
G01*
X165288000Y-118745000D02*
G75*
G03*
X165288000Y-118745000I-950000J0D01*
G01*
X172908000Y-116205000D02*
G75*
G03*
X172908000Y-116205000I-950000J0D01*
G01*
X170368000Y-116205000D02*
G75*
G03*
X170368000Y-116205000I-950000J0D01*
G01*
X167828000Y-116205000D02*
G75*
G03*
X167828000Y-116205000I-950000J0D01*
G01*
X165288000Y-116205000D02*
G75*
G03*
X165288000Y-116205000I-950000J0D01*
G01*
X170368000Y-113665000D02*
G75*
G03*
X170368000Y-113665000I-950000J0D01*
G01*
X167828000Y-113665000D02*
G75*
G03*
X167828000Y-113665000I-950000J0D01*
G01*
X165288000Y-113665000D02*
G75*
G03*
X165288000Y-113665000I-950000J0D01*
G01*
X170368000Y-111125000D02*
G75*
G03*
X170368000Y-111125000I-950000J0D01*
G01*
X167828000Y-111125000D02*
G75*
G03*
X167828000Y-111125000I-950000J0D01*
G01*
X165288000Y-111125000D02*
G75*
G03*
X165288000Y-111125000I-950000J0D01*
G01*
X170368000Y-108585000D02*
G75*
G03*
X170368000Y-108585000I-950000J0D01*
G01*
X167828000Y-108585000D02*
G75*
G03*
X167828000Y-108585000I-950000J0D01*
G01*
X165288000Y-108585000D02*
G75*
G03*
X165288000Y-108585000I-950000J0D01*
G01*
X170368000Y-106045000D02*
G75*
G03*
X170368000Y-106045000I-950000J0D01*
G01*
X167828000Y-106045000D02*
G75*
G03*
X167828000Y-106045000I-950000J0D01*
G01*
X165288000Y-106045000D02*
G75*
G03*
X165288000Y-106045000I-950000J0D01*
G01*
X172908000Y-103505000D02*
G75*
G03*
X172908000Y-103505000I-950000J0D01*
G01*
X170368000Y-103505000D02*
G75*
G03*
X170368000Y-103505000I-950000J0D01*
G01*
X167828000Y-103505000D02*
G75*
G03*
X167828000Y-103505000I-950000J0D01*
G01*
X165288000Y-103505000D02*
G75*
G03*
X165288000Y-103505000I-950000J0D01*
G01*
X150048000Y-100965000D02*
G75*
G03*
X150048000Y-100965000I-950000J0D01*
G01*
X162748000Y-118745000D02*
G75*
G03*
X162748000Y-118745000I-950000J0D01*
G01*
X160208000Y-118745000D02*
G75*
G03*
X160208000Y-118745000I-950000J0D01*
G01*
X157668000Y-118745000D02*
G75*
G03*
X157668000Y-118745000I-950000J0D01*
G01*
X155128000Y-118745000D02*
G75*
G03*
X155128000Y-118745000I-950000J0D01*
G01*
X152588000Y-118745000D02*
G75*
G03*
X152588000Y-118745000I-950000J0D01*
G01*
X150048000Y-118745000D02*
G75*
G03*
X150048000Y-118745000I-950000J0D01*
G01*
X162748000Y-116205000D02*
G75*
G03*
X162748000Y-116205000I-950000J0D01*
G01*
X160208000Y-116205000D02*
G75*
G03*
X160208000Y-116205000I-950000J0D01*
G01*
X157668000Y-116205000D02*
G75*
G03*
X157668000Y-116205000I-950000J0D01*
G01*
X155128000Y-116205000D02*
G75*
G03*
X155128000Y-116205000I-950000J0D01*
G01*
X152588000Y-116205000D02*
G75*
G03*
X152588000Y-116205000I-950000J0D01*
G01*
X150048000Y-116205000D02*
G75*
G03*
X150048000Y-116205000I-950000J0D01*
G01*
X162748000Y-113665000D02*
G75*
G03*
X162748000Y-113665000I-950000J0D01*
G01*
X160208000Y-113665000D02*
G75*
G03*
X160208000Y-113665000I-950000J0D01*
G01*
X157668000Y-113665000D02*
G75*
G03*
X157668000Y-113665000I-950000J0D01*
G01*
X155128000Y-113665000D02*
G75*
G03*
X155128000Y-113665000I-950000J0D01*
G01*
X152588000Y-113665000D02*
G75*
G03*
X152588000Y-113665000I-950000J0D01*
G01*
X150048000Y-113665000D02*
G75*
G03*
X150048000Y-113665000I-950000J0D01*
G01*
X162748000Y-111125000D02*
G75*
G03*
X162748000Y-111125000I-950000J0D01*
G01*
X160208000Y-111125000D02*
G75*
G03*
X160208000Y-111125000I-950000J0D01*
G01*
X157668000Y-111125000D02*
G75*
G03*
X157668000Y-111125000I-950000J0D01*
G01*
X155128000Y-111125000D02*
G75*
G03*
X155128000Y-111125000I-950000J0D01*
G01*
X152588000Y-111125000D02*
G75*
G03*
X152588000Y-111125000I-950000J0D01*
G01*
X150048000Y-111125000D02*
G75*
G03*
X150048000Y-111125000I-950000J0D01*
G01*
X162748000Y-108585000D02*
G75*
G03*
X162748000Y-108585000I-950000J0D01*
G01*
X160208000Y-108585000D02*
G75*
G03*
X160208000Y-108585000I-950000J0D01*
G01*
X157668000Y-108585000D02*
G75*
G03*
X157668000Y-108585000I-950000J0D01*
G01*
X155128000Y-108585000D02*
G75*
G03*
X155128000Y-108585000I-950000J0D01*
G01*
X152588000Y-108585000D02*
G75*
G03*
X152588000Y-108585000I-950000J0D01*
G01*
X150048000Y-108585000D02*
G75*
G03*
X150048000Y-108585000I-950000J0D01*
G01*
X162748000Y-106045000D02*
G75*
G03*
X162748000Y-106045000I-950000J0D01*
G01*
X160208000Y-106045000D02*
G75*
G03*
X160208000Y-106045000I-950000J0D01*
G01*
X157668000Y-106045000D02*
G75*
G03*
X157668000Y-106045000I-950000J0D01*
G01*
X155128000Y-106045000D02*
G75*
G03*
X155128000Y-106045000I-950000J0D01*
G01*
X152588000Y-106045000D02*
G75*
G03*
X152588000Y-106045000I-950000J0D01*
G01*
X150048000Y-106045000D02*
G75*
G03*
X150048000Y-106045000I-950000J0D01*
G01*
X162748000Y-103505000D02*
G75*
G03*
X162748000Y-103505000I-950000J0D01*
G01*
X160208000Y-103505000D02*
G75*
G03*
X160208000Y-103505000I-950000J0D01*
G01*
X157668000Y-103505000D02*
G75*
G03*
X157668000Y-103505000I-950000J0D01*
G01*
X155128000Y-103505000D02*
G75*
G03*
X155128000Y-103505000I-950000J0D01*
G01*
X152588000Y-103505000D02*
G75*
G03*
X152588000Y-103505000I-950000J0D01*
G01*
X150048000Y-103505000D02*
G75*
G03*
X150048000Y-103505000I-950000J0D01*
G01*
X162748000Y-100965000D02*
G75*
G03*
X162748000Y-100965000I-950000J0D01*
G01*
X160208000Y-100965000D02*
G75*
G03*
X160208000Y-100965000I-950000J0D01*
G01*
X157668000Y-100965000D02*
G75*
G03*
X157668000Y-100965000I-950000J0D01*
G01*
X155128000Y-100965000D02*
G75*
G03*
X155128000Y-100965000I-950000J0D01*
G01*
X152588000Y-100965000D02*
G75*
G03*
X152588000Y-100965000I-950000J0D01*
G01*
%TO.C,TP1*%
X147458000Y-110265000D02*
X145658000Y-110265000D01*
X145658000Y-114565000D02*
X147458000Y-114565000D01*
X145658000Y-114565000D02*
X145658000Y-110265000D01*
X147458000Y-110265000D02*
X147458000Y-114565000D01*
%TO.C,TP3*%
X147458000Y-105185000D02*
X145658000Y-105185000D01*
X145658000Y-109485000D02*
X147458000Y-109485000D01*
X145658000Y-109485000D02*
X145658000Y-105185000D01*
X147458000Y-105185000D02*
X147458000Y-109485000D01*
%TO.C,TP2*%
X147458000Y-115345000D02*
X145658000Y-115345000D01*
X145658000Y-119645000D02*
X147458000Y-119645000D01*
X145658000Y-119645000D02*
X145658000Y-115345000D01*
X147458000Y-115345000D02*
X147458000Y-119645000D01*
D14*
%TO.C,H1*%
G36*
X116181910Y-103287348D02*
G01*
X116260454Y-103287778D01*
X116317298Y-103288942D01*
X116356105Y-103291207D01*
X116380538Y-103294940D01*
X116394262Y-103300506D01*
X116400940Y-103308273D01*
X116404236Y-103318605D01*
X116404556Y-103319943D01*
X116409562Y-103344079D01*
X116418829Y-103391701D01*
X116431392Y-103457741D01*
X116446287Y-103537128D01*
X116462551Y-103624796D01*
X116463119Y-103627875D01*
X116479410Y-103713789D01*
X116494652Y-103789696D01*
X116507861Y-103851045D01*
X116518054Y-103893282D01*
X116524248Y-103911855D01*
X116524543Y-103912184D01*
X116542788Y-103921253D01*
X116580405Y-103936367D01*
X116629271Y-103954262D01*
X116629543Y-103954358D01*
X116691093Y-103977493D01*
X116763657Y-104006965D01*
X116832057Y-104036597D01*
X116835294Y-104038062D01*
X116946702Y-104088626D01*
X117193399Y-103920160D01*
X117269077Y-103868803D01*
X117337631Y-103822889D01*
X117395088Y-103785030D01*
X117437476Y-103757837D01*
X117460825Y-103743921D01*
X117463042Y-103742889D01*
X117480010Y-103747484D01*
X117511701Y-103769655D01*
X117559352Y-103810447D01*
X117624198Y-103870905D01*
X117690397Y-103935227D01*
X117754214Y-103998612D01*
X117811329Y-104056451D01*
X117858305Y-104105175D01*
X117891703Y-104141210D01*
X117908085Y-104160984D01*
X117908694Y-104162002D01*
X117910505Y-104175572D01*
X117903683Y-104197733D01*
X117886540Y-104231478D01*
X117857393Y-104279800D01*
X117814555Y-104345692D01*
X117757448Y-104430517D01*
X117706766Y-104505177D01*
X117661461Y-104572140D01*
X117624150Y-104627516D01*
X117597452Y-104667420D01*
X117583985Y-104687962D01*
X117583137Y-104689356D01*
X117584781Y-104709038D01*
X117597245Y-104747293D01*
X117618048Y-104796889D01*
X117625462Y-104812728D01*
X117657814Y-104883290D01*
X117692328Y-104963353D01*
X117720365Y-105032629D01*
X117740568Y-105084045D01*
X117756615Y-105123119D01*
X117765888Y-105143541D01*
X117767041Y-105145114D01*
X117784096Y-105147721D01*
X117824298Y-105154863D01*
X117882302Y-105165523D01*
X117952763Y-105178685D01*
X118030335Y-105193333D01*
X118109672Y-105208449D01*
X118185431Y-105223018D01*
X118252264Y-105236022D01*
X118304828Y-105246445D01*
X118337776Y-105253270D01*
X118345857Y-105255199D01*
X118354205Y-105259962D01*
X118360506Y-105270718D01*
X118365045Y-105291098D01*
X118368104Y-105324734D01*
X118369967Y-105375255D01*
X118370918Y-105446292D01*
X118371240Y-105541476D01*
X118371257Y-105580492D01*
X118371257Y-105897799D01*
X118295057Y-105912839D01*
X118252663Y-105920995D01*
X118189400Y-105932899D01*
X118112962Y-105947116D01*
X118031043Y-105962210D01*
X118008400Y-105966355D01*
X117932806Y-105981053D01*
X117866953Y-105995505D01*
X117816366Y-106008375D01*
X117786574Y-106018322D01*
X117781612Y-106021287D01*
X117769426Y-106042283D01*
X117751953Y-106082967D01*
X117732577Y-106135322D01*
X117728734Y-106146600D01*
X117703339Y-106216523D01*
X117671817Y-106295418D01*
X117640969Y-106366266D01*
X117640817Y-106366595D01*
X117589447Y-106477733D01*
X117758399Y-106726253D01*
X117927352Y-106974772D01*
X117710429Y-107192058D01*
X117644819Y-107256726D01*
X117584979Y-107313733D01*
X117534267Y-107360033D01*
X117496046Y-107392584D01*
X117473675Y-107408343D01*
X117470466Y-107409343D01*
X117451626Y-107401469D01*
X117413180Y-107379578D01*
X117359330Y-107346267D01*
X117294276Y-107304131D01*
X117223940Y-107256943D01*
X117152555Y-107208810D01*
X117088908Y-107166928D01*
X117037041Y-107133871D01*
X117000995Y-107112218D01*
X116984867Y-107104543D01*
X116965189Y-107111037D01*
X116927875Y-107128150D01*
X116880621Y-107152326D01*
X116875612Y-107155013D01*
X116811977Y-107186927D01*
X116768341Y-107202579D01*
X116741202Y-107202745D01*
X116727057Y-107188204D01*
X116726975Y-107188000D01*
X116719905Y-107170779D01*
X116703042Y-107129899D01*
X116677695Y-107068525D01*
X116645171Y-106989819D01*
X116606778Y-106896947D01*
X116563822Y-106793072D01*
X116522222Y-106692502D01*
X116476504Y-106581516D01*
X116434526Y-106478703D01*
X116397548Y-106387215D01*
X116366827Y-106310201D01*
X116343622Y-106250815D01*
X116329190Y-106212209D01*
X116324743Y-106197800D01*
X116335896Y-106181272D01*
X116365069Y-106154930D01*
X116403971Y-106125887D01*
X116514757Y-106034039D01*
X116601351Y-105928759D01*
X116662716Y-105812266D01*
X116697815Y-105686776D01*
X116705608Y-105554507D01*
X116699943Y-105493457D01*
X116669078Y-105366795D01*
X116615920Y-105254941D01*
X116543767Y-105159001D01*
X116455917Y-105080076D01*
X116355665Y-105019270D01*
X116246310Y-104977687D01*
X116131147Y-104956428D01*
X116013475Y-104956599D01*
X115896590Y-104979301D01*
X115783789Y-105025638D01*
X115678369Y-105096713D01*
X115634368Y-105136911D01*
X115549979Y-105240129D01*
X115491222Y-105352925D01*
X115457704Y-105472010D01*
X115449035Y-105594095D01*
X115464823Y-105715893D01*
X115504678Y-105834116D01*
X115568207Y-105945475D01*
X115655021Y-106046684D01*
X115752029Y-106125887D01*
X115792437Y-106156162D01*
X115820982Y-106182219D01*
X115831257Y-106197825D01*
X115825877Y-106214843D01*
X115810575Y-106255500D01*
X115786612Y-106316642D01*
X115755244Y-106395119D01*
X115717732Y-106487780D01*
X115675333Y-106591472D01*
X115633663Y-106692526D01*
X115587690Y-106803607D01*
X115545107Y-106906541D01*
X115507221Y-106998165D01*
X115475340Y-107075316D01*
X115450771Y-107134831D01*
X115434820Y-107173544D01*
X115428910Y-107188000D01*
X115414948Y-107202685D01*
X115387940Y-107202642D01*
X115344413Y-107187099D01*
X115280890Y-107155284D01*
X115280388Y-107155013D01*
X115232560Y-107130323D01*
X115193897Y-107112338D01*
X115172095Y-107104614D01*
X115171133Y-107104543D01*
X115154721Y-107112378D01*
X115118487Y-107134165D01*
X115066474Y-107167328D01*
X115002725Y-107209291D01*
X114932060Y-107256943D01*
X114860116Y-107305191D01*
X114795274Y-107347151D01*
X114741735Y-107380227D01*
X114703697Y-107401821D01*
X114685533Y-107409343D01*
X114668808Y-107399457D01*
X114635180Y-107371826D01*
X114588010Y-107329495D01*
X114530658Y-107275505D01*
X114466484Y-107212899D01*
X114445497Y-107191983D01*
X114228499Y-106974623D01*
X114393668Y-106732220D01*
X114443864Y-106657781D01*
X114487919Y-106590972D01*
X114523362Y-106535665D01*
X114547719Y-106495729D01*
X114558522Y-106475036D01*
X114558838Y-106473563D01*
X114553143Y-106454058D01*
X114537826Y-106414822D01*
X114515537Y-106362430D01*
X114499893Y-106327355D01*
X114470641Y-106260201D01*
X114443094Y-106192358D01*
X114421737Y-106135034D01*
X114415935Y-106117572D01*
X114399452Y-106070938D01*
X114383340Y-106034905D01*
X114374490Y-106021287D01*
X114354960Y-106012952D01*
X114312334Y-106001137D01*
X114252145Y-105987181D01*
X114179922Y-105972422D01*
X114147600Y-105966355D01*
X114065522Y-105951273D01*
X113986795Y-105936669D01*
X113919109Y-105923980D01*
X113870160Y-105914642D01*
X113860943Y-105912839D01*
X113784743Y-105897799D01*
X113784743Y-105580492D01*
X113784914Y-105476154D01*
X113785616Y-105397213D01*
X113787134Y-105340038D01*
X113789749Y-105300999D01*
X113793746Y-105276465D01*
X113799409Y-105262805D01*
X113807020Y-105256389D01*
X113810143Y-105255199D01*
X113828978Y-105250980D01*
X113870588Y-105242562D01*
X113929630Y-105230961D01*
X114000757Y-105217195D01*
X114078625Y-105202280D01*
X114157887Y-105187232D01*
X114233198Y-105173069D01*
X114299213Y-105160806D01*
X114350587Y-105151461D01*
X114381975Y-105146050D01*
X114388959Y-105145114D01*
X114395285Y-105132596D01*
X114409290Y-105099246D01*
X114428355Y-105051377D01*
X114435634Y-105032629D01*
X114464996Y-104960195D01*
X114499571Y-104880170D01*
X114530537Y-104812728D01*
X114553323Y-104761159D01*
X114568482Y-104718785D01*
X114573542Y-104692834D01*
X114572736Y-104689356D01*
X114562041Y-104672936D01*
X114537620Y-104636417D01*
X114502095Y-104583687D01*
X114458087Y-104518635D01*
X114408217Y-104445151D01*
X114398356Y-104430645D01*
X114340492Y-104344704D01*
X114297956Y-104279261D01*
X114269054Y-104231304D01*
X114252090Y-104197820D01*
X114245367Y-104175795D01*
X114247190Y-104162217D01*
X114247236Y-104162131D01*
X114261586Y-104144297D01*
X114293323Y-104109817D01*
X114339010Y-104062268D01*
X114395204Y-104005222D01*
X114458468Y-103942255D01*
X114465602Y-103935227D01*
X114545330Y-103858020D01*
X114606857Y-103801330D01*
X114651421Y-103764110D01*
X114680257Y-103745315D01*
X114692958Y-103742889D01*
X114711494Y-103753471D01*
X114749961Y-103777916D01*
X114804386Y-103813612D01*
X114870798Y-103857947D01*
X114945225Y-103908311D01*
X114962601Y-103920160D01*
X115209297Y-104088626D01*
X115320706Y-104038062D01*
X115388457Y-104008595D01*
X115461183Y-103978959D01*
X115523703Y-103955330D01*
X115526457Y-103954358D01*
X115575360Y-103936457D01*
X115613057Y-103921320D01*
X115631425Y-103912210D01*
X115631456Y-103912184D01*
X115637285Y-103895717D01*
X115647192Y-103855219D01*
X115660195Y-103795242D01*
X115675309Y-103720340D01*
X115691552Y-103635064D01*
X115692881Y-103627875D01*
X115709175Y-103540014D01*
X115724133Y-103460260D01*
X115736791Y-103393681D01*
X115746186Y-103345347D01*
X115751354Y-103320325D01*
X115751444Y-103319943D01*
X115754589Y-103309299D01*
X115760704Y-103301262D01*
X115773453Y-103295467D01*
X115796500Y-103291547D01*
X115833509Y-103289135D01*
X115888144Y-103287865D01*
X115964067Y-103287371D01*
X116064944Y-103287286D01*
X116078000Y-103287286D01*
X116181910Y-103287348D01*
G37*
X116181910Y-103287348D02*
X116260454Y-103287778D01*
X116317298Y-103288942D01*
X116356105Y-103291207D01*
X116380538Y-103294940D01*
X116394262Y-103300506D01*
X116400940Y-103308273D01*
X116404236Y-103318605D01*
X116404556Y-103319943D01*
X116409562Y-103344079D01*
X116418829Y-103391701D01*
X116431392Y-103457741D01*
X116446287Y-103537128D01*
X116462551Y-103624796D01*
X116463119Y-103627875D01*
X116479410Y-103713789D01*
X116494652Y-103789696D01*
X116507861Y-103851045D01*
X116518054Y-103893282D01*
X116524248Y-103911855D01*
X116524543Y-103912184D01*
X116542788Y-103921253D01*
X116580405Y-103936367D01*
X116629271Y-103954262D01*
X116629543Y-103954358D01*
X116691093Y-103977493D01*
X116763657Y-104006965D01*
X116832057Y-104036597D01*
X116835294Y-104038062D01*
X116946702Y-104088626D01*
X117193399Y-103920160D01*
X117269077Y-103868803D01*
X117337631Y-103822889D01*
X117395088Y-103785030D01*
X117437476Y-103757837D01*
X117460825Y-103743921D01*
X117463042Y-103742889D01*
X117480010Y-103747484D01*
X117511701Y-103769655D01*
X117559352Y-103810447D01*
X117624198Y-103870905D01*
X117690397Y-103935227D01*
X117754214Y-103998612D01*
X117811329Y-104056451D01*
X117858305Y-104105175D01*
X117891703Y-104141210D01*
X117908085Y-104160984D01*
X117908694Y-104162002D01*
X117910505Y-104175572D01*
X117903683Y-104197733D01*
X117886540Y-104231478D01*
X117857393Y-104279800D01*
X117814555Y-104345692D01*
X117757448Y-104430517D01*
X117706766Y-104505177D01*
X117661461Y-104572140D01*
X117624150Y-104627516D01*
X117597452Y-104667420D01*
X117583985Y-104687962D01*
X117583137Y-104689356D01*
X117584781Y-104709038D01*
X117597245Y-104747293D01*
X117618048Y-104796889D01*
X117625462Y-104812728D01*
X117657814Y-104883290D01*
X117692328Y-104963353D01*
X117720365Y-105032629D01*
X117740568Y-105084045D01*
X117756615Y-105123119D01*
X117765888Y-105143541D01*
X117767041Y-105145114D01*
X117784096Y-105147721D01*
X117824298Y-105154863D01*
X117882302Y-105165523D01*
X117952763Y-105178685D01*
X118030335Y-105193333D01*
X118109672Y-105208449D01*
X118185431Y-105223018D01*
X118252264Y-105236022D01*
X118304828Y-105246445D01*
X118337776Y-105253270D01*
X118345857Y-105255199D01*
X118354205Y-105259962D01*
X118360506Y-105270718D01*
X118365045Y-105291098D01*
X118368104Y-105324734D01*
X118369967Y-105375255D01*
X118370918Y-105446292D01*
X118371240Y-105541476D01*
X118371257Y-105580492D01*
X118371257Y-105897799D01*
X118295057Y-105912839D01*
X118252663Y-105920995D01*
X118189400Y-105932899D01*
X118112962Y-105947116D01*
X118031043Y-105962210D01*
X118008400Y-105966355D01*
X117932806Y-105981053D01*
X117866953Y-105995505D01*
X117816366Y-106008375D01*
X117786574Y-106018322D01*
X117781612Y-106021287D01*
X117769426Y-106042283D01*
X117751953Y-106082967D01*
X117732577Y-106135322D01*
X117728734Y-106146600D01*
X117703339Y-106216523D01*
X117671817Y-106295418D01*
X117640969Y-106366266D01*
X117640817Y-106366595D01*
X117589447Y-106477733D01*
X117758399Y-106726253D01*
X117927352Y-106974772D01*
X117710429Y-107192058D01*
X117644819Y-107256726D01*
X117584979Y-107313733D01*
X117534267Y-107360033D01*
X117496046Y-107392584D01*
X117473675Y-107408343D01*
X117470466Y-107409343D01*
X117451626Y-107401469D01*
X117413180Y-107379578D01*
X117359330Y-107346267D01*
X117294276Y-107304131D01*
X117223940Y-107256943D01*
X117152555Y-107208810D01*
X117088908Y-107166928D01*
X117037041Y-107133871D01*
X117000995Y-107112218D01*
X116984867Y-107104543D01*
X116965189Y-107111037D01*
X116927875Y-107128150D01*
X116880621Y-107152326D01*
X116875612Y-107155013D01*
X116811977Y-107186927D01*
X116768341Y-107202579D01*
X116741202Y-107202745D01*
X116727057Y-107188204D01*
X116726975Y-107188000D01*
X116719905Y-107170779D01*
X116703042Y-107129899D01*
X116677695Y-107068525D01*
X116645171Y-106989819D01*
X116606778Y-106896947D01*
X116563822Y-106793072D01*
X116522222Y-106692502D01*
X116476504Y-106581516D01*
X116434526Y-106478703D01*
X116397548Y-106387215D01*
X116366827Y-106310201D01*
X116343622Y-106250815D01*
X116329190Y-106212209D01*
X116324743Y-106197800D01*
X116335896Y-106181272D01*
X116365069Y-106154930D01*
X116403971Y-106125887D01*
X116514757Y-106034039D01*
X116601351Y-105928759D01*
X116662716Y-105812266D01*
X116697815Y-105686776D01*
X116705608Y-105554507D01*
X116699943Y-105493457D01*
X116669078Y-105366795D01*
X116615920Y-105254941D01*
X116543767Y-105159001D01*
X116455917Y-105080076D01*
X116355665Y-105019270D01*
X116246310Y-104977687D01*
X116131147Y-104956428D01*
X116013475Y-104956599D01*
X115896590Y-104979301D01*
X115783789Y-105025638D01*
X115678369Y-105096713D01*
X115634368Y-105136911D01*
X115549979Y-105240129D01*
X115491222Y-105352925D01*
X115457704Y-105472010D01*
X115449035Y-105594095D01*
X115464823Y-105715893D01*
X115504678Y-105834116D01*
X115568207Y-105945475D01*
X115655021Y-106046684D01*
X115752029Y-106125887D01*
X115792437Y-106156162D01*
X115820982Y-106182219D01*
X115831257Y-106197825D01*
X115825877Y-106214843D01*
X115810575Y-106255500D01*
X115786612Y-106316642D01*
X115755244Y-106395119D01*
X115717732Y-106487780D01*
X115675333Y-106591472D01*
X115633663Y-106692526D01*
X115587690Y-106803607D01*
X115545107Y-106906541D01*
X115507221Y-106998165D01*
X115475340Y-107075316D01*
X115450771Y-107134831D01*
X115434820Y-107173544D01*
X115428910Y-107188000D01*
X115414948Y-107202685D01*
X115387940Y-107202642D01*
X115344413Y-107187099D01*
X115280890Y-107155284D01*
X115280388Y-107155013D01*
X115232560Y-107130323D01*
X115193897Y-107112338D01*
X115172095Y-107104614D01*
X115171133Y-107104543D01*
X115154721Y-107112378D01*
X115118487Y-107134165D01*
X115066474Y-107167328D01*
X115002725Y-107209291D01*
X114932060Y-107256943D01*
X114860116Y-107305191D01*
X114795274Y-107347151D01*
X114741735Y-107380227D01*
X114703697Y-107401821D01*
X114685533Y-107409343D01*
X114668808Y-107399457D01*
X114635180Y-107371826D01*
X114588010Y-107329495D01*
X114530658Y-107275505D01*
X114466484Y-107212899D01*
X114445497Y-107191983D01*
X114228499Y-106974623D01*
X114393668Y-106732220D01*
X114443864Y-106657781D01*
X114487919Y-106590972D01*
X114523362Y-106535665D01*
X114547719Y-106495729D01*
X114558522Y-106475036D01*
X114558838Y-106473563D01*
X114553143Y-106454058D01*
X114537826Y-106414822D01*
X114515537Y-106362430D01*
X114499893Y-106327355D01*
X114470641Y-106260201D01*
X114443094Y-106192358D01*
X114421737Y-106135034D01*
X114415935Y-106117572D01*
X114399452Y-106070938D01*
X114383340Y-106034905D01*
X114374490Y-106021287D01*
X114354960Y-106012952D01*
X114312334Y-106001137D01*
X114252145Y-105987181D01*
X114179922Y-105972422D01*
X114147600Y-105966355D01*
X114065522Y-105951273D01*
X113986795Y-105936669D01*
X113919109Y-105923980D01*
X113870160Y-105914642D01*
X113860943Y-105912839D01*
X113784743Y-105897799D01*
X113784743Y-105580492D01*
X113784914Y-105476154D01*
X113785616Y-105397213D01*
X113787134Y-105340038D01*
X113789749Y-105300999D01*
X113793746Y-105276465D01*
X113799409Y-105262805D01*
X113807020Y-105256389D01*
X113810143Y-105255199D01*
X113828978Y-105250980D01*
X113870588Y-105242562D01*
X113929630Y-105230961D01*
X114000757Y-105217195D01*
X114078625Y-105202280D01*
X114157887Y-105187232D01*
X114233198Y-105173069D01*
X114299213Y-105160806D01*
X114350587Y-105151461D01*
X114381975Y-105146050D01*
X114388959Y-105145114D01*
X114395285Y-105132596D01*
X114409290Y-105099246D01*
X114428355Y-105051377D01*
X114435634Y-105032629D01*
X114464996Y-104960195D01*
X114499571Y-104880170D01*
X114530537Y-104812728D01*
X114553323Y-104761159D01*
X114568482Y-104718785D01*
X114573542Y-104692834D01*
X114572736Y-104689356D01*
X114562041Y-104672936D01*
X114537620Y-104636417D01*
X114502095Y-104583687D01*
X114458087Y-104518635D01*
X114408217Y-104445151D01*
X114398356Y-104430645D01*
X114340492Y-104344704D01*
X114297956Y-104279261D01*
X114269054Y-104231304D01*
X114252090Y-104197820D01*
X114245367Y-104175795D01*
X114247190Y-104162217D01*
X114247236Y-104162131D01*
X114261586Y-104144297D01*
X114293323Y-104109817D01*
X114339010Y-104062268D01*
X114395204Y-104005222D01*
X114458468Y-103942255D01*
X114465602Y-103935227D01*
X114545330Y-103858020D01*
X114606857Y-103801330D01*
X114651421Y-103764110D01*
X114680257Y-103745315D01*
X114692958Y-103742889D01*
X114711494Y-103753471D01*
X114749961Y-103777916D01*
X114804386Y-103813612D01*
X114870798Y-103857947D01*
X114945225Y-103908311D01*
X114962601Y-103920160D01*
X115209297Y-104088626D01*
X115320706Y-104038062D01*
X115388457Y-104008595D01*
X115461183Y-103978959D01*
X115523703Y-103955330D01*
X115526457Y-103954358D01*
X115575360Y-103936457D01*
X115613057Y-103921320D01*
X115631425Y-103912210D01*
X115631456Y-103912184D01*
X115637285Y-103895717D01*
X115647192Y-103855219D01*
X115660195Y-103795242D01*
X115675309Y-103720340D01*
X115691552Y-103635064D01*
X115692881Y-103627875D01*
X115709175Y-103540014D01*
X115724133Y-103460260D01*
X115736791Y-103393681D01*
X115746186Y-103345347D01*
X115751354Y-103320325D01*
X115751444Y-103319943D01*
X115754589Y-103309299D01*
X115760704Y-103301262D01*
X115773453Y-103295467D01*
X115796500Y-103291547D01*
X115833509Y-103289135D01*
X115888144Y-103287865D01*
X115964067Y-103287371D01*
X116064944Y-103287286D01*
X116078000Y-103287286D01*
X116181910Y-103287348D01*
G36*
X119231595Y-108011966D02*
G01*
X119289021Y-108049497D01*
X119316719Y-108083096D01*
X119338662Y-108144064D01*
X119340405Y-108192308D01*
X119336457Y-108256816D01*
X119187686Y-108321934D01*
X119115349Y-108355202D01*
X119068084Y-108381964D01*
X119043507Y-108405144D01*
X119039237Y-108427667D01*
X119052889Y-108452455D01*
X119067943Y-108468886D01*
X119111746Y-108495235D01*
X119159389Y-108497081D01*
X119203145Y-108476546D01*
X119235289Y-108435752D01*
X119241038Y-108421347D01*
X119268576Y-108376356D01*
X119300258Y-108357182D01*
X119343714Y-108340779D01*
X119343714Y-108402966D01*
X119339872Y-108445283D01*
X119324823Y-108480969D01*
X119293280Y-108521943D01*
X119288592Y-108527267D01*
X119253506Y-108563720D01*
X119223347Y-108583283D01*
X119185615Y-108592283D01*
X119154335Y-108595230D01*
X119098385Y-108595965D01*
X119058555Y-108586660D01*
X119033708Y-108572846D01*
X118994656Y-108542467D01*
X118967625Y-108509613D01*
X118950517Y-108468294D01*
X118941238Y-108412521D01*
X118937693Y-108336305D01*
X118937410Y-108297622D01*
X118938372Y-108251247D01*
X119026007Y-108251247D01*
X119027023Y-108276126D01*
X119029556Y-108280200D01*
X119046274Y-108274665D01*
X119082249Y-108260017D01*
X119130331Y-108239190D01*
X119140386Y-108234714D01*
X119201152Y-108203814D01*
X119234632Y-108176657D01*
X119241990Y-108151220D01*
X119224391Y-108125481D01*
X119209856Y-108114109D01*
X119157410Y-108091364D01*
X119108322Y-108095122D01*
X119067227Y-108122884D01*
X119038758Y-108172152D01*
X119029631Y-108211257D01*
X119026007Y-108251247D01*
X118938372Y-108251247D01*
X118939285Y-108207249D01*
X118946196Y-108140384D01*
X118959884Y-108091695D01*
X118982096Y-108055849D01*
X119014574Y-108027513D01*
X119028733Y-108018355D01*
X119093053Y-107994507D01*
X119163473Y-107993006D01*
X119231595Y-108011966D01*
G37*
X119231595Y-108011966D02*
X119289021Y-108049497D01*
X119316719Y-108083096D01*
X119338662Y-108144064D01*
X119340405Y-108192308D01*
X119336457Y-108256816D01*
X119187686Y-108321934D01*
X119115349Y-108355202D01*
X119068084Y-108381964D01*
X119043507Y-108405144D01*
X119039237Y-108427667D01*
X119052889Y-108452455D01*
X119067943Y-108468886D01*
X119111746Y-108495235D01*
X119159389Y-108497081D01*
X119203145Y-108476546D01*
X119235289Y-108435752D01*
X119241038Y-108421347D01*
X119268576Y-108376356D01*
X119300258Y-108357182D01*
X119343714Y-108340779D01*
X119343714Y-108402966D01*
X119339872Y-108445283D01*
X119324823Y-108480969D01*
X119293280Y-108521943D01*
X119288592Y-108527267D01*
X119253506Y-108563720D01*
X119223347Y-108583283D01*
X119185615Y-108592283D01*
X119154335Y-108595230D01*
X119098385Y-108595965D01*
X119058555Y-108586660D01*
X119033708Y-108572846D01*
X118994656Y-108542467D01*
X118967625Y-108509613D01*
X118950517Y-108468294D01*
X118941238Y-108412521D01*
X118937693Y-108336305D01*
X118937410Y-108297622D01*
X118938372Y-108251247D01*
X119026007Y-108251247D01*
X119027023Y-108276126D01*
X119029556Y-108280200D01*
X119046274Y-108274665D01*
X119082249Y-108260017D01*
X119130331Y-108239190D01*
X119140386Y-108234714D01*
X119201152Y-108203814D01*
X119234632Y-108176657D01*
X119241990Y-108151220D01*
X119224391Y-108125481D01*
X119209856Y-108114109D01*
X119157410Y-108091364D01*
X119108322Y-108095122D01*
X119067227Y-108122884D01*
X119038758Y-108172152D01*
X119029631Y-108211257D01*
X119026007Y-108251247D01*
X118938372Y-108251247D01*
X118939285Y-108207249D01*
X118946196Y-108140384D01*
X118959884Y-108091695D01*
X118982096Y-108055849D01*
X119014574Y-108027513D01*
X119028733Y-108018355D01*
X119093053Y-107994507D01*
X119163473Y-107993006D01*
X119231595Y-108011966D01*
G36*
X118730600Y-108003752D02*
G01*
X118747948Y-108011334D01*
X118789356Y-108044128D01*
X118824765Y-108091547D01*
X118846664Y-108142151D01*
X118850229Y-108167098D01*
X118838279Y-108201927D01*
X118812067Y-108220357D01*
X118783964Y-108231516D01*
X118771095Y-108233572D01*
X118764829Y-108218649D01*
X118752456Y-108186175D01*
X118747028Y-108171502D01*
X118716590Y-108120744D01*
X118672520Y-108095427D01*
X118616010Y-108096206D01*
X118611825Y-108097203D01*
X118581655Y-108111507D01*
X118559476Y-108139393D01*
X118544327Y-108184287D01*
X118535250Y-108249615D01*
X118531286Y-108338804D01*
X118530914Y-108386261D01*
X118530730Y-108461071D01*
X118529522Y-108512069D01*
X118526309Y-108544471D01*
X118520109Y-108563495D01*
X118509940Y-108574356D01*
X118494819Y-108582272D01*
X118493946Y-108582670D01*
X118464828Y-108594981D01*
X118450403Y-108599514D01*
X118448186Y-108585809D01*
X118446289Y-108547925D01*
X118444847Y-108490715D01*
X118443998Y-108419027D01*
X118443829Y-108366565D01*
X118444692Y-108265047D01*
X118448070Y-108188032D01*
X118455142Y-108131023D01*
X118467088Y-108089526D01*
X118485090Y-108059043D01*
X118510327Y-108035080D01*
X118535247Y-108018355D01*
X118595171Y-107996097D01*
X118664911Y-107991076D01*
X118730600Y-108003752D01*
G37*
X118730600Y-108003752D02*
X118747948Y-108011334D01*
X118789356Y-108044128D01*
X118824765Y-108091547D01*
X118846664Y-108142151D01*
X118850229Y-108167098D01*
X118838279Y-108201927D01*
X118812067Y-108220357D01*
X118783964Y-108231516D01*
X118771095Y-108233572D01*
X118764829Y-108218649D01*
X118752456Y-108186175D01*
X118747028Y-108171502D01*
X118716590Y-108120744D01*
X118672520Y-108095427D01*
X118616010Y-108096206D01*
X118611825Y-108097203D01*
X118581655Y-108111507D01*
X118559476Y-108139393D01*
X118544327Y-108184287D01*
X118535250Y-108249615D01*
X118531286Y-108338804D01*
X118530914Y-108386261D01*
X118530730Y-108461071D01*
X118529522Y-108512069D01*
X118526309Y-108544471D01*
X118520109Y-108563495D01*
X118509940Y-108574356D01*
X118494819Y-108582272D01*
X118493946Y-108582670D01*
X118464828Y-108594981D01*
X118450403Y-108599514D01*
X118448186Y-108585809D01*
X118446289Y-108547925D01*
X118444847Y-108490715D01*
X118443998Y-108419027D01*
X118443829Y-108366565D01*
X118444692Y-108265047D01*
X118448070Y-108188032D01*
X118455142Y-108131023D01*
X118467088Y-108089526D01*
X118485090Y-108059043D01*
X118510327Y-108035080D01*
X118535247Y-108018355D01*
X118595171Y-107996097D01*
X118664911Y-107991076D01*
X118730600Y-108003752D01*
G36*
X118222876Y-108001335D02*
G01*
X118264667Y-108020344D01*
X118297469Y-108043378D01*
X118321503Y-108069133D01*
X118338097Y-108102358D01*
X118348577Y-108147800D01*
X118354271Y-108210207D01*
X118356507Y-108294327D01*
X118356743Y-108349721D01*
X118356743Y-108565826D01*
X118319774Y-108582670D01*
X118290656Y-108594981D01*
X118276231Y-108599514D01*
X118273472Y-108586025D01*
X118271282Y-108549653D01*
X118269942Y-108496542D01*
X118269657Y-108454372D01*
X118268434Y-108393447D01*
X118265136Y-108345115D01*
X118260321Y-108315518D01*
X118256496Y-108309229D01*
X118230783Y-108315652D01*
X118190418Y-108332125D01*
X118143679Y-108354458D01*
X118098845Y-108378457D01*
X118064193Y-108399930D01*
X118048002Y-108414685D01*
X118047938Y-108414845D01*
X118049330Y-108442152D01*
X118061818Y-108468219D01*
X118083743Y-108489392D01*
X118115743Y-108496474D01*
X118143092Y-108495649D01*
X118181826Y-108495042D01*
X118202158Y-108504116D01*
X118214369Y-108528092D01*
X118215909Y-108532613D01*
X118221203Y-108566806D01*
X118207047Y-108587568D01*
X118170148Y-108597462D01*
X118130289Y-108599292D01*
X118058562Y-108585727D01*
X118021432Y-108566355D01*
X117975576Y-108520845D01*
X117951256Y-108464983D01*
X117949073Y-108405957D01*
X117969629Y-108350953D01*
X118000549Y-108316486D01*
X118031420Y-108297189D01*
X118079942Y-108272759D01*
X118136485Y-108247985D01*
X118145910Y-108244199D01*
X118208019Y-108216791D01*
X118243822Y-108192634D01*
X118255337Y-108168619D01*
X118244580Y-108141635D01*
X118226114Y-108120543D01*
X118182469Y-108094572D01*
X118134446Y-108092624D01*
X118090406Y-108112637D01*
X118058709Y-108152551D01*
X118054549Y-108162848D01*
X118030327Y-108200724D01*
X117994965Y-108228842D01*
X117950343Y-108251917D01*
X117950343Y-108186485D01*
X117952969Y-108146506D01*
X117964230Y-108114997D01*
X117989199Y-108081378D01*
X118013169Y-108055484D01*
X118050441Y-108018817D01*
X118079401Y-107999121D01*
X118110505Y-107991220D01*
X118145713Y-107989914D01*
X118222876Y-108001335D01*
G37*
X118222876Y-108001335D02*
X118264667Y-108020344D01*
X118297469Y-108043378D01*
X118321503Y-108069133D01*
X118338097Y-108102358D01*
X118348577Y-108147800D01*
X118354271Y-108210207D01*
X118356507Y-108294327D01*
X118356743Y-108349721D01*
X118356743Y-108565826D01*
X118319774Y-108582670D01*
X118290656Y-108594981D01*
X118276231Y-108599514D01*
X118273472Y-108586025D01*
X118271282Y-108549653D01*
X118269942Y-108496542D01*
X118269657Y-108454372D01*
X118268434Y-108393447D01*
X118265136Y-108345115D01*
X118260321Y-108315518D01*
X118256496Y-108309229D01*
X118230783Y-108315652D01*
X118190418Y-108332125D01*
X118143679Y-108354458D01*
X118098845Y-108378457D01*
X118064193Y-108399930D01*
X118048002Y-108414685D01*
X118047938Y-108414845D01*
X118049330Y-108442152D01*
X118061818Y-108468219D01*
X118083743Y-108489392D01*
X118115743Y-108496474D01*
X118143092Y-108495649D01*
X118181826Y-108495042D01*
X118202158Y-108504116D01*
X118214369Y-108528092D01*
X118215909Y-108532613D01*
X118221203Y-108566806D01*
X118207047Y-108587568D01*
X118170148Y-108597462D01*
X118130289Y-108599292D01*
X118058562Y-108585727D01*
X118021432Y-108566355D01*
X117975576Y-108520845D01*
X117951256Y-108464983D01*
X117949073Y-108405957D01*
X117969629Y-108350953D01*
X118000549Y-108316486D01*
X118031420Y-108297189D01*
X118079942Y-108272759D01*
X118136485Y-108247985D01*
X118145910Y-108244199D01*
X118208019Y-108216791D01*
X118243822Y-108192634D01*
X118255337Y-108168619D01*
X118244580Y-108141635D01*
X118226114Y-108120543D01*
X118182469Y-108094572D01*
X118134446Y-108092624D01*
X118090406Y-108112637D01*
X118058709Y-108152551D01*
X118054549Y-108162848D01*
X118030327Y-108200724D01*
X117994965Y-108228842D01*
X117950343Y-108251917D01*
X117950343Y-108186485D01*
X117952969Y-108146506D01*
X117964230Y-108114997D01*
X117989199Y-108081378D01*
X118013169Y-108055484D01*
X118050441Y-108018817D01*
X118079401Y-107999121D01*
X118110505Y-107991220D01*
X118145713Y-107989914D01*
X118222876Y-108001335D01*
G36*
X117857833Y-108003663D02*
G01*
X117860048Y-108041850D01*
X117861784Y-108099886D01*
X117862899Y-108173180D01*
X117863257Y-108250055D01*
X117863257Y-108510196D01*
X117817326Y-108556127D01*
X117785675Y-108584429D01*
X117757890Y-108595893D01*
X117719915Y-108595168D01*
X117704840Y-108593321D01*
X117657726Y-108587948D01*
X117618756Y-108584869D01*
X117609257Y-108584585D01*
X117577233Y-108586445D01*
X117531432Y-108591114D01*
X117513674Y-108593321D01*
X117470057Y-108596735D01*
X117440745Y-108589320D01*
X117411680Y-108566427D01*
X117401188Y-108556127D01*
X117355257Y-108510196D01*
X117355257Y-108023602D01*
X117392226Y-108006758D01*
X117424059Y-107994282D01*
X117442683Y-107989914D01*
X117447458Y-108003718D01*
X117451921Y-108042286D01*
X117455775Y-108101356D01*
X117458722Y-108176663D01*
X117460143Y-108240286D01*
X117464114Y-108490657D01*
X117498759Y-108495556D01*
X117530268Y-108492131D01*
X117545708Y-108481041D01*
X117550023Y-108460308D01*
X117553708Y-108416145D01*
X117556469Y-108354146D01*
X117558012Y-108279909D01*
X117558235Y-108241706D01*
X117558457Y-108021783D01*
X117604166Y-108005849D01*
X117636518Y-107995015D01*
X117654115Y-107989962D01*
X117654623Y-107989914D01*
X117656388Y-108003648D01*
X117658329Y-108041730D01*
X117660282Y-108099482D01*
X117662084Y-108172227D01*
X117663343Y-108240286D01*
X117667314Y-108490657D01*
X117754400Y-108490657D01*
X117758396Y-108262240D01*
X117762392Y-108033822D01*
X117804847Y-108011868D01*
X117836192Y-107996793D01*
X117854744Y-107989951D01*
X117855279Y-107989914D01*
X117857833Y-108003663D01*
G37*
X117857833Y-108003663D02*
X117860048Y-108041850D01*
X117861784Y-108099886D01*
X117862899Y-108173180D01*
X117863257Y-108250055D01*
X117863257Y-108510196D01*
X117817326Y-108556127D01*
X117785675Y-108584429D01*
X117757890Y-108595893D01*
X117719915Y-108595168D01*
X117704840Y-108593321D01*
X117657726Y-108587948D01*
X117618756Y-108584869D01*
X117609257Y-108584585D01*
X117577233Y-108586445D01*
X117531432Y-108591114D01*
X117513674Y-108593321D01*
X117470057Y-108596735D01*
X117440745Y-108589320D01*
X117411680Y-108566427D01*
X117401188Y-108556127D01*
X117355257Y-108510196D01*
X117355257Y-108023602D01*
X117392226Y-108006758D01*
X117424059Y-107994282D01*
X117442683Y-107989914D01*
X117447458Y-108003718D01*
X117451921Y-108042286D01*
X117455775Y-108101356D01*
X117458722Y-108176663D01*
X117460143Y-108240286D01*
X117464114Y-108490657D01*
X117498759Y-108495556D01*
X117530268Y-108492131D01*
X117545708Y-108481041D01*
X117550023Y-108460308D01*
X117553708Y-108416145D01*
X117556469Y-108354146D01*
X117558012Y-108279909D01*
X117558235Y-108241706D01*
X117558457Y-108021783D01*
X117604166Y-108005849D01*
X117636518Y-107995015D01*
X117654115Y-107989962D01*
X117654623Y-107989914D01*
X117656388Y-108003648D01*
X117658329Y-108041730D01*
X117660282Y-108099482D01*
X117662084Y-108172227D01*
X117663343Y-108240286D01*
X117667314Y-108490657D01*
X117754400Y-108490657D01*
X117758396Y-108262240D01*
X117762392Y-108033822D01*
X117804847Y-108011868D01*
X117836192Y-107996793D01*
X117854744Y-107989951D01*
X117855279Y-107989914D01*
X117857833Y-108003663D01*
G36*
X117268117Y-108110358D02*
G01*
X117267933Y-108218837D01*
X117267219Y-108302287D01*
X117265675Y-108364704D01*
X117263001Y-108410085D01*
X117258894Y-108442429D01*
X117253055Y-108465733D01*
X117245182Y-108483995D01*
X117239221Y-108494418D01*
X117189855Y-108550945D01*
X117127264Y-108586377D01*
X117058013Y-108599090D01*
X116988668Y-108587463D01*
X116947375Y-108566568D01*
X116904025Y-108530422D01*
X116874481Y-108486276D01*
X116856655Y-108428462D01*
X116848463Y-108351313D01*
X116847302Y-108294714D01*
X116847458Y-108290647D01*
X116948857Y-108290647D01*
X116949476Y-108355550D01*
X116952314Y-108398514D01*
X116958840Y-108426622D01*
X116970523Y-108446953D01*
X116984483Y-108462288D01*
X117031365Y-108491890D01*
X117081701Y-108494419D01*
X117129276Y-108469705D01*
X117132979Y-108466356D01*
X117148783Y-108448935D01*
X117158693Y-108428209D01*
X117164058Y-108397362D01*
X117166228Y-108349577D01*
X117166571Y-108296748D01*
X117165827Y-108230381D01*
X117162748Y-108186106D01*
X117156061Y-108157009D01*
X117144496Y-108136173D01*
X117135013Y-108125107D01*
X117090960Y-108097198D01*
X117040224Y-108093843D01*
X116991796Y-108115159D01*
X116982450Y-108123073D01*
X116966540Y-108140647D01*
X116956610Y-108161587D01*
X116951278Y-108192782D01*
X116949163Y-108241122D01*
X116948857Y-108290647D01*
X116847458Y-108290647D01*
X116850810Y-108203568D01*
X116862726Y-108135086D01*
X116885135Y-108083600D01*
X116920124Y-108043443D01*
X116947375Y-108022861D01*
X116996907Y-108000625D01*
X117054316Y-107990304D01*
X117107682Y-107993067D01*
X117137543Y-108004212D01*
X117149261Y-108007383D01*
X117157037Y-107995557D01*
X117162465Y-107963866D01*
X117166571Y-107915593D01*
X117171067Y-107861829D01*
X117177313Y-107829482D01*
X117188676Y-107810985D01*
X117208528Y-107798770D01*
X117221000Y-107793362D01*
X117268171Y-107773601D01*
X117268117Y-108110358D01*
G37*
X117268117Y-108110358D02*
X117267933Y-108218837D01*
X117267219Y-108302287D01*
X117265675Y-108364704D01*
X117263001Y-108410085D01*
X117258894Y-108442429D01*
X117253055Y-108465733D01*
X117245182Y-108483995D01*
X117239221Y-108494418D01*
X117189855Y-108550945D01*
X117127264Y-108586377D01*
X117058013Y-108599090D01*
X116988668Y-108587463D01*
X116947375Y-108566568D01*
X116904025Y-108530422D01*
X116874481Y-108486276D01*
X116856655Y-108428462D01*
X116848463Y-108351313D01*
X116847302Y-108294714D01*
X116847458Y-108290647D01*
X116948857Y-108290647D01*
X116949476Y-108355550D01*
X116952314Y-108398514D01*
X116958840Y-108426622D01*
X116970523Y-108446953D01*
X116984483Y-108462288D01*
X117031365Y-108491890D01*
X117081701Y-108494419D01*
X117129276Y-108469705D01*
X117132979Y-108466356D01*
X117148783Y-108448935D01*
X117158693Y-108428209D01*
X117164058Y-108397362D01*
X117166228Y-108349577D01*
X117166571Y-108296748D01*
X117165827Y-108230381D01*
X117162748Y-108186106D01*
X117156061Y-108157009D01*
X117144496Y-108136173D01*
X117135013Y-108125107D01*
X117090960Y-108097198D01*
X117040224Y-108093843D01*
X116991796Y-108115159D01*
X116982450Y-108123073D01*
X116966540Y-108140647D01*
X116956610Y-108161587D01*
X116951278Y-108192782D01*
X116949163Y-108241122D01*
X116948857Y-108290647D01*
X116847458Y-108290647D01*
X116850810Y-108203568D01*
X116862726Y-108135086D01*
X116885135Y-108083600D01*
X116920124Y-108043443D01*
X116947375Y-108022861D01*
X116996907Y-108000625D01*
X117054316Y-107990304D01*
X117107682Y-107993067D01*
X117137543Y-108004212D01*
X117149261Y-108007383D01*
X117157037Y-107995557D01*
X117162465Y-107963866D01*
X117166571Y-107915593D01*
X117171067Y-107861829D01*
X117177313Y-107829482D01*
X117188676Y-107810985D01*
X117208528Y-107798770D01*
X117221000Y-107793362D01*
X117268171Y-107773601D01*
X117268117Y-108110358D01*
G36*
X116607926Y-107994755D02*
G01*
X116673858Y-108019084D01*
X116727273Y-108062117D01*
X116748164Y-108092409D01*
X116770939Y-108147994D01*
X116770466Y-108188186D01*
X116746562Y-108215217D01*
X116737717Y-108219813D01*
X116699530Y-108234144D01*
X116680028Y-108230472D01*
X116673422Y-108206407D01*
X116673086Y-108193114D01*
X116660992Y-108144210D01*
X116629471Y-108109999D01*
X116585659Y-108093476D01*
X116536695Y-108097634D01*
X116496894Y-108119227D01*
X116483450Y-108131544D01*
X116473921Y-108146487D01*
X116467485Y-108169075D01*
X116463317Y-108204328D01*
X116460597Y-108257266D01*
X116458502Y-108332907D01*
X116457960Y-108356857D01*
X116455981Y-108438790D01*
X116453731Y-108496455D01*
X116450357Y-108534608D01*
X116445006Y-108558004D01*
X116436824Y-108571398D01*
X116424959Y-108579545D01*
X116417362Y-108583144D01*
X116385102Y-108595452D01*
X116366111Y-108599514D01*
X116359836Y-108585948D01*
X116356006Y-108544934D01*
X116354600Y-108475999D01*
X116355598Y-108378669D01*
X116355908Y-108363657D01*
X116358101Y-108274859D01*
X116360693Y-108210019D01*
X116364382Y-108164067D01*
X116369864Y-108131935D01*
X116377835Y-108108553D01*
X116388993Y-108088852D01*
X116394830Y-108080410D01*
X116428296Y-108043057D01*
X116465727Y-108014003D01*
X116470309Y-108011467D01*
X116537426Y-107991443D01*
X116607926Y-107994755D01*
G37*
X116607926Y-107994755D02*
X116673858Y-108019084D01*
X116727273Y-108062117D01*
X116748164Y-108092409D01*
X116770939Y-108147994D01*
X116770466Y-108188186D01*
X116746562Y-108215217D01*
X116737717Y-108219813D01*
X116699530Y-108234144D01*
X116680028Y-108230472D01*
X116673422Y-108206407D01*
X116673086Y-108193114D01*
X116660992Y-108144210D01*
X116629471Y-108109999D01*
X116585659Y-108093476D01*
X116536695Y-108097634D01*
X116496894Y-108119227D01*
X116483450Y-108131544D01*
X116473921Y-108146487D01*
X116467485Y-108169075D01*
X116463317Y-108204328D01*
X116460597Y-108257266D01*
X116458502Y-108332907D01*
X116457960Y-108356857D01*
X116455981Y-108438790D01*
X116453731Y-108496455D01*
X116450357Y-108534608D01*
X116445006Y-108558004D01*
X116436824Y-108571398D01*
X116424959Y-108579545D01*
X116417362Y-108583144D01*
X116385102Y-108595452D01*
X116366111Y-108599514D01*
X116359836Y-108585948D01*
X116356006Y-108544934D01*
X116354600Y-108475999D01*
X116355598Y-108378669D01*
X116355908Y-108363657D01*
X116358101Y-108274859D01*
X116360693Y-108210019D01*
X116364382Y-108164067D01*
X116369864Y-108131935D01*
X116377835Y-108108553D01*
X116388993Y-108088852D01*
X116394830Y-108080410D01*
X116428296Y-108043057D01*
X116465727Y-108014003D01*
X116470309Y-108011467D01*
X116537426Y-107991443D01*
X116607926Y-107994755D01*
G36*
X116117744Y-107995968D02*
G01*
X116174616Y-108017087D01*
X116175267Y-108017493D01*
X116210440Y-108043380D01*
X116236407Y-108073633D01*
X116254670Y-108113058D01*
X116266732Y-108166462D01*
X116274096Y-108238651D01*
X116278264Y-108334432D01*
X116278629Y-108348078D01*
X116283876Y-108553842D01*
X116239716Y-108576678D01*
X116207763Y-108592110D01*
X116188470Y-108599423D01*
X116187578Y-108599514D01*
X116184239Y-108586022D01*
X116181587Y-108549626D01*
X116179956Y-108496452D01*
X116179600Y-108453393D01*
X116179592Y-108383641D01*
X116176403Y-108339837D01*
X116165288Y-108318944D01*
X116141501Y-108317925D01*
X116100296Y-108333741D01*
X116038086Y-108362815D01*
X115992341Y-108386963D01*
X115968813Y-108407913D01*
X115961896Y-108430747D01*
X115961886Y-108431877D01*
X115973299Y-108471212D01*
X116007092Y-108492462D01*
X116058809Y-108495539D01*
X116096061Y-108495006D01*
X116115703Y-108505735D01*
X116127952Y-108531505D01*
X116135002Y-108564337D01*
X116124842Y-108582966D01*
X116121017Y-108585632D01*
X116085001Y-108596340D01*
X116034566Y-108597856D01*
X115982626Y-108590759D01*
X115945822Y-108577788D01*
X115894938Y-108534585D01*
X115866014Y-108474446D01*
X115860286Y-108427462D01*
X115864657Y-108385082D01*
X115880475Y-108350488D01*
X115911797Y-108319763D01*
X115962678Y-108288990D01*
X116037176Y-108254252D01*
X116041714Y-108252288D01*
X116108821Y-108221287D01*
X116150232Y-108195862D01*
X116167981Y-108173014D01*
X116164107Y-108149745D01*
X116140643Y-108123056D01*
X116133627Y-108116914D01*
X116086630Y-108093100D01*
X116037933Y-108094103D01*
X115995522Y-108117451D01*
X115967384Y-108160675D01*
X115964769Y-108169160D01*
X115939308Y-108210308D01*
X115907001Y-108230128D01*
X115860286Y-108249770D01*
X115860286Y-108198950D01*
X115874496Y-108125082D01*
X115916675Y-108057327D01*
X115938624Y-108034661D01*
X115988517Y-108005569D01*
X116051967Y-107992400D01*
X116117744Y-107995968D01*
G37*
X116117744Y-107995968D02*
X116174616Y-108017087D01*
X116175267Y-108017493D01*
X116210440Y-108043380D01*
X116236407Y-108073633D01*
X116254670Y-108113058D01*
X116266732Y-108166462D01*
X116274096Y-108238651D01*
X116278264Y-108334432D01*
X116278629Y-108348078D01*
X116283876Y-108553842D01*
X116239716Y-108576678D01*
X116207763Y-108592110D01*
X116188470Y-108599423D01*
X116187578Y-108599514D01*
X116184239Y-108586022D01*
X116181587Y-108549626D01*
X116179956Y-108496452D01*
X116179600Y-108453393D01*
X116179592Y-108383641D01*
X116176403Y-108339837D01*
X116165288Y-108318944D01*
X116141501Y-108317925D01*
X116100296Y-108333741D01*
X116038086Y-108362815D01*
X115992341Y-108386963D01*
X115968813Y-108407913D01*
X115961896Y-108430747D01*
X115961886Y-108431877D01*
X115973299Y-108471212D01*
X116007092Y-108492462D01*
X116058809Y-108495539D01*
X116096061Y-108495006D01*
X116115703Y-108505735D01*
X116127952Y-108531505D01*
X116135002Y-108564337D01*
X116124842Y-108582966D01*
X116121017Y-108585632D01*
X116085001Y-108596340D01*
X116034566Y-108597856D01*
X115982626Y-108590759D01*
X115945822Y-108577788D01*
X115894938Y-108534585D01*
X115866014Y-108474446D01*
X115860286Y-108427462D01*
X115864657Y-108385082D01*
X115880475Y-108350488D01*
X115911797Y-108319763D01*
X115962678Y-108288990D01*
X116037176Y-108254252D01*
X116041714Y-108252288D01*
X116108821Y-108221287D01*
X116150232Y-108195862D01*
X116167981Y-108173014D01*
X116164107Y-108149745D01*
X116140643Y-108123056D01*
X116133627Y-108116914D01*
X116086630Y-108093100D01*
X116037933Y-108094103D01*
X115995522Y-108117451D01*
X115967384Y-108160675D01*
X115964769Y-108169160D01*
X115939308Y-108210308D01*
X115907001Y-108230128D01*
X115860286Y-108249770D01*
X115860286Y-108198950D01*
X115874496Y-108125082D01*
X115916675Y-108057327D01*
X115938624Y-108034661D01*
X115988517Y-108005569D01*
X116051967Y-107992400D01*
X116117744Y-107995968D01*
G36*
X115453886Y-107896289D02*
G01*
X115458139Y-107955613D01*
X115463025Y-107990572D01*
X115469795Y-108005820D01*
X115479702Y-108006015D01*
X115482914Y-108004195D01*
X115525644Y-107991015D01*
X115581227Y-107991785D01*
X115637737Y-108005333D01*
X115673082Y-108022861D01*
X115709321Y-108050861D01*
X115735813Y-108082549D01*
X115753999Y-108122813D01*
X115765322Y-108176543D01*
X115771222Y-108248626D01*
X115773143Y-108343951D01*
X115773177Y-108362237D01*
X115773200Y-108567646D01*
X115727491Y-108583580D01*
X115695027Y-108594420D01*
X115677215Y-108599468D01*
X115676691Y-108599514D01*
X115674937Y-108585828D01*
X115673444Y-108548076D01*
X115672326Y-108491224D01*
X115671697Y-108420234D01*
X115671600Y-108377073D01*
X115671398Y-108291973D01*
X115670358Y-108230981D01*
X115667831Y-108189177D01*
X115663164Y-108161642D01*
X115655707Y-108143456D01*
X115644811Y-108129698D01*
X115638007Y-108123073D01*
X115591272Y-108096375D01*
X115540272Y-108094375D01*
X115494001Y-108116955D01*
X115485444Y-108125107D01*
X115472893Y-108140436D01*
X115464188Y-108158618D01*
X115458631Y-108184909D01*
X115455526Y-108224562D01*
X115454176Y-108282832D01*
X115453886Y-108363173D01*
X115453886Y-108567646D01*
X115408177Y-108583580D01*
X115375713Y-108594420D01*
X115357901Y-108599468D01*
X115357377Y-108599514D01*
X115356037Y-108585623D01*
X115354828Y-108546439D01*
X115353801Y-108485700D01*
X115353002Y-108407141D01*
X115352481Y-108314498D01*
X115352286Y-108211509D01*
X115352286Y-107814342D01*
X115399457Y-107794444D01*
X115446629Y-107774547D01*
X115453886Y-107896289D01*
G37*
X115453886Y-107896289D02*
X115458139Y-107955613D01*
X115463025Y-107990572D01*
X115469795Y-108005820D01*
X115479702Y-108006015D01*
X115482914Y-108004195D01*
X115525644Y-107991015D01*
X115581227Y-107991785D01*
X115637737Y-108005333D01*
X115673082Y-108022861D01*
X115709321Y-108050861D01*
X115735813Y-108082549D01*
X115753999Y-108122813D01*
X115765322Y-108176543D01*
X115771222Y-108248626D01*
X115773143Y-108343951D01*
X115773177Y-108362237D01*
X115773200Y-108567646D01*
X115727491Y-108583580D01*
X115695027Y-108594420D01*
X115677215Y-108599468D01*
X115676691Y-108599514D01*
X115674937Y-108585828D01*
X115673444Y-108548076D01*
X115672326Y-108491224D01*
X115671697Y-108420234D01*
X115671600Y-108377073D01*
X115671398Y-108291973D01*
X115670358Y-108230981D01*
X115667831Y-108189177D01*
X115663164Y-108161642D01*
X115655707Y-108143456D01*
X115644811Y-108129698D01*
X115638007Y-108123073D01*
X115591272Y-108096375D01*
X115540272Y-108094375D01*
X115494001Y-108116955D01*
X115485444Y-108125107D01*
X115472893Y-108140436D01*
X115464188Y-108158618D01*
X115458631Y-108184909D01*
X115455526Y-108224562D01*
X115454176Y-108282832D01*
X115453886Y-108363173D01*
X115453886Y-108567646D01*
X115408177Y-108583580D01*
X115375713Y-108594420D01*
X115357901Y-108599468D01*
X115357377Y-108599514D01*
X115356037Y-108585623D01*
X115354828Y-108546439D01*
X115353801Y-108485700D01*
X115353002Y-108407141D01*
X115352481Y-108314498D01*
X115352286Y-108211509D01*
X115352286Y-107814342D01*
X115399457Y-107794444D01*
X115446629Y-107774547D01*
X115453886Y-107896289D01*
G36*
X114246303Y-107976239D02*
G01*
X114303527Y-108014735D01*
X114347749Y-108070335D01*
X114374167Y-108141086D01*
X114379510Y-108193162D01*
X114378903Y-108214893D01*
X114373822Y-108231531D01*
X114359855Y-108246437D01*
X114332589Y-108262973D01*
X114287612Y-108284498D01*
X114220511Y-108314374D01*
X114220171Y-108314524D01*
X114158407Y-108342813D01*
X114107759Y-108367933D01*
X114073404Y-108387179D01*
X114060518Y-108397848D01*
X114060514Y-108397934D01*
X114071872Y-108421166D01*
X114098431Y-108446774D01*
X114128923Y-108465221D01*
X114144370Y-108468886D01*
X114186515Y-108456212D01*
X114222808Y-108424471D01*
X114240517Y-108389572D01*
X114257552Y-108363845D01*
X114290922Y-108334546D01*
X114330149Y-108309235D01*
X114364756Y-108295471D01*
X114371993Y-108294714D01*
X114380139Y-108307160D01*
X114380630Y-108338972D01*
X114374643Y-108381866D01*
X114363357Y-108427558D01*
X114347950Y-108467761D01*
X114347171Y-108469322D01*
X114300804Y-108534062D01*
X114240711Y-108578097D01*
X114172465Y-108599711D01*
X114101638Y-108597185D01*
X114033804Y-108568804D01*
X114030788Y-108566808D01*
X113977427Y-108518448D01*
X113942340Y-108455352D01*
X113922922Y-108372387D01*
X113920316Y-108349078D01*
X113915701Y-108239055D01*
X113921233Y-108187748D01*
X114060514Y-108187748D01*
X114062324Y-108219753D01*
X114072222Y-108229093D01*
X114096898Y-108222105D01*
X114135795Y-108205587D01*
X114179275Y-108184881D01*
X114180356Y-108184333D01*
X114217209Y-108164949D01*
X114232000Y-108152013D01*
X114228353Y-108138451D01*
X114212995Y-108120632D01*
X114173923Y-108094845D01*
X114131846Y-108092950D01*
X114094103Y-108111717D01*
X114068034Y-108147915D01*
X114060514Y-108187748D01*
X113921233Y-108187748D01*
X113925194Y-108151027D01*
X113949550Y-108081212D01*
X113983456Y-108032302D01*
X114044653Y-107982878D01*
X114112063Y-107958359D01*
X114180880Y-107956797D01*
X114246303Y-107976239D01*
G37*
X114246303Y-107976239D02*
X114303527Y-108014735D01*
X114347749Y-108070335D01*
X114374167Y-108141086D01*
X114379510Y-108193162D01*
X114378903Y-108214893D01*
X114373822Y-108231531D01*
X114359855Y-108246437D01*
X114332589Y-108262973D01*
X114287612Y-108284498D01*
X114220511Y-108314374D01*
X114220171Y-108314524D01*
X114158407Y-108342813D01*
X114107759Y-108367933D01*
X114073404Y-108387179D01*
X114060518Y-108397848D01*
X114060514Y-108397934D01*
X114071872Y-108421166D01*
X114098431Y-108446774D01*
X114128923Y-108465221D01*
X114144370Y-108468886D01*
X114186515Y-108456212D01*
X114222808Y-108424471D01*
X114240517Y-108389572D01*
X114257552Y-108363845D01*
X114290922Y-108334546D01*
X114330149Y-108309235D01*
X114364756Y-108295471D01*
X114371993Y-108294714D01*
X114380139Y-108307160D01*
X114380630Y-108338972D01*
X114374643Y-108381866D01*
X114363357Y-108427558D01*
X114347950Y-108467761D01*
X114347171Y-108469322D01*
X114300804Y-108534062D01*
X114240711Y-108578097D01*
X114172465Y-108599711D01*
X114101638Y-108597185D01*
X114033804Y-108568804D01*
X114030788Y-108566808D01*
X113977427Y-108518448D01*
X113942340Y-108455352D01*
X113922922Y-108372387D01*
X113920316Y-108349078D01*
X113915701Y-108239055D01*
X113921233Y-108187748D01*
X114060514Y-108187748D01*
X114062324Y-108219753D01*
X114072222Y-108229093D01*
X114096898Y-108222105D01*
X114135795Y-108205587D01*
X114179275Y-108184881D01*
X114180356Y-108184333D01*
X114217209Y-108164949D01*
X114232000Y-108152013D01*
X114228353Y-108138451D01*
X114212995Y-108120632D01*
X114173923Y-108094845D01*
X114131846Y-108092950D01*
X114094103Y-108111717D01*
X114068034Y-108147915D01*
X114060514Y-108187748D01*
X113921233Y-108187748D01*
X113925194Y-108151027D01*
X113949550Y-108081212D01*
X113983456Y-108032302D01*
X114044653Y-107982878D01*
X114112063Y-107958359D01*
X114180880Y-107956797D01*
X114246303Y-107976239D01*
G36*
X113119115Y-107966962D02*
G01*
X113187145Y-108002733D01*
X113237351Y-108060301D01*
X113255185Y-108097312D01*
X113269063Y-108152882D01*
X113276167Y-108223096D01*
X113276840Y-108299727D01*
X113271427Y-108374552D01*
X113260270Y-108439342D01*
X113243714Y-108485873D01*
X113238626Y-108493887D01*
X113178355Y-108553707D01*
X113106769Y-108589535D01*
X113029092Y-108600020D01*
X112950548Y-108583810D01*
X112928689Y-108574092D01*
X112886122Y-108544143D01*
X112848763Y-108504433D01*
X112845232Y-108499397D01*
X112830881Y-108475124D01*
X112821394Y-108449178D01*
X112815790Y-108415022D01*
X112813086Y-108366119D01*
X112812299Y-108295935D01*
X112812286Y-108280200D01*
X112812322Y-108275192D01*
X112957429Y-108275192D01*
X112958273Y-108341430D01*
X112961596Y-108385386D01*
X112968583Y-108413779D01*
X112980416Y-108433325D01*
X112986457Y-108439857D01*
X113021186Y-108464680D01*
X113054903Y-108463548D01*
X113088995Y-108442016D01*
X113109329Y-108419029D01*
X113121371Y-108385478D01*
X113128134Y-108332569D01*
X113128598Y-108326399D01*
X113129752Y-108230513D01*
X113117688Y-108159299D01*
X113092570Y-108113194D01*
X113054560Y-108092635D01*
X113040992Y-108091514D01*
X113005364Y-108097152D01*
X112980994Y-108116686D01*
X112966093Y-108154042D01*
X112958875Y-108213150D01*
X112957429Y-108275192D01*
X112812322Y-108275192D01*
X112812826Y-108205413D01*
X112815096Y-108153159D01*
X112820068Y-108116949D01*
X112828713Y-108090299D01*
X112842005Y-108066722D01*
X112844943Y-108062338D01*
X112894313Y-108003249D01*
X112948109Y-107968947D01*
X113013602Y-107955331D01*
X113035842Y-107954665D01*
X113119115Y-107966962D01*
G37*
X113119115Y-107966962D02*
X113187145Y-108002733D01*
X113237351Y-108060301D01*
X113255185Y-108097312D01*
X113269063Y-108152882D01*
X113276167Y-108223096D01*
X113276840Y-108299727D01*
X113271427Y-108374552D01*
X113260270Y-108439342D01*
X113243714Y-108485873D01*
X113238626Y-108493887D01*
X113178355Y-108553707D01*
X113106769Y-108589535D01*
X113029092Y-108600020D01*
X112950548Y-108583810D01*
X112928689Y-108574092D01*
X112886122Y-108544143D01*
X112848763Y-108504433D01*
X112845232Y-108499397D01*
X112830881Y-108475124D01*
X112821394Y-108449178D01*
X112815790Y-108415022D01*
X112813086Y-108366119D01*
X112812299Y-108295935D01*
X112812286Y-108280200D01*
X112812322Y-108275192D01*
X112957429Y-108275192D01*
X112958273Y-108341430D01*
X112961596Y-108385386D01*
X112968583Y-108413779D01*
X112980416Y-108433325D01*
X112986457Y-108439857D01*
X113021186Y-108464680D01*
X113054903Y-108463548D01*
X113088995Y-108442016D01*
X113109329Y-108419029D01*
X113121371Y-108385478D01*
X113128134Y-108332569D01*
X113128598Y-108326399D01*
X113129752Y-108230513D01*
X113117688Y-108159299D01*
X113092570Y-108113194D01*
X113054560Y-108092635D01*
X113040992Y-108091514D01*
X113005364Y-108097152D01*
X112980994Y-108116686D01*
X112966093Y-108154042D01*
X112958875Y-108213150D01*
X112957429Y-108275192D01*
X112812322Y-108275192D01*
X112812826Y-108205413D01*
X112815096Y-108153159D01*
X112820068Y-108116949D01*
X112828713Y-108090299D01*
X112842005Y-108066722D01*
X112844943Y-108062338D01*
X112894313Y-108003249D01*
X112948109Y-107968947D01*
X113013602Y-107955331D01*
X113035842Y-107954665D01*
X113119115Y-107966962D01*
G36*
X114794093Y-107972780D02*
G01*
X114840672Y-107999723D01*
X114873057Y-108026466D01*
X114896742Y-108054484D01*
X114913059Y-108088748D01*
X114923339Y-108134227D01*
X114928914Y-108195892D01*
X114931116Y-108278711D01*
X114931371Y-108338246D01*
X114931371Y-108557391D01*
X114869686Y-108585044D01*
X114808000Y-108612697D01*
X114800743Y-108372670D01*
X114797744Y-108283028D01*
X114794598Y-108217962D01*
X114790701Y-108173026D01*
X114785447Y-108143770D01*
X114778231Y-108125748D01*
X114768450Y-108114511D01*
X114765312Y-108112079D01*
X114717761Y-108093083D01*
X114669697Y-108100600D01*
X114641086Y-108120543D01*
X114629447Y-108134675D01*
X114621391Y-108153220D01*
X114616271Y-108181334D01*
X114613441Y-108224173D01*
X114612256Y-108286895D01*
X114612057Y-108352261D01*
X114612018Y-108434268D01*
X114610614Y-108492316D01*
X114605914Y-108531465D01*
X114595987Y-108556780D01*
X114578903Y-108573323D01*
X114552732Y-108586156D01*
X114517775Y-108599491D01*
X114479596Y-108614007D01*
X114484141Y-108356389D01*
X114485971Y-108263519D01*
X114488112Y-108194889D01*
X114491181Y-108145711D01*
X114495794Y-108111198D01*
X114502568Y-108086562D01*
X114512119Y-108067016D01*
X114523634Y-108049770D01*
X114579190Y-107994680D01*
X114646980Y-107962822D01*
X114720713Y-107955191D01*
X114794093Y-107972780D01*
G37*
X114794093Y-107972780D02*
X114840672Y-107999723D01*
X114873057Y-108026466D01*
X114896742Y-108054484D01*
X114913059Y-108088748D01*
X114923339Y-108134227D01*
X114928914Y-108195892D01*
X114931116Y-108278711D01*
X114931371Y-108338246D01*
X114931371Y-108557391D01*
X114869686Y-108585044D01*
X114808000Y-108612697D01*
X114800743Y-108372670D01*
X114797744Y-108283028D01*
X114794598Y-108217962D01*
X114790701Y-108173026D01*
X114785447Y-108143770D01*
X114778231Y-108125748D01*
X114768450Y-108114511D01*
X114765312Y-108112079D01*
X114717761Y-108093083D01*
X114669697Y-108100600D01*
X114641086Y-108120543D01*
X114629447Y-108134675D01*
X114621391Y-108153220D01*
X114616271Y-108181334D01*
X114613441Y-108224173D01*
X114612256Y-108286895D01*
X114612057Y-108352261D01*
X114612018Y-108434268D01*
X114610614Y-108492316D01*
X114605914Y-108531465D01*
X114595987Y-108556780D01*
X114578903Y-108573323D01*
X114552732Y-108586156D01*
X114517775Y-108599491D01*
X114479596Y-108614007D01*
X114484141Y-108356389D01*
X114485971Y-108263519D01*
X114488112Y-108194889D01*
X114491181Y-108145711D01*
X114495794Y-108111198D01*
X114502568Y-108086562D01*
X114512119Y-108067016D01*
X114523634Y-108049770D01*
X114579190Y-107994680D01*
X114646980Y-107962822D01*
X114720713Y-107955191D01*
X114794093Y-107972780D01*
G36*
X113677744Y-107964918D02*
G01*
X113733201Y-107992568D01*
X113782148Y-108043480D01*
X113795629Y-108062338D01*
X113810314Y-108087015D01*
X113819842Y-108113816D01*
X113825293Y-108149587D01*
X113827747Y-108201169D01*
X113828286Y-108269267D01*
X113825852Y-108362588D01*
X113817394Y-108432657D01*
X113801174Y-108484931D01*
X113775454Y-108524869D01*
X113738497Y-108557929D01*
X113735782Y-108559886D01*
X113699360Y-108579908D01*
X113655502Y-108589815D01*
X113599724Y-108592257D01*
X113509048Y-108592257D01*
X113509010Y-108680283D01*
X113508166Y-108729308D01*
X113503024Y-108758065D01*
X113489587Y-108775311D01*
X113463858Y-108789808D01*
X113457679Y-108792769D01*
X113428764Y-108806648D01*
X113406376Y-108815414D01*
X113389729Y-108816171D01*
X113378036Y-108806023D01*
X113370510Y-108782073D01*
X113366366Y-108741426D01*
X113364815Y-108681186D01*
X113365071Y-108598455D01*
X113366349Y-108490339D01*
X113366748Y-108458000D01*
X113368185Y-108346524D01*
X113369472Y-108273603D01*
X113508971Y-108273603D01*
X113509755Y-108335499D01*
X113513240Y-108375997D01*
X113521124Y-108402708D01*
X113535105Y-108423244D01*
X113544597Y-108433260D01*
X113583404Y-108462567D01*
X113617763Y-108464952D01*
X113653216Y-108440750D01*
X113654114Y-108439857D01*
X113668539Y-108421153D01*
X113677313Y-108395732D01*
X113681739Y-108356584D01*
X113683118Y-108296697D01*
X113683143Y-108283430D01*
X113679812Y-108200901D01*
X113668969Y-108143691D01*
X113649340Y-108108766D01*
X113619650Y-108093094D01*
X113602491Y-108091514D01*
X113561766Y-108098926D01*
X113533832Y-108123330D01*
X113517017Y-108167980D01*
X113509650Y-108236130D01*
X113508971Y-108273603D01*
X113369472Y-108273603D01*
X113369708Y-108260245D01*
X113371677Y-108195333D01*
X113374450Y-108147958D01*
X113378388Y-108114290D01*
X113383849Y-108090498D01*
X113391192Y-108072753D01*
X113400777Y-108057224D01*
X113404887Y-108051381D01*
X113459405Y-107996185D01*
X113528336Y-107964890D01*
X113608072Y-107956165D01*
X113677744Y-107964918D01*
G37*
X113677744Y-107964918D02*
X113733201Y-107992568D01*
X113782148Y-108043480D01*
X113795629Y-108062338D01*
X113810314Y-108087015D01*
X113819842Y-108113816D01*
X113825293Y-108149587D01*
X113827747Y-108201169D01*
X113828286Y-108269267D01*
X113825852Y-108362588D01*
X113817394Y-108432657D01*
X113801174Y-108484931D01*
X113775454Y-108524869D01*
X113738497Y-108557929D01*
X113735782Y-108559886D01*
X113699360Y-108579908D01*
X113655502Y-108589815D01*
X113599724Y-108592257D01*
X113509048Y-108592257D01*
X113509010Y-108680283D01*
X113508166Y-108729308D01*
X113503024Y-108758065D01*
X113489587Y-108775311D01*
X113463858Y-108789808D01*
X113457679Y-108792769D01*
X113428764Y-108806648D01*
X113406376Y-108815414D01*
X113389729Y-108816171D01*
X113378036Y-108806023D01*
X113370510Y-108782073D01*
X113366366Y-108741426D01*
X113364815Y-108681186D01*
X113365071Y-108598455D01*
X113366349Y-108490339D01*
X113366748Y-108458000D01*
X113368185Y-108346524D01*
X113369472Y-108273603D01*
X113508971Y-108273603D01*
X113509755Y-108335499D01*
X113513240Y-108375997D01*
X113521124Y-108402708D01*
X113535105Y-108423244D01*
X113544597Y-108433260D01*
X113583404Y-108462567D01*
X113617763Y-108464952D01*
X113653216Y-108440750D01*
X113654114Y-108439857D01*
X113668539Y-108421153D01*
X113677313Y-108395732D01*
X113681739Y-108356584D01*
X113683118Y-108296697D01*
X113683143Y-108283430D01*
X113679812Y-108200901D01*
X113668969Y-108143691D01*
X113649340Y-108108766D01*
X113619650Y-108093094D01*
X113602491Y-108091514D01*
X113561766Y-108098926D01*
X113533832Y-108123330D01*
X113517017Y-108167980D01*
X113509650Y-108236130D01*
X113508971Y-108273603D01*
X113369472Y-108273603D01*
X113369708Y-108260245D01*
X113371677Y-108195333D01*
X113374450Y-108147958D01*
X113378388Y-108114290D01*
X113383849Y-108090498D01*
X113391192Y-108072753D01*
X113400777Y-108057224D01*
X113404887Y-108051381D01*
X113459405Y-107996185D01*
X113528336Y-107964890D01*
X113608072Y-107956165D01*
X113677744Y-107964918D01*
D13*
%TO.C,R9*%
X122098000Y-106045000D02*
X123048000Y-106045000D01*
X127838000Y-106045000D02*
X126888000Y-106045000D01*
X123048000Y-106965000D02*
X126888000Y-106965000D01*
X123048000Y-105125000D02*
X123048000Y-106965000D01*
X126888000Y-105125000D02*
X123048000Y-105125000D01*
X126888000Y-106965000D02*
X126888000Y-105125000D01*
%TO.C,D3*%
X136688000Y-115125000D02*
X136688000Y-114969000D01*
X136688000Y-117441000D02*
X136688000Y-117285000D01*
X134086870Y-115125163D02*
G75*
G02*
X136168961Y-115125000I1041130J-1079837D01*
G01*
X134086870Y-117284837D02*
G75*
G03*
X136168961Y-117285000I1041130J1079837D01*
G01*
X133455665Y-115126392D02*
G75*
G02*
X136688000Y-114969484I1672335J-1078608D01*
G01*
X133455665Y-117283608D02*
G75*
G03*
X136688000Y-117440516I1672335J1078608D01*
G01*
%TO.C,Q2*%
X133018000Y-92745000D02*
X133018000Y-88895000D01*
X132430264Y-88502617D02*
G75*
G02*
X133018000Y-88895000I-1112264J-2302383D01*
G01*
X130219193Y-88448600D02*
G75*
G03*
X128718000Y-90805000I1098807J-2356400D01*
G01*
X130219193Y-93161400D02*
G75*
G02*
X128718000Y-90805000I1098807J2356400D01*
G01*
X132440045Y-93127631D02*
G75*
G03*
X133018000Y-92745000I-1122045J2322631D01*
G01*
%TO.C,Q1*%
X133018000Y-105445000D02*
X133018000Y-101595000D01*
X132430264Y-101202617D02*
G75*
G02*
X133018000Y-101595000I-1112264J-2302383D01*
G01*
X130219193Y-101148600D02*
G75*
G03*
X128718000Y-103505000I1098807J-2356400D01*
G01*
X130219193Y-105861400D02*
G75*
G02*
X128718000Y-103505000I1098807J2356400D01*
G01*
X132440045Y-105827631D02*
G75*
G03*
X133018000Y-105445000I-1122045J2322631D01*
G01*
%TO.C,SW2*%
X173148000Y-99885000D02*
X163148000Y-99885000D01*
X163148000Y-99885000D02*
X163148000Y-91885000D01*
X173148000Y-91885000D02*
X163148000Y-91885000D01*
X173148000Y-99885000D02*
X173148000Y-91885000D01*
%TO.C,SW1*%
X173148000Y-89725000D02*
X163148000Y-89725000D01*
X163148000Y-89725000D02*
X163148000Y-81725000D01*
X173148000Y-81725000D02*
X163148000Y-81725000D01*
X173148000Y-89725000D02*
X173148000Y-81725000D01*
%TO.C,R8*%
X137338000Y-85725000D02*
X138288000Y-85725000D01*
X143078000Y-85725000D02*
X142128000Y-85725000D01*
X138288000Y-86645000D02*
X142128000Y-86645000D01*
X138288000Y-84805000D02*
X138288000Y-86645000D01*
X142128000Y-84805000D02*
X138288000Y-84805000D01*
X142128000Y-86645000D02*
X142128000Y-84805000D01*
%TO.C,R7*%
X137338000Y-83185000D02*
X138288000Y-83185000D01*
X143078000Y-83185000D02*
X142128000Y-83185000D01*
X138288000Y-84105000D02*
X142128000Y-84105000D01*
X138288000Y-82265000D02*
X138288000Y-84105000D01*
X142128000Y-82265000D02*
X138288000Y-82265000D01*
X142128000Y-84105000D02*
X142128000Y-82265000D01*
%TO.C,R6*%
X133858000Y-91745000D02*
X133858000Y-92695000D01*
X133858000Y-97485000D02*
X133858000Y-96535000D01*
X132938000Y-92695000D02*
X132938000Y-96535000D01*
X134778000Y-92695000D02*
X132938000Y-92695000D01*
X134778000Y-96535000D02*
X134778000Y-92695000D01*
X132938000Y-96535000D02*
X134778000Y-96535000D01*
%TO.C,R5*%
X133858000Y-104445000D02*
X133858000Y-105395000D01*
X133858000Y-110185000D02*
X133858000Y-109235000D01*
X132938000Y-105395000D02*
X132938000Y-109235000D01*
X134778000Y-105395000D02*
X132938000Y-105395000D01*
X134778000Y-109235000D02*
X134778000Y-105395000D01*
X132938000Y-109235000D02*
X134778000Y-109235000D01*
%TO.C,R4*%
X143078000Y-95885000D02*
X142128000Y-95885000D01*
X137338000Y-95885000D02*
X138288000Y-95885000D01*
X142128000Y-94965000D02*
X138288000Y-94965000D01*
X142128000Y-96805000D02*
X142128000Y-94965000D01*
X138288000Y-96805000D02*
X142128000Y-96805000D01*
X138288000Y-94965000D02*
X138288000Y-96805000D01*
%TO.C,R3*%
X143078000Y-108585000D02*
X142128000Y-108585000D01*
X137338000Y-108585000D02*
X138288000Y-108585000D01*
X142128000Y-107665000D02*
X138288000Y-107665000D01*
X142128000Y-109505000D02*
X142128000Y-107665000D01*
X138288000Y-109505000D02*
X142128000Y-109505000D01*
X138288000Y-107665000D02*
X138288000Y-109505000D01*
%TO.C,R2*%
X149098000Y-86665000D02*
X149098000Y-87615000D01*
X149098000Y-92405000D02*
X149098000Y-91455000D01*
X148178000Y-87615000D02*
X148178000Y-91455000D01*
X150018000Y-87615000D02*
X148178000Y-87615000D01*
X150018000Y-91455000D02*
X150018000Y-87615000D01*
X148178000Y-91455000D02*
X150018000Y-91455000D01*
%TO.C,R1*%
X146558000Y-86665000D02*
X146558000Y-87615000D01*
X146558000Y-92405000D02*
X146558000Y-91455000D01*
X145638000Y-87615000D02*
X145638000Y-91455000D01*
X147478000Y-87615000D02*
X145638000Y-87615000D01*
X147478000Y-91455000D02*
X147478000Y-87615000D01*
X145638000Y-91455000D02*
X147478000Y-91455000D01*
%TO.C,J4*%
X127508000Y-86995000D02*
X126238000Y-86995000D01*
X127508000Y-85725000D02*
X127508000Y-86995000D01*
X125195071Y-80265000D02*
X124740929Y-80265000D01*
X125195071Y-81025000D02*
X124740929Y-81025000D01*
X122655071Y-80265000D02*
X122258000Y-80265000D01*
X122655071Y-81025000D02*
X122258000Y-81025000D01*
X113598000Y-80265000D02*
X119598000Y-80265000D01*
X113598000Y-81025000D02*
X113598000Y-80265000D01*
X119598000Y-81025000D02*
X113598000Y-81025000D01*
X122258000Y-81915000D02*
X119598000Y-81915000D01*
X125195071Y-82805000D02*
X124740929Y-82805000D01*
X125195071Y-83565000D02*
X124740929Y-83565000D01*
X122655071Y-82805000D02*
X122258000Y-82805000D01*
X122655071Y-83565000D02*
X122258000Y-83565000D01*
X113598000Y-82805000D02*
X119598000Y-82805000D01*
X113598000Y-83565000D02*
X113598000Y-82805000D01*
X119598000Y-83565000D02*
X113598000Y-83565000D01*
X122258000Y-84455000D02*
X119598000Y-84455000D01*
X125128000Y-85345000D02*
X124740929Y-85345000D01*
X125128000Y-86105000D02*
X124740929Y-86105000D01*
X122655071Y-85345000D02*
X122258000Y-85345000D01*
X122655071Y-86105000D02*
X122258000Y-86105000D01*
X119598000Y-85445000D02*
X113598000Y-85445000D01*
X119598000Y-85565000D02*
X113598000Y-85565000D01*
X119598000Y-85685000D02*
X113598000Y-85685000D01*
X119598000Y-85805000D02*
X113598000Y-85805000D01*
X119598000Y-85925000D02*
X113598000Y-85925000D01*
X119598000Y-86045000D02*
X113598000Y-86045000D01*
X113598000Y-85345000D02*
X119598000Y-85345000D01*
X113598000Y-86105000D02*
X113598000Y-85345000D01*
X119598000Y-86105000D02*
X113598000Y-86105000D01*
X119598000Y-87055000D02*
X122258000Y-87055000D01*
X119598000Y-79315000D02*
X119598000Y-87055000D01*
X122258000Y-79315000D02*
X119598000Y-79315000D01*
X122258000Y-87055000D02*
X122258000Y-79315000D01*
%TO.C,J3*%
X143528000Y-114665000D02*
X139428000Y-114665000D01*
X139428000Y-114665000D02*
X139428000Y-112665000D01*
X139428000Y-112665000D02*
X143528000Y-112665000D01*
X143528000Y-112665000D02*
X143528000Y-114665000D01*
%TO.C,J2*%
X128058000Y-109065000D02*
X128058000Y-111665000D01*
X113358000Y-109065000D02*
X128058000Y-109065000D01*
X128058000Y-118265000D02*
X126158000Y-118265000D01*
X128058000Y-115565000D02*
X128058000Y-118265000D01*
X113358000Y-118265000D02*
X113358000Y-109065000D01*
X122158000Y-118265000D02*
X113358000Y-118265000D01*
X127208000Y-108865000D02*
X128258000Y-108865000D01*
X128258000Y-109915000D02*
X128258000Y-108865000D01*
%TO.C,J1*%
X127508000Y-102235000D02*
X126238000Y-102235000D01*
X127508000Y-100965000D02*
X127508000Y-102235000D01*
X125195071Y-95505000D02*
X124740929Y-95505000D01*
X125195071Y-96265000D02*
X124740929Y-96265000D01*
X122655071Y-95505000D02*
X122258000Y-95505000D01*
X122655071Y-96265000D02*
X122258000Y-96265000D01*
X113598000Y-95505000D02*
X119598000Y-95505000D01*
X113598000Y-96265000D02*
X113598000Y-95505000D01*
X119598000Y-96265000D02*
X113598000Y-96265000D01*
X122258000Y-97155000D02*
X119598000Y-97155000D01*
X125195071Y-98045000D02*
X124740929Y-98045000D01*
X125195071Y-98805000D02*
X124740929Y-98805000D01*
X122655071Y-98045000D02*
X122258000Y-98045000D01*
X122655071Y-98805000D02*
X122258000Y-98805000D01*
X113598000Y-98045000D02*
X119598000Y-98045000D01*
X113598000Y-98805000D02*
X113598000Y-98045000D01*
X119598000Y-98805000D02*
X113598000Y-98805000D01*
X122258000Y-99695000D02*
X119598000Y-99695000D01*
X125128000Y-100585000D02*
X124740929Y-100585000D01*
X125128000Y-101345000D02*
X124740929Y-101345000D01*
X122655071Y-100585000D02*
X122258000Y-100585000D01*
X122655071Y-101345000D02*
X122258000Y-101345000D01*
X119598000Y-100685000D02*
X113598000Y-100685000D01*
X119598000Y-100805000D02*
X113598000Y-100805000D01*
X119598000Y-100925000D02*
X113598000Y-100925000D01*
X119598000Y-101045000D02*
X113598000Y-101045000D01*
X119598000Y-101165000D02*
X113598000Y-101165000D01*
X119598000Y-101285000D02*
X113598000Y-101285000D01*
X113598000Y-100585000D02*
X119598000Y-100585000D01*
X113598000Y-101345000D02*
X113598000Y-100585000D01*
X119598000Y-101345000D02*
X113598000Y-101345000D01*
X119598000Y-102295000D02*
X122258000Y-102295000D01*
X119598000Y-94555000D02*
X119598000Y-102295000D01*
X122258000Y-94555000D02*
X119598000Y-94555000D01*
X122258000Y-102295000D02*
X122258000Y-94555000D01*
%TO.C,D2*%
X159548000Y-87185000D02*
X159548000Y-87029000D01*
X159548000Y-89501000D02*
X159548000Y-89345000D01*
X156946870Y-87185163D02*
G75*
G02*
X159028961Y-87185000I1041130J-1079837D01*
G01*
X156946870Y-89344837D02*
G75*
G03*
X159028961Y-89345000I1041130J1079837D01*
G01*
X156315665Y-87186392D02*
G75*
G02*
X159548000Y-87029484I1672335J-1078608D01*
G01*
X156315665Y-89343608D02*
G75*
G03*
X159548000Y-89500516I1672335J1078608D01*
G01*
%TO.C,D1*%
X159548000Y-92265000D02*
X159548000Y-92109000D01*
X159548000Y-94581000D02*
X159548000Y-94425000D01*
X156946870Y-92265163D02*
G75*
G02*
X159028961Y-92265000I1041130J-1079837D01*
G01*
X156946870Y-94424837D02*
G75*
G03*
X159028961Y-94425000I1041130J1079837D01*
G01*
X156315665Y-92266392D02*
G75*
G02*
X159548000Y-92109484I1672335J-1078608D01*
G01*
X156315665Y-94423608D02*
G75*
G03*
X159548000Y-94580516I1672335J1078608D01*
G01*
%TO.C,C2*%
X141168000Y-91860000D02*
X141168000Y-91875000D01*
X141168000Y-89735000D02*
X141168000Y-89750000D01*
X136628000Y-91860000D02*
X136628000Y-91875000D01*
X136628000Y-89735000D02*
X136628000Y-89750000D01*
X136628000Y-91875000D02*
X141168000Y-91875000D01*
X136628000Y-89735000D02*
X141168000Y-89735000D01*
%TO.C,C1*%
X141168000Y-104560000D02*
X141168000Y-104575000D01*
X141168000Y-102435000D02*
X141168000Y-102450000D01*
X136628000Y-104560000D02*
X136628000Y-104575000D01*
X136628000Y-102435000D02*
X136628000Y-102450000D01*
X136628000Y-104575000D02*
X141168000Y-104575000D01*
X136628000Y-102435000D02*
X141168000Y-102435000D01*
D10*
%TO.C,P1*%
X140208000Y-125095000D02*
X157988000Y-125095000D01*
X157988000Y-125095000D02*
X157988000Y-122555000D01*
X157988000Y-122555000D02*
X140208000Y-122555000D01*
X137388000Y-125375000D02*
X138938000Y-125375000D01*
X140208000Y-125095000D02*
X140208000Y-122555000D01*
X138938000Y-122275000D02*
X137388000Y-122275000D01*
X137388000Y-122275000D02*
X137388000Y-125375000D01*
%TO.C,P2*%
X163068000Y-125095000D02*
X175768000Y-125095000D01*
X175768000Y-125095000D02*
X175768000Y-122555000D01*
X175768000Y-122555000D02*
X163068000Y-122555000D01*
X160248000Y-125375000D02*
X161798000Y-125375000D01*
X163068000Y-125095000D02*
X163068000Y-122555000D01*
X161798000Y-122275000D02*
X160248000Y-122275000D01*
X160248000Y-122275000D02*
X160248000Y-125375000D01*
%TO.C,P3*%
X131064000Y-76835000D02*
X153924000Y-76835000D01*
X153924000Y-76835000D02*
X153924000Y-74295000D01*
X153924000Y-74295000D02*
X131064000Y-74295000D01*
X128244000Y-77115000D02*
X129794000Y-77115000D01*
X131064000Y-76835000D02*
X131064000Y-74295000D01*
X129794000Y-74015000D02*
X128244000Y-74015000D01*
X128244000Y-74015000D02*
X128244000Y-77115000D01*
%TO.C,P4*%
X157988000Y-76835000D02*
X175768000Y-76835000D01*
X175768000Y-76835000D02*
X175768000Y-74295000D01*
X175768000Y-74295000D02*
X157988000Y-74295000D01*
X155168000Y-77115000D02*
X156718000Y-77115000D01*
X157988000Y-76835000D02*
X157988000Y-74295000D01*
X156718000Y-74015000D02*
X155168000Y-74015000D01*
X155168000Y-74015000D02*
X155168000Y-77115000D01*
%TO.C,P5*%
X127254000Y-123825000D02*
G75*
G03*
X127254000Y-123825000I-2286000J0D01*
G01*
%TO.C,P6*%
X179324000Y-118745000D02*
G75*
G03*
X179324000Y-118745000I-2286000J0D01*
G01*
%TO.C,P7*%
X128524000Y-75565000D02*
G75*
G03*
X128524000Y-75565000I-2286000J0D01*
G01*
%TO.C,P8*%
X179324000Y-90805000D02*
G75*
G03*
X179324000Y-90805000I-2286000J0D01*
G01*
%TO.C,R9*%
X124801333Y-108417380D02*
X124468000Y-107941190D01*
X124229904Y-108417380D02*
X124229904Y-107417380D01*
X124610857Y-107417380D01*
X124706095Y-107465000D01*
X124753714Y-107512619D01*
X124801333Y-107607857D01*
X124801333Y-107750714D01*
X124753714Y-107845952D01*
X124706095Y-107893571D01*
X124610857Y-107941190D01*
X124229904Y-107941190D01*
X125277523Y-108417380D02*
X125468000Y-108417380D01*
X125563238Y-108369761D01*
X125610857Y-108322142D01*
X125706095Y-108179285D01*
X125753714Y-107988809D01*
X125753714Y-107607857D01*
X125706095Y-107512619D01*
X125658476Y-107465000D01*
X125563238Y-107417380D01*
X125372761Y-107417380D01*
X125277523Y-107465000D01*
X125229904Y-107512619D01*
X125182285Y-107607857D01*
X125182285Y-107845952D01*
X125229904Y-107941190D01*
X125277523Y-107988809D01*
X125372761Y-108036428D01*
X125563238Y-108036428D01*
X125658476Y-107988809D01*
X125706095Y-107941190D01*
X125753714Y-107845952D01*
%TO.C,D3*%
X134389904Y-119617380D02*
X134389904Y-118617380D01*
X134628000Y-118617380D01*
X134770857Y-118665000D01*
X134866095Y-118760238D01*
X134913714Y-118855476D01*
X134961333Y-119045952D01*
X134961333Y-119188809D01*
X134913714Y-119379285D01*
X134866095Y-119474523D01*
X134770857Y-119569761D01*
X134628000Y-119617380D01*
X134389904Y-119617380D01*
X135294666Y-118617380D02*
X135913714Y-118617380D01*
X135580380Y-118998333D01*
X135723238Y-118998333D01*
X135818476Y-119045952D01*
X135866095Y-119093571D01*
X135913714Y-119188809D01*
X135913714Y-119426904D01*
X135866095Y-119522142D01*
X135818476Y-119569761D01*
X135723238Y-119617380D01*
X135437523Y-119617380D01*
X135342285Y-119569761D01*
X135294666Y-119522142D01*
%TO.C,Q2*%
X128305619Y-90900238D02*
X128258000Y-90995476D01*
X128162761Y-91090714D01*
X128019904Y-91233571D01*
X127972285Y-91328809D01*
X127972285Y-91424047D01*
X128210380Y-91376428D02*
X128162761Y-91471666D01*
X128067523Y-91566904D01*
X127877047Y-91614523D01*
X127543714Y-91614523D01*
X127353238Y-91566904D01*
X127258000Y-91471666D01*
X127210380Y-91376428D01*
X127210380Y-91185952D01*
X127258000Y-91090714D01*
X127353238Y-90995476D01*
X127543714Y-90947857D01*
X127877047Y-90947857D01*
X128067523Y-90995476D01*
X128162761Y-91090714D01*
X128210380Y-91185952D01*
X128210380Y-91376428D01*
X127305619Y-90566904D02*
X127258000Y-90519285D01*
X127210380Y-90424047D01*
X127210380Y-90185952D01*
X127258000Y-90090714D01*
X127305619Y-90043095D01*
X127400857Y-89995476D01*
X127496095Y-89995476D01*
X127638952Y-90043095D01*
X128210380Y-90614523D01*
X128210380Y-89995476D01*
%TO.C,Q1*%
X128305619Y-103600238D02*
X128258000Y-103695476D01*
X128162761Y-103790714D01*
X128019904Y-103933571D01*
X127972285Y-104028809D01*
X127972285Y-104124047D01*
X128210380Y-104076428D02*
X128162761Y-104171666D01*
X128067523Y-104266904D01*
X127877047Y-104314523D01*
X127543714Y-104314523D01*
X127353238Y-104266904D01*
X127258000Y-104171666D01*
X127210380Y-104076428D01*
X127210380Y-103885952D01*
X127258000Y-103790714D01*
X127353238Y-103695476D01*
X127543714Y-103647857D01*
X127877047Y-103647857D01*
X128067523Y-103695476D01*
X128162761Y-103790714D01*
X128210380Y-103885952D01*
X128210380Y-104076428D01*
X128210380Y-102695476D02*
X128210380Y-103266904D01*
X128210380Y-102981190D02*
X127210380Y-102981190D01*
X127353238Y-103076428D01*
X127448476Y-103171666D01*
X127496095Y-103266904D01*
%TO.C,SW2*%
X162552761Y-97218333D02*
X162600380Y-97075476D01*
X162600380Y-96837380D01*
X162552761Y-96742142D01*
X162505142Y-96694523D01*
X162409904Y-96646904D01*
X162314666Y-96646904D01*
X162219428Y-96694523D01*
X162171809Y-96742142D01*
X162124190Y-96837380D01*
X162076571Y-97027857D01*
X162028952Y-97123095D01*
X161981333Y-97170714D01*
X161886095Y-97218333D01*
X161790857Y-97218333D01*
X161695619Y-97170714D01*
X161648000Y-97123095D01*
X161600380Y-97027857D01*
X161600380Y-96789761D01*
X161648000Y-96646904D01*
X161600380Y-96313571D02*
X162600380Y-96075476D01*
X161886095Y-95885000D01*
X162600380Y-95694523D01*
X161600380Y-95456428D01*
X161695619Y-95123095D02*
X161648000Y-95075476D01*
X161600380Y-94980238D01*
X161600380Y-94742142D01*
X161648000Y-94646904D01*
X161695619Y-94599285D01*
X161790857Y-94551666D01*
X161886095Y-94551666D01*
X162028952Y-94599285D01*
X162600380Y-95170714D01*
X162600380Y-94551666D01*
%TO.C,SW1*%
X162552761Y-87058333D02*
X162600380Y-86915476D01*
X162600380Y-86677380D01*
X162552761Y-86582142D01*
X162505142Y-86534523D01*
X162409904Y-86486904D01*
X162314666Y-86486904D01*
X162219428Y-86534523D01*
X162171809Y-86582142D01*
X162124190Y-86677380D01*
X162076571Y-86867857D01*
X162028952Y-86963095D01*
X161981333Y-87010714D01*
X161886095Y-87058333D01*
X161790857Y-87058333D01*
X161695619Y-87010714D01*
X161648000Y-86963095D01*
X161600380Y-86867857D01*
X161600380Y-86629761D01*
X161648000Y-86486904D01*
X161600380Y-86153571D02*
X162600380Y-85915476D01*
X161886095Y-85725000D01*
X162600380Y-85534523D01*
X161600380Y-85296428D01*
X162600380Y-84391666D02*
X162600380Y-84963095D01*
X162600380Y-84677380D02*
X161600380Y-84677380D01*
X161743238Y-84772619D01*
X161838476Y-84867857D01*
X161886095Y-84963095D01*
%TO.C,R8*%
X133691333Y-86177380D02*
X133358000Y-85701190D01*
X133119904Y-86177380D02*
X133119904Y-85177380D01*
X133500857Y-85177380D01*
X133596095Y-85225000D01*
X133643714Y-85272619D01*
X133691333Y-85367857D01*
X133691333Y-85510714D01*
X133643714Y-85605952D01*
X133596095Y-85653571D01*
X133500857Y-85701190D01*
X133119904Y-85701190D01*
X134262761Y-85605952D02*
X134167523Y-85558333D01*
X134119904Y-85510714D01*
X134072285Y-85415476D01*
X134072285Y-85367857D01*
X134119904Y-85272619D01*
X134167523Y-85225000D01*
X134262761Y-85177380D01*
X134453238Y-85177380D01*
X134548476Y-85225000D01*
X134596095Y-85272619D01*
X134643714Y-85367857D01*
X134643714Y-85415476D01*
X134596095Y-85510714D01*
X134548476Y-85558333D01*
X134453238Y-85605952D01*
X134262761Y-85605952D01*
X134167523Y-85653571D01*
X134119904Y-85701190D01*
X134072285Y-85796428D01*
X134072285Y-85986904D01*
X134119904Y-86082142D01*
X134167523Y-86129761D01*
X134262761Y-86177380D01*
X134453238Y-86177380D01*
X134548476Y-86129761D01*
X134596095Y-86082142D01*
X134643714Y-85986904D01*
X134643714Y-85796428D01*
X134596095Y-85701190D01*
X134548476Y-85653571D01*
X134453238Y-85605952D01*
%TO.C,R7*%
X133691333Y-83637380D02*
X133358000Y-83161190D01*
X133119904Y-83637380D02*
X133119904Y-82637380D01*
X133500857Y-82637380D01*
X133596095Y-82685000D01*
X133643714Y-82732619D01*
X133691333Y-82827857D01*
X133691333Y-82970714D01*
X133643714Y-83065952D01*
X133596095Y-83113571D01*
X133500857Y-83161190D01*
X133119904Y-83161190D01*
X134024666Y-82637380D02*
X134691333Y-82637380D01*
X134262761Y-83637380D01*
%TO.C,R6*%
X131151333Y-96337380D02*
X130818000Y-95861190D01*
X130579904Y-96337380D02*
X130579904Y-95337380D01*
X130960857Y-95337380D01*
X131056095Y-95385000D01*
X131103714Y-95432619D01*
X131151333Y-95527857D01*
X131151333Y-95670714D01*
X131103714Y-95765952D01*
X131056095Y-95813571D01*
X130960857Y-95861190D01*
X130579904Y-95861190D01*
X132008476Y-95337380D02*
X131818000Y-95337380D01*
X131722761Y-95385000D01*
X131675142Y-95432619D01*
X131579904Y-95575476D01*
X131532285Y-95765952D01*
X131532285Y-96146904D01*
X131579904Y-96242142D01*
X131627523Y-96289761D01*
X131722761Y-96337380D01*
X131913238Y-96337380D01*
X132008476Y-96289761D01*
X132056095Y-96242142D01*
X132103714Y-96146904D01*
X132103714Y-95908809D01*
X132056095Y-95813571D01*
X132008476Y-95765952D01*
X131913238Y-95718333D01*
X131722761Y-95718333D01*
X131627523Y-95765952D01*
X131579904Y-95813571D01*
X131532285Y-95908809D01*
%TO.C,R5*%
X131151333Y-109037380D02*
X130818000Y-108561190D01*
X130579904Y-109037380D02*
X130579904Y-108037380D01*
X130960857Y-108037380D01*
X131056095Y-108085000D01*
X131103714Y-108132619D01*
X131151333Y-108227857D01*
X131151333Y-108370714D01*
X131103714Y-108465952D01*
X131056095Y-108513571D01*
X130960857Y-108561190D01*
X130579904Y-108561190D01*
X132056095Y-108037380D02*
X131579904Y-108037380D01*
X131532285Y-108513571D01*
X131579904Y-108465952D01*
X131675142Y-108418333D01*
X131913238Y-108418333D01*
X132008476Y-108465952D01*
X132056095Y-108513571D01*
X132103714Y-108608809D01*
X132103714Y-108846904D01*
X132056095Y-108942142D01*
X132008476Y-108989761D01*
X131913238Y-109037380D01*
X131675142Y-109037380D01*
X131579904Y-108989761D01*
X131532285Y-108942142D01*
%TO.C,R4*%
X140041333Y-94417380D02*
X139708000Y-93941190D01*
X139469904Y-94417380D02*
X139469904Y-93417380D01*
X139850857Y-93417380D01*
X139946095Y-93465000D01*
X139993714Y-93512619D01*
X140041333Y-93607857D01*
X140041333Y-93750714D01*
X139993714Y-93845952D01*
X139946095Y-93893571D01*
X139850857Y-93941190D01*
X139469904Y-93941190D01*
X140898476Y-93750714D02*
X140898476Y-94417380D01*
X140660380Y-93369761D02*
X140422285Y-94084047D01*
X141041333Y-94084047D01*
%TO.C,R3*%
X140041333Y-107117380D02*
X139708000Y-106641190D01*
X139469904Y-107117380D02*
X139469904Y-106117380D01*
X139850857Y-106117380D01*
X139946095Y-106165000D01*
X139993714Y-106212619D01*
X140041333Y-106307857D01*
X140041333Y-106450714D01*
X139993714Y-106545952D01*
X139946095Y-106593571D01*
X139850857Y-106641190D01*
X139469904Y-106641190D01*
X140374666Y-106117380D02*
X140993714Y-106117380D01*
X140660380Y-106498333D01*
X140803238Y-106498333D01*
X140898476Y-106545952D01*
X140946095Y-106593571D01*
X140993714Y-106688809D01*
X140993714Y-106926904D01*
X140946095Y-107022142D01*
X140898476Y-107069761D01*
X140803238Y-107117380D01*
X140517523Y-107117380D01*
X140422285Y-107069761D01*
X140374666Y-107022142D01*
%TO.C,R2*%
X149550380Y-96051666D02*
X149074190Y-96385000D01*
X149550380Y-96623095D02*
X148550380Y-96623095D01*
X148550380Y-96242142D01*
X148598000Y-96146904D01*
X148645619Y-96099285D01*
X148740857Y-96051666D01*
X148883714Y-96051666D01*
X148978952Y-96099285D01*
X149026571Y-96146904D01*
X149074190Y-96242142D01*
X149074190Y-96623095D01*
X148645619Y-95670714D02*
X148598000Y-95623095D01*
X148550380Y-95527857D01*
X148550380Y-95289761D01*
X148598000Y-95194523D01*
X148645619Y-95146904D01*
X148740857Y-95099285D01*
X148836095Y-95099285D01*
X148978952Y-95146904D01*
X149550380Y-95718333D01*
X149550380Y-95099285D01*
%TO.C,R1*%
X147010380Y-96051666D02*
X146534190Y-96385000D01*
X147010380Y-96623095D02*
X146010380Y-96623095D01*
X146010380Y-96242142D01*
X146058000Y-96146904D01*
X146105619Y-96099285D01*
X146200857Y-96051666D01*
X146343714Y-96051666D01*
X146438952Y-96099285D01*
X146486571Y-96146904D01*
X146534190Y-96242142D01*
X146534190Y-96623095D01*
X147010380Y-95099285D02*
X147010380Y-95670714D01*
X147010380Y-95385000D02*
X146010380Y-95385000D01*
X146153238Y-95480238D01*
X146248476Y-95575476D01*
X146296095Y-95670714D01*
%TO.C,J4*%
X120249666Y-87447380D02*
X120249666Y-88161666D01*
X120202047Y-88304523D01*
X120106809Y-88399761D01*
X119963952Y-88447380D01*
X119868714Y-88447380D01*
X121154428Y-87780714D02*
X121154428Y-88447380D01*
X120916333Y-87399761D02*
X120678238Y-88114047D01*
X121297285Y-88114047D01*
%TO.C,J3*%
X141144666Y-114917380D02*
X141144666Y-115631666D01*
X141097047Y-115774523D01*
X141001809Y-115869761D01*
X140858952Y-115917380D01*
X140763714Y-115917380D01*
X141525619Y-114917380D02*
X142144666Y-114917380D01*
X141811333Y-115298333D01*
X141954190Y-115298333D01*
X142049428Y-115345952D01*
X142097047Y-115393571D01*
X142144666Y-115488809D01*
X142144666Y-115726904D01*
X142097047Y-115822142D01*
X142049428Y-115869761D01*
X141954190Y-115917380D01*
X141668476Y-115917380D01*
X141573238Y-115869761D01*
X141525619Y-115822142D01*
X144363714Y-114117380D02*
X143792285Y-114117380D01*
X144078000Y-114117380D02*
X144078000Y-113117380D01*
X143982761Y-113260238D01*
X143887523Y-113355476D01*
X143792285Y-113403095D01*
X138544666Y-113117380D02*
X139163714Y-113117380D01*
X138830380Y-113498333D01*
X138973238Y-113498333D01*
X139068476Y-113545952D01*
X139116095Y-113593571D01*
X139163714Y-113688809D01*
X139163714Y-113926904D01*
X139116095Y-114022142D01*
X139068476Y-114069761D01*
X138973238Y-114117380D01*
X138687523Y-114117380D01*
X138592285Y-114069761D01*
X138544666Y-114022142D01*
%TO.C,J2*%
X118374666Y-118867380D02*
X118374666Y-119581666D01*
X118327047Y-119724523D01*
X118231809Y-119819761D01*
X118088952Y-119867380D01*
X117993714Y-119867380D01*
X118803238Y-118962619D02*
X118850857Y-118915000D01*
X118946095Y-118867380D01*
X119184190Y-118867380D01*
X119279428Y-118915000D01*
X119327047Y-118962619D01*
X119374666Y-119057857D01*
X119374666Y-119153095D01*
X119327047Y-119295952D01*
X118755619Y-119867380D01*
X119374666Y-119867380D01*
%TO.C,J1*%
X120249666Y-102687380D02*
X120249666Y-103401666D01*
X120202047Y-103544523D01*
X120106809Y-103639761D01*
X119963952Y-103687380D01*
X119868714Y-103687380D01*
X121249666Y-103687380D02*
X120678238Y-103687380D01*
X120963952Y-103687380D02*
X120963952Y-102687380D01*
X120868714Y-102830238D01*
X120773476Y-102925476D01*
X120678238Y-102973095D01*
%TO.C,D2*%
X161615380Y-90273095D02*
X160615380Y-90273095D01*
X160615380Y-90035000D01*
X160663000Y-89892142D01*
X160758238Y-89796904D01*
X160853476Y-89749285D01*
X161043952Y-89701666D01*
X161186809Y-89701666D01*
X161377285Y-89749285D01*
X161472523Y-89796904D01*
X161567761Y-89892142D01*
X161615380Y-90035000D01*
X161615380Y-90273095D01*
X160710619Y-89320714D02*
X160663000Y-89273095D01*
X160615380Y-89177857D01*
X160615380Y-88939761D01*
X160663000Y-88844523D01*
X160710619Y-88796904D01*
X160805857Y-88749285D01*
X160901095Y-88749285D01*
X161043952Y-88796904D01*
X161615380Y-89368333D01*
X161615380Y-88749285D01*
%TO.C,D1*%
X161615380Y-92813095D02*
X160615380Y-92813095D01*
X160615380Y-92575000D01*
X160663000Y-92432142D01*
X160758238Y-92336904D01*
X160853476Y-92289285D01*
X161043952Y-92241666D01*
X161186809Y-92241666D01*
X161377285Y-92289285D01*
X161472523Y-92336904D01*
X161567761Y-92432142D01*
X161615380Y-92575000D01*
X161615380Y-92813095D01*
X161615380Y-91289285D02*
X161615380Y-91860714D01*
X161615380Y-91575000D02*
X160615380Y-91575000D01*
X160758238Y-91670238D01*
X160853476Y-91765476D01*
X160901095Y-91860714D01*
%TO.C,C2*%
X138731333Y-88962142D02*
X138683714Y-89009761D01*
X138540857Y-89057380D01*
X138445619Y-89057380D01*
X138302761Y-89009761D01*
X138207523Y-88914523D01*
X138159904Y-88819285D01*
X138112285Y-88628809D01*
X138112285Y-88485952D01*
X138159904Y-88295476D01*
X138207523Y-88200238D01*
X138302761Y-88105000D01*
X138445619Y-88057380D01*
X138540857Y-88057380D01*
X138683714Y-88105000D01*
X138731333Y-88152619D01*
X139112285Y-88152619D02*
X139159904Y-88105000D01*
X139255142Y-88057380D01*
X139493238Y-88057380D01*
X139588476Y-88105000D01*
X139636095Y-88152619D01*
X139683714Y-88247857D01*
X139683714Y-88343095D01*
X139636095Y-88485952D01*
X139064666Y-89057380D01*
X139683714Y-89057380D01*
%TO.C,C1*%
X138731333Y-101662142D02*
X138683714Y-101709761D01*
X138540857Y-101757380D01*
X138445619Y-101757380D01*
X138302761Y-101709761D01*
X138207523Y-101614523D01*
X138159904Y-101519285D01*
X138112285Y-101328809D01*
X138112285Y-101185952D01*
X138159904Y-100995476D01*
X138207523Y-100900238D01*
X138302761Y-100805000D01*
X138445619Y-100757380D01*
X138540857Y-100757380D01*
X138683714Y-100805000D01*
X138731333Y-100852619D01*
X139683714Y-101757380D02*
X139112285Y-101757380D01*
X139398000Y-101757380D02*
X139398000Y-100757380D01*
X139302761Y-100900238D01*
X139207523Y-100995476D01*
X139112285Y-101043095D01*
%TO.C,P1*%
X147089904Y-121737380D02*
X147089904Y-120737380D01*
X147470857Y-120737380D01*
X147566095Y-120785000D01*
X147613714Y-120832619D01*
X147661333Y-120927857D01*
X147661333Y-121070714D01*
X147613714Y-121165952D01*
X147566095Y-121213571D01*
X147470857Y-121261190D01*
X147089904Y-121261190D01*
X148613714Y-121737380D02*
X148042285Y-121737380D01*
X148328000Y-121737380D02*
X148328000Y-120737380D01*
X148232761Y-120880238D01*
X148137523Y-120975476D01*
X148042285Y-121023095D01*
%TO.C,P2*%
X167663904Y-121737380D02*
X167663904Y-120737380D01*
X168044857Y-120737380D01*
X168140095Y-120785000D01*
X168187714Y-120832619D01*
X168235333Y-120927857D01*
X168235333Y-121070714D01*
X168187714Y-121165952D01*
X168140095Y-121213571D01*
X168044857Y-121261190D01*
X167663904Y-121261190D01*
X168616285Y-120832619D02*
X168663904Y-120785000D01*
X168759142Y-120737380D01*
X168997238Y-120737380D01*
X169092476Y-120785000D01*
X169140095Y-120832619D01*
X169187714Y-120927857D01*
X169187714Y-121023095D01*
X169140095Y-121165952D01*
X168568666Y-121737380D01*
X169187714Y-121737380D01*
%TO.C,P3*%
X140485904Y-78811380D02*
X140485904Y-77811380D01*
X140866857Y-77811380D01*
X140962095Y-77859000D01*
X141009714Y-77906619D01*
X141057333Y-78001857D01*
X141057333Y-78144714D01*
X141009714Y-78239952D01*
X140962095Y-78287571D01*
X140866857Y-78335190D01*
X140485904Y-78335190D01*
X141390666Y-77811380D02*
X142009714Y-77811380D01*
X141676380Y-78192333D01*
X141819238Y-78192333D01*
X141914476Y-78239952D01*
X141962095Y-78287571D01*
X142009714Y-78382809D01*
X142009714Y-78620904D01*
X141962095Y-78716142D01*
X141914476Y-78763761D01*
X141819238Y-78811380D01*
X141533523Y-78811380D01*
X141438285Y-78763761D01*
X141390666Y-78716142D01*
%TO.C,P4*%
X164869904Y-78811380D02*
X164869904Y-77811380D01*
X165250857Y-77811380D01*
X165346095Y-77859000D01*
X165393714Y-77906619D01*
X165441333Y-78001857D01*
X165441333Y-78144714D01*
X165393714Y-78239952D01*
X165346095Y-78287571D01*
X165250857Y-78335190D01*
X164869904Y-78335190D01*
X166298476Y-78144714D02*
X166298476Y-78811380D01*
X166060380Y-77763761D02*
X165822285Y-78478047D01*
X166441333Y-78478047D01*
%TD*%
M02*
