M48
; DRILL file {KiCad (5.1.6)-1} date 05/24/20 18:00:03
; FORMAT={-:-/ absolute / metric / decimal}
; #@! TF.CreationDate,2020-05-24T18:00:03+09:00
; #@! TF.GenerationSoftware,Kicad,Pcbnew,(5.1.6)-1
FMAT,2
METRIC
T1C0.400
T2C0.700
T3C0.800
T4C0.900
T5C1.000
T6C1.016
T7C1.100
T8C3.048
%
G90
G05
T1
X126.238Y-98.425
X128.778Y-80.645
X131.318Y-80.645
X150.368Y-80.645
X152.908Y-81.915
X160.528Y-80.645
X160.528Y-81.915
T2
X136.398Y-95.885
X144.018Y-95.885
X136.398Y-85.725
X144.018Y-85.725
X146.558Y-111.125
X146.558Y-113.665
X149.098Y-85.725
X149.098Y-93.345
X146.558Y-116.205
X146.558Y-118.745
X146.558Y-85.725
X146.558Y-93.345
X133.858Y-103.505
X133.858Y-111.125
X146.558Y-106.045
X146.558Y-108.585
X121.158Y-106.045
X128.778Y-106.045
X136.398Y-83.185
X144.018Y-83.185
X133.858Y-90.805
X133.858Y-98.425
X136.398Y-108.585
X144.018Y-108.585
T3
X156.718Y-116.205
X164.338Y-103.505
X156.718Y-118.745
X164.338Y-111.125
X149.098Y-116.205
X164.338Y-108.585
X156.718Y-108.585
X159.258Y-111.125
X131.318Y-88.265
X131.318Y-90.805
X131.318Y-93.345
X174.498Y-111.125
X149.098Y-108.585
X131.318Y-100.965
X131.318Y-103.505
X131.318Y-106.045
X156.718Y-100.965
X159.258Y-100.965
X159.258Y-116.205
X169.418Y-106.045
X166.878Y-106.045
X166.878Y-111.125
X151.638Y-113.665
X169.418Y-108.585
X159.258Y-108.585
X161.798Y-111.125
X151.638Y-100.965
X154.178Y-106.045
X174.498Y-106.045
X161.798Y-100.965
X149.098Y-118.745
X161.798Y-116.205
X171.958Y-116.205
X154.178Y-113.665
X166.878Y-118.745
X161.798Y-108.585
X174.498Y-108.585
X177.038Y-113.665
X159.258Y-103.505
X177.038Y-108.585
X156.718Y-106.045
X136.398Y-90.805
X141.398Y-90.805
X169.418Y-103.505
X151.638Y-118.745
X164.338Y-118.745
X174.498Y-103.505
X177.038Y-103.505
X159.258Y-113.665
X166.878Y-108.585
X149.098Y-111.125
X149.098Y-106.045
X174.498Y-113.665
X161.798Y-106.045
X154.178Y-118.745
X166.878Y-103.505
X164.338Y-113.665
X166.878Y-113.665
X171.958Y-106.045
X156.718Y-113.665
X169.418Y-118.745
X156.718Y-111.125
X177.038Y-106.045
X149.098Y-103.505
X171.958Y-111.125
X151.638Y-108.585
X156.718Y-103.505
X159.258Y-118.745
X136.398Y-103.505
X141.398Y-103.505
X161.798Y-118.745
X164.338Y-106.045
X164.338Y-116.205
X149.098Y-113.665
X169.418Y-116.205
X151.638Y-116.205
X169.418Y-111.125
X154.178Y-111.125
X171.958Y-108.585
X161.798Y-103.505
X177.038Y-111.125
X154.178Y-100.965
X151.638Y-106.045
X154.178Y-116.205
X149.098Y-100.965
X171.958Y-103.505
X169.418Y-113.665
X161.798Y-113.665
X171.958Y-118.745
X154.178Y-108.585
X166.878Y-116.205
X151.638Y-111.125
X171.958Y-113.665
X151.638Y-103.505
X154.178Y-103.505
X159.258Y-106.045
T4
X156.718Y-93.345
X159.258Y-93.345
X133.858Y-116.205
X136.398Y-116.205
X156.718Y-88.265
X159.258Y-88.265
T5
X123.698Y-95.885
X123.698Y-98.425
X123.698Y-100.965
X126.238Y-95.885
X126.238Y-98.425
X126.238Y-100.965
X123.698Y-80.645
X123.698Y-83.185
X123.698Y-85.725
X126.238Y-80.645
X126.238Y-83.185
X126.238Y-85.725
T6
X156.718Y-75.565
X159.258Y-75.565
X161.798Y-75.565
X164.338Y-75.565
X166.878Y-75.565
X169.418Y-75.565
X171.958Y-75.565
X174.498Y-75.565
X161.798Y-123.825
X164.338Y-123.825
X166.878Y-123.825
X169.418Y-123.825
X171.958Y-123.825
X174.498Y-123.825
X138.938Y-123.825
X141.478Y-123.825
X144.018Y-123.825
X146.558Y-123.825
X149.098Y-123.825
X151.638Y-123.825
X154.178Y-123.825
X156.718Y-123.825
X129.794Y-75.565
X132.334Y-75.565
X134.874Y-75.565
X137.414Y-75.565
X139.954Y-75.565
X142.494Y-75.565
X145.034Y-75.565
X147.574Y-75.565
X150.114Y-75.565
X152.654Y-75.565
T7
X164.338Y-93.345
X164.338Y-98.425
X171.958Y-93.345
X171.958Y-98.425
X164.338Y-83.185
X164.338Y-88.265
X171.958Y-83.185
X171.958Y-88.265
T8
X126.238Y-75.565
X124.968Y-123.825
X177.038Y-118.745
X177.038Y-90.805
T5
G00X121.158Y-112.665
M15
G01X121.158Y-114.665
M16
G05
G00X123.158Y-118.365
M15
G01X125.158Y-118.365
M16
G05
G00X127.158Y-112.665
M15
G01X127.158Y-114.665
M16
G05
T0
M30
